{"glyphs":{"0":{"ha":506,"x_min":18,"x_max":492,"o":"m 40 432 q 71 545 50 482 q 126 663 92 608 q 207 756 160 718 q 317 794 254 794 q 421 760 383 794 q 472 661 458 725 q 476 640 475 650 q 479 618 476 629 q 482 435 492 524 q 357 93 463 250 q 285 22 326 50 q 183 1 244 -7 q 124 24 150 6 q 78 67 97 42 q 48 123 60 93 q 31 182 36 153 q 24 307 18 244 q 40 432 29 369 m 208 63 q 231 58 219 58 q 290 89 261 58 q 344 160 319 119 q 385 240 368 200 q 408 299 401 281 q 444 526 444 406 q 444 581 444 551 q 438 640 443 611 q 419 693 432 668 q 382 732 407 718 q 354 740 368 740 q 299 708 325 740 q 253 635 274 676 q 219 552 233 593 q 200 494 206 511 q 185 436 193 474 q 172 354 178 399 q 162 262 165 310 q 162 173 158 214 q 176 102 165 132 q 208 63 188 72 z "},"1":{"ha":469,"x_min":4,"x_max":461,"o":"m 15 35 q 8 43 13 38 q 11 51 4 49 q 34 58 22 57 q 58 60 46 58 q 76 60 67 60 q 93 61 85 61 l 106 61 q 113 63 108 63 l 128 63 q 117 129 106 94 q 207 355 157 246 q 306 576 257 464 q 333 640 319 608 q 351 713 347 672 q 331 679 342 694 q 307 653 321 664 q 272 640 293 643 q 218 642 251 636 q 285 704 251 674 q 353 765 318 735 q 403 782 372 782 q 439 772 425 782 q 460 731 460 757 q 456 683 461 706 q 433 602 447 642 q 404 522 419 563 q 322 325 365 422 q 236 128 279 228 q 213 68 222 96 q 222 69 219 68 q 268 63 246 71 q 310 43 290 54 q 323 32 315 39 q 333 18 331 25 q 319 4 335 7 q 188 0 256 0 q 122 1 156 0 q 57 14 88 3 q 54 15 56 14 q 51 15 53 15 q 15 35 31 19 z "},"2":{"ha":554,"x_min":6,"x_max":556,"o":"m 7 54 l 8 54 q 11 75 6 65 q 25 94 17 85 q 89 161 57 128 q 153 229 121 194 q 165 242 160 236 q 178 254 171 247 q 317 388 249 318 q 432 542 386 458 q 453 584 442 558 q 468 635 464 610 q 466 683 472 661 q 433 718 460 706 q 404 721 419 725 q 374 707 389 717 q 348 685 360 697 q 329 664 336 674 q 309 624 315 646 q 311 581 303 603 q 322 566 315 571 q 338 557 329 561 q 353 548 346 553 q 367 536 361 543 q 367 519 374 526 q 333 510 353 510 q 300 515 317 510 q 272 524 283 519 q 227 556 243 535 q 207 601 211 576 q 210 652 203 626 q 233 699 217 678 q 314 763 264 738 q 414 790 364 789 q 503 769 465 793 q 538 732 526 754 q 552 685 549 710 q 553 633 556 660 q 543 585 550 607 q 486 454 522 518 q 405 331 450 390 q 309 217 360 272 q 210 114 258 163 q 245 116 228 115 q 281 117 263 117 q 329 113 304 115 q 379 106 354 111 q 400 102 390 104 q 421 97 410 100 q 473 82 447 90 q 521 58 499 74 q 535 47 528 53 q 546 32 543 40 q 543 22 549 25 q 531 17 538 18 q 501 18 515 14 q 472 26 486 22 q 463 29 469 28 q 456 32 457 31 q 441 35 449 33 q 426 38 433 36 q 422 38 424 38 q 417 39 419 39 q 415 40 415 39 q 413 40 414 40 l 410 40 q 403 41 407 40 q 397 42 400 42 q 376 44 386 43 q 354 44 365 44 q 344 46 351 46 q 336 45 342 46 q 342 46 331 44 q 333 45 338 44 q 322 44 328 46 q 301 44 311 44 q 279 42 290 43 q 240 35 260 39 q 200 26 219 32 l 163 14 q 137 5 150 10 q 108 0 124 0 q 75 5 92 0 q 43 17 58 10 q 25 28 36 19 q 7 54 6 40 z "},"3":{"ha":560,"x_min":21,"x_max":564,"o":"m 382 267 q 398 294 400 282 q 371 311 396 307 q 323 317 347 314 q 275 322 299 321 q 194 389 214 326 q 198 436 183 417 q 232 471 213 456 q 353 561 288 518 q 471 657 419 604 q 481 700 488 676 q 446 722 475 722 q 409 716 429 722 q 370 702 389 710 q 336 686 351 694 q 315 674 321 678 q 285 645 300 663 q 272 607 269 628 q 274 600 272 603 q 276 585 279 592 q 258 576 271 575 q 239 579 246 576 q 203 590 222 582 q 167 609 183 597 q 144 638 151 621 q 144 675 136 654 q 181 719 153 699 q 243 754 208 739 q 312 779 278 769 q 368 792 346 789 q 417 795 392 794 q 465 791 442 796 q 510 774 489 786 q 543 738 531 761 q 557 653 564 699 q 526 574 550 608 q 492 530 511 550 q 453 490 472 510 q 413 454 433 471 q 365 417 392 438 q 451 367 418 397 q 481 278 483 338 q 448 174 478 215 q 371 100 418 132 q 274 39 324 67 q 165 3 224 11 q 83 13 118 -4 q 21 79 49 31 q 129 97 79 81 q 222 140 179 114 q 305 199 265 167 q 382 267 344 232 z "},"4":{"ha":633,"x_min":-3,"x_max":629,"o":"m 63 394 q 167 506 115 444 q 243 639 219 568 q 261 708 254 671 q 256 779 268 744 l 254 781 q 242 795 247 788 q 249 807 238 803 q 288 807 269 814 q 320 785 307 800 q 342 750 333 769 q 351 713 350 731 q 347 649 354 681 q 328 589 339 618 q 214 401 283 488 q 205 388 211 399 q 194 378 199 378 q 232 381 210 379 q 278 385 254 383 q 323 390 301 388 q 360 393 344 392 q 391 412 382 396 q 410 446 400 428 q 501 612 456 529 q 596 782 547 694 q 628 692 629 736 q 611 606 626 649 q 541 442 581 519 q 461 285 501 364 q 403 171 432 228 q 354 51 375 114 q 349 31 351 42 q 343 13 347 21 q 332 2 339 6 q 311 3 325 -1 q 278 29 288 10 q 271 74 269 49 q 285 159 272 118 q 313 240 299 200 q 334 287 321 264 q 346 343 347 310 q 210 319 275 340 q 79 282 146 297 q 58 276 68 279 q 38 272 49 272 q 7 290 18 272 q 1 322 -3 307 q 15 349 4 336 q 39 373 25 361 q 63 394 53 385 z "},"5":{"ha":563,"x_min":-3,"x_max":579,"o":"m 1 81 q 22 103 6 103 q 44 97 33 103 q 67 93 56 92 q 244 151 167 104 q 385 274 322 199 q 404 304 396 288 q 404 338 413 321 q 377 356 396 357 q 340 354 358 356 q 270 344 304 351 q 204 321 236 336 q 164 311 181 311 q 124 328 143 311 q 104 367 106 346 q 110 408 103 388 q 126 446 114 418 q 155 510 138 474 q 192 588 172 547 q 233 663 213 629 q 270 721 253 697 q 300 746 288 744 q 370 750 325 750 q 460 747 415 750 q 538 742 504 744 q 576 736 572 739 q 569 729 579 735 q 545 716 558 724 q 519 702 532 708 q 503 693 506 696 q 474 684 500 690 q 411 678 447 678 q 340 688 374 678 q 319 650 338 688 q 276 562 300 613 q 228 458 253 511 q 189 375 204 406 q 241 396 214 389 q 289 407 268 403 q 369 408 332 414 q 429 381 406 401 q 461 324 453 360 q 454 240 469 289 q 404 150 442 196 q 318 69 367 104 q 215 14 269 33 q 114 1 161 -6 q 54 19 85 6 q 16 43 35 29 q 1 81 -3 57 z "},"6":{"ha":517,"x_min":0,"x_max":507,"o":"m 51 400 q 200 612 103 517 q 406 769 297 707 q 439 783 415 775 q 482 790 463 790 q 500 786 494 790 q 507 765 507 779 q 499 754 507 761 q 482 741 492 747 q 463 729 472 735 q 451 721 454 724 q 278 553 354 650 q 218 467 247 513 q 169 373 189 422 q 140 272 149 324 q 140 167 131 219 q 185 86 149 117 q 267 56 222 56 q 308 63 288 56 q 349 89 329 71 q 390 140 369 108 q 423 206 411 172 q 431 274 435 240 q 399 332 428 308 q 350 349 378 349 q 296 332 319 349 q 239 260 250 299 q 238 189 228 222 q 272 131 247 156 q 321 100 296 107 q 309 94 328 99 q 267 89 290 89 q 215 103 233 89 q 172 174 181 131 q 172 260 163 218 q 193 315 179 288 q 227 363 207 342 q 274 397 247 383 q 331 410 300 410 q 408 388 371 410 q 464 328 446 365 q 478 249 481 292 q 455 153 475 199 q 401 74 435 108 q 322 20 367 40 q 226 0 278 0 q 154 13 190 0 q 88 50 118 26 q 38 105 58 74 q 11 171 17 136 q 14 288 0 229 q 51 400 28 347 z "},"7":{"ha":576,"x_min":36,"x_max":575,"o":"m 75 760 q 85 757 81 758 q 96 754 90 756 q 101 752 99 753 q 106 750 103 751 l 108 750 q 130 746 119 747 q 151 742 140 744 l 150 742 l 154 742 q 164 740 161 742 q 173 740 168 740 q 182 739 178 739 q 203 738 193 738 q 225 736 214 738 l 269 736 q 280 737 275 736 q 292 738 285 738 l 294 738 l 304 738 q 386 747 344 740 q 468 767 428 754 q 501 768 485 774 q 533 756 518 763 q 563 736 553 746 q 569 727 564 735 q 571 715 575 719 q 394 510 483 618 q 244 289 304 403 q 198 187 217 239 q 164 81 179 135 q 159 62 161 71 q 154 43 157 53 q 150 24 153 38 q 144 9 149 18 q 132 0 139 0 q 110 16 122 0 q 92 63 99 32 q 89 142 86 94 q 110 251 92 189 q 172 391 129 317 q 260 529 215 465 q 342 635 306 593 q 385 678 379 678 q 327 676 356 675 q 269 679 299 676 q 219 685 249 681 q 158 697 189 690 q 97 714 126 704 q 51 736 68 724 q 42 743 47 739 q 38 754 38 747 q 51 764 36 764 q 65 763 58 764 q 75 760 72 761 z "},"8":{"ha":508,"x_min":6,"x_max":501,"o":"m 219 46 q 271 78 251 54 q 299 128 290 101 q 310 181 308 156 q 308 215 313 206 q 289 250 301 235 q 261 278 276 265 q 254 283 258 279 q 254 283 254 283 q 250 286 251 285 q 246 289 249 288 l 229 301 l 192 326 q 189 329 192 326 q 143 240 163 290 q 122 143 124 189 q 124 118 122 131 q 128 93 125 106 q 144 63 132 74 q 170 48 156 53 q 199 44 185 43 q 219 46 213 44 m 224 347 q 222 349 222 349 l 224 347 m 329 296 q 410 449 372 365 q 451 617 449 533 q 442 679 451 643 q 406 725 433 715 q 363 725 385 733 q 320 701 340 717 q 283 667 300 686 q 254 633 265 649 q 203 545 222 592 q 185 446 185 499 q 192 450 189 449 q 200 453 196 451 q 232 463 215 460 q 265 468 249 467 q 315 453 289 469 q 327 442 321 450 q 321 431 333 433 q 261 406 290 428 q 213 361 232 385 q 218 355 215 358 q 224 347 221 351 l 225 347 q 228 343 226 344 q 233 338 231 342 q 235 336 235 336 q 238 335 236 336 l 246 326 q 249 324 247 325 q 251 321 250 324 l 271 308 q 294 291 282 300 q 318 271 307 282 q 329 296 321 279 m 361 224 l 358 224 q 375 188 369 207 q 378 146 381 168 q 360 88 375 114 q 321 42 344 61 q 268 11 297 22 q 207 0 239 0 q 149 11 181 0 q 90 40 118 22 q 41 83 61 58 q 15 133 21 107 q 19 224 6 178 q 51 311 32 271 q 106 397 75 358 q 105 399 106 399 q 104 403 104 400 q 88 444 93 422 q 79 490 82 467 q 99 601 79 547 q 153 698 118 656 q 239 766 189 740 q 349 792 289 792 q 414 782 383 792 q 465 749 444 772 q 496 684 490 721 q 499 611 501 647 q 487 530 497 572 q 462 445 476 488 q 430 362 447 403 q 396 286 413 321 q 390 274 394 285 q 381 253 386 264 q 369 233 375 242 q 361 224 364 224 z "},"9":{"ha":500,"x_min":28,"x_max":472,"o":"m 44 31 q 150 90 107 43 q 222 197 193 138 q 270 316 251 257 q 301 413 289 375 q 247 389 276 400 q 189 378 217 378 q 117 412 140 378 q 94 490 94 446 q 115 592 94 536 q 169 695 135 647 q 251 775 204 743 q 349 807 297 807 q 413 788 383 807 q 457 725 442 769 q 471 649 469 688 q 467 571 472 610 q 451 494 461 532 q 431 419 440 456 q 381 266 407 342 q 315 119 356 190 q 261 47 293 81 q 183 4 229 14 q 121 1 153 -1 q 66 8 89 3 q 35 20 43 14 q 44 31 28 26 m 138 468 q 151 427 140 439 q 182 415 163 415 q 229 424 204 415 q 269 447 254 432 q 316 499 297 468 q 347 564 335 529 q 365 635 358 599 q 375 706 371 672 q 374 731 376 717 q 358 751 372 746 q 334 755 347 757 q 310 747 321 753 q 242 699 275 731 q 186 628 210 667 q 149 547 163 589 q 138 468 136 504 z "},"­":{"ha":347,"x_min":0,"x_max":0,"o":""},"\u0000":{"ha":0,"x_min":0,"x_max":0,"o":""},"\r":{"ha":347,"x_min":0,"x_max":0,"o":""}," ":{"ha":361,"x_min":0,"x_max":0,"o":""},"A":{"ha":1096,"x_min":-21,"x_max":1046,"o":"m -18 454 q -7 454 -12 457 q 3 449 -1 451 q 35 436 17 442 q 68 426 53 431 q 140 415 104 417 q 211 415 175 413 q 238 417 225 417 q 264 418 250 417 q 268 421 265 418 q 366 556 313 486 q 478 690 419 625 q 602 815 538 756 q 733 917 667 874 q 780 945 757 932 q 826 972 803 958 q 872 994 846 983 q 921 1008 899 1006 q 925 1009 924 1010 q 929 1010 926 1008 l 940 1010 q 986 988 968 1008 q 1014 939 1006 969 q 1024 883 1022 908 q 1019 808 1026 846 q 1000 717 1014 763 q 969 629 986 672 q 942 556 956 593 q 918 482 929 519 q 908 451 914 463 q 910 447 908 449 q 914 446 913 446 q 918 444 915 446 q 997 399 963 425 q 1046 326 1031 374 l 1046 318 q 1043 300 1046 306 q 1029 288 1036 292 q 1010 285 1019 281 q 1001 296 1003 289 q 1000 307 1000 299 l 1000 322 q 997 336 1000 328 q 978 358 990 351 q 951 371 965 364 q 921 378 936 376 q 890 379 906 379 q 888 375 888 379 q 845 216 865 299 q 818 54 825 133 q 815 30 817 42 q 814 6 814 18 q 813 -26 813 -10 q 817 -57 814 -42 q 833 -100 821 -82 l 840 -107 q 854 -110 847 -111 q 858 -107 857 -108 q 863 -104 860 -106 q 871 -97 867 -101 q 878 -90 875 -93 q 881 -87 881 -87 q 862 -124 875 -104 q 832 -151 849 -144 q 806 -158 819 -158 q 774 -147 786 -158 q 747 -100 756 -132 q 736 -46 739 -68 q 733 -15 733 -31 q 731 17 732 1 q 731 44 731 31 q 732 72 731 58 q 733 101 732 88 q 735 131 733 115 q 747 257 739 194 q 756 303 751 281 q 765 350 760 326 q 768 361 765 356 q 764 361 767 364 q 751 359 757 360 q 738 357 744 358 q 589 336 665 344 q 558 332 574 333 q 525 328 542 331 q 435 317 481 321 q 344 311 389 314 q 339 308 340 311 q 289 171 311 246 q 267 25 267 96 q 267 -42 265 -8 q 276 -101 271 -72 q 290 -160 282 -129 q 289 -162 292 -162 l 269 -162 q 256 -162 263 -162 q 242 -160 249 -161 q 149 -115 179 -154 q 115 -17 118 -75 q 119 49 115 18 q 131 113 124 79 q 162 215 144 164 q 203 315 179 267 l 200 315 q 141 330 175 319 q 74 357 107 340 q 16 397 42 374 q -18 446 -10 419 q -18 454 -21 453 m 454 439 q 493 444 474 442 q 532 450 513 447 l 619 463 q 661 468 640 465 q 703 474 682 471 q 729 476 717 475 q 756 476 742 476 q 776 477 767 478 q 796 475 785 476 q 799 478 799 475 q 813 515 806 497 q 826 550 819 532 q 854 620 840 586 q 882 690 868 654 q 921 796 901 739 q 946 906 940 853 q 948 926 947 917 q 946 946 949 935 q 943 958 946 950 q 939 961 942 961 q 789 875 865 935 q 642 741 713 815 q 510 587 571 667 q 408 438 450 507 q 406 433 406 435 q 431 436 418 435 q 454 439 443 438 z "},"a":{"ha":640,"x_min":-47,"x_max":667,"o":"m 13 292 q 13 293 13 293 q 14 294 14 293 q 67 388 33 338 q 142 479 100 438 q 235 549 185 521 q 338 575 285 576 q 383 568 360 574 q 426 551 407 563 q 460 524 446 540 q 481 483 475 507 q 481 430 486 457 q 463 379 475 403 q 454 361 460 372 q 453 358 453 358 q 443 288 453 317 q 433 256 443 286 q 419 190 424 226 q 422 123 414 154 q 463 89 429 92 q 524 108 493 86 q 581 162 554 131 q 628 224 608 193 q 658 271 649 256 q 656 258 667 283 q 619 190 644 232 q 560 100 594 147 q 485 24 525 53 q 410 0 453 0 q 347 17 376 0 q 310 71 318 35 q 310 133 303 94 q 333 211 318 171 q 323 201 328 206 q 314 189 318 196 q 224 100 271 143 q 122 25 176 57 q 86 6 106 14 q 47 0 67 -3 l 44 1 q -3 23 17 4 q -31 65 -24 42 q -29 181 -47 121 q 13 292 -11 240 m 46 25 q 99 46 65 21 q 169 106 133 71 q 234 176 204 142 q 276 226 264 211 q 305 265 292 246 q 329 307 318 285 q 345 338 336 322 q 364 369 354 354 q 365 383 364 379 q 360 422 365 403 q 328 442 354 442 q 300 433 311 442 q 228 381 261 410 q 167 318 196 353 q 122 267 146 296 q 76 205 97 238 q 40 139 54 172 q 24 74 25 106 q 26 45 22 63 q 46 25 31 28 z "},"B":{"ha":1132,"x_min":43,"x_max":1043,"o":"m 44 721 q 58 774 50 749 q 81 824 65 799 q 154 900 110 867 q 249 958 199 933 q 355 997 300 982 q 460 1017 410 1011 q 535 1022 493 1022 q 538 1024 538 1022 l 574 1024 q 579 1022 576 1022 q 716 1005 644 1022 q 851 953 788 988 q 964 868 915 919 q 1033 747 1013 817 q 1040 720 1038 733 q 1043 692 1043 707 l 1043 664 l 1043 660 q 1042 651 1043 656 q 1042 644 1042 647 q 1017 575 1036 607 q 968 518 997 543 q 904 476 939 493 q 833 451 869 460 l 832 451 q 829 450 832 450 q 831 449 831 449 q 833 447 832 449 q 939 342 900 403 q 983 200 978 282 q 983 165 985 182 q 978 131 981 149 q 889 -42 960 28 q 722 -143 818 -111 q 683 -154 703 -150 q 642 -160 663 -158 l 604 -164 q 585 -166 594 -165 q 565 -167 575 -167 q 549 -168 557 -168 q 532 -169 542 -168 l 507 -169 q 490 -167 504 -167 q 472 -167 476 -167 q 376 -145 425 -162 q 287 -99 328 -128 q 217 -29 246 -69 q 181 61 189 11 q 199 193 172 126 q 313 338 238 282 q 481 414 389 393 q 489 415 485 415 q 497 417 493 415 q 500 419 500 417 q 528 493 515 456 q 550 568 542 531 q 569 665 564 615 q 574 763 574 714 q 576 769 574 767 q 586 774 579 776 q 593 769 592 774 q 620 742 610 760 q 635 706 631 725 q 642 665 640 686 q 643 626 643 644 q 644 596 644 611 q 642 565 643 581 q 633 508 639 535 l 633 504 q 636 506 635 504 q 656 510 646 508 q 678 515 667 513 q 819 556 753 521 q 919 660 885 590 q 939 740 939 699 q 919 825 936 790 q 872 883 901 860 q 806 922 843 907 q 725 946 768 936 q 694 950 710 949 q 664 954 679 951 q 620 957 642 957 q 575 956 599 957 q 449 942 518 956 q 318 899 381 928 q 207 826 256 871 q 139 719 158 782 q 136 682 135 699 q 140 659 138 671 q 147 636 142 647 q 168 621 153 626 q 210 626 186 617 q 247 657 233 638 q 263 701 260 676 q 264 704 264 703 q 265 708 264 706 q 272 714 268 714 q 297 710 285 717 q 325 667 324 694 q 300 599 326 628 q 271 581 289 588 q 190 565 236 565 q 103 592 140 568 q 50 667 65 615 q 46 681 47 674 q 44 694 44 688 q 44 708 43 701 q 44 721 44 714 m 260 51 q 272 -8 261 21 q 297 -52 283 -32 q 335 -83 310 -72 q 387 -105 358 -99 q 443 -112 415 -111 q 476 -112 460 -114 q 508 -108 492 -111 q 641 -64 569 -97 q 761 10 713 -31 q 845 118 811 57 q 882 250 879 179 q 881 272 882 261 q 879 294 881 283 q 874 319 876 307 q 867 343 872 332 q 833 400 851 379 q 783 442 815 421 l 778 442 q 756 440 767 440 q 733 439 744 439 q 678 442 706 439 q 625 458 650 444 q 622 456 622 458 q 617 437 619 446 q 611 418 614 428 q 610 415 611 417 q 610 413 610 414 q 615 411 611 411 q 663 397 639 406 q 708 376 686 389 q 725 367 714 372 q 732 360 729 364 q 735 357 735 360 q 732 351 738 351 q 729 352 731 351 q 726 353 728 353 q 717 357 721 356 q 654 379 683 374 q 603 385 632 385 q 599 382 600 385 q 579 331 590 358 q 556 276 568 303 q 533 222 544 250 q 513 177 522 199 q 492 132 503 156 q 478 118 488 122 q 468 117 475 117 q 440 128 454 117 q 413 188 417 151 q 417 225 408 207 q 419 232 418 228 q 422 240 419 236 q 448 299 435 269 q 474 357 461 328 q 475 363 475 358 q 474 362 474 363 q 472 361 474 361 q 352 279 404 332 q 275 156 300 226 q 260 51 256 104 z "},"C":{"ha":976,"x_min":7,"x_max":922,"o":"m 15 157 q 70 372 29 267 q 172 574 111 478 q 308 755 232 669 q 465 911 383 840 q 581 985 514 953 q 715 1017 647 1017 q 852 967 800 1017 q 915 833 904 917 q 906 711 922 775 q 867 594 889 647 q 815 494 847 546 q 735 415 782 443 q 700 403 714 403 q 672 419 685 403 q 667 429 669 424 q 719 542 694 482 q 764 657 742 592 q 801 792 786 722 q 812 858 807 819 q 803 926 817 897 q 801 929 801 928 q 761 958 788 953 q 716 956 739 963 q 672 939 693 950 q 632 913 651 928 q 597 886 613 899 q 440 735 517 824 q 300 547 364 647 q 190 338 236 446 q 125 129 144 231 q 119 61 119 103 q 127 -20 118 19 q 158 -88 136 -60 q 218 -118 179 -117 q 338 -105 275 -119 q 475 -55 401 -90 q 635 40 549 -19 q 822 186 721 99 q 835 192 825 189 q 853 197 844 194 q 869 201 863 200 q 875 200 876 201 q 863 178 867 186 q 850 158 858 172 q 742 31 804 89 q 611 -74 679 -26 q 463 -160 547 -125 q 297 -194 379 -194 q 265 -193 282 -194 q 233 -189 249 -192 q 129 -144 174 -178 q 57 -62 85 -110 q 18 43 29 -14 q 15 157 7 100 m 304 164 q 303 165 303 164 l 304 164 z "},"D":{"ha":1183,"x_min":17,"x_max":1111,"o":"m 88 847 q 177 922 126 890 q 285 975 228 954 q 401 1008 342 996 q 518 1022 461 1019 q 569 1024 543 1025 q 621 1021 594 1024 q 842 956 742 1010 q 1010 808 943 903 q 1090 627 1068 726 q 1100 432 1111 528 q 1056 260 1090 343 q 970 106 1022 178 q 850 -23 918 35 q 701 -119 782 -81 q 587 -166 647 -149 q 464 -183 526 -183 q 374 -172 419 -183 q 289 -137 329 -160 q 215 -84 249 -115 q 157 -14 181 -53 q 131 65 136 24 q 136 149 126 107 q 185 259 149 207 q 274 351 222 311 q 385 414 325 390 q 506 439 446 438 q 552 592 535 514 q 569 750 569 669 q 570 761 569 756 q 574 769 571 767 q 583 772 578 775 q 593 767 589 769 q 628 717 621 747 q 639 656 636 688 q 642 619 642 638 q 640 583 642 601 q 631 503 639 543 q 613 424 622 464 l 615 424 q 707 382 664 407 q 715 376 710 381 q 718 368 721 371 q 711 367 715 365 q 703 371 707 368 q 702 372 706 369 q 696 375 699 374 q 689 378 694 375 q 681 381 685 379 q 674 383 676 382 q 640 394 657 390 q 604 400 624 397 q 560 283 585 340 q 508 168 535 226 q 497 140 501 153 q 488 119 493 129 q 476 106 482 113 q 463 97 469 99 q 449 101 456 96 q 435 114 442 107 q 419 133 426 122 q 404 181 406 156 q 408 209 404 196 q 418 236 413 222 q 453 313 435 275 q 488 392 471 351 q 394 353 439 379 q 315 291 350 328 q 255 210 279 254 q 219 115 231 165 q 225 -3 208 53 q 231 -19 228 -11 q 239 -35 235 -28 q 244 -43 242 -40 q 246 -46 244 -44 q 247 -49 247 -47 q 247 -49 247 -49 l 249 -50 l 250 -51 q 253 -56 251 -54 q 256 -60 254 -57 q 263 -68 261 -65 q 265 -71 265 -71 l 268 -74 q 271 -77 269 -76 q 274 -81 272 -78 q 278 -83 275 -81 q 275 -81 275 -83 q 274 -79 274 -81 q 283 -87 274 -81 q 280 -85 279 -85 q 283 -87 281 -86 l 297 -94 q 301 -96 300 -96 q 304 -97 301 -96 q 308 -98 307 -97 q 310 -99 308 -99 q 324 -103 317 -101 q 339 -106 332 -104 l 342 -106 l 344 -106 q 360 -107 350 -107 q 419 -104 388 -108 q 522 -80 469 -99 q 623 -33 574 -61 q 717 28 672 -6 q 797 99 763 63 q 910 255 865 168 q 970 435 956 342 q 965 622 985 529 q 882 797 944 715 q 733 914 822 876 q 546 951 643 951 q 440 940 494 951 q 333 906 385 928 q 235 851 281 883 q 158 775 190 818 q 129 715 139 747 q 126 649 119 682 q 138 614 129 631 q 169 597 147 597 q 210 617 190 597 q 240 651 229 636 q 249 664 244 658 q 256 676 253 669 q 259 691 258 683 q 268 700 260 699 q 301 692 289 703 q 317 666 313 682 q 321 632 322 650 q 313 600 319 614 q 269 556 300 569 q 207 543 238 543 q 95 576 149 543 q 28 669 42 608 q 37 764 17 717 q 88 847 57 811 z "},"E":{"ha":978,"x_min":32,"x_max":1026,"o":"m 38 61 q 75 135 44 97 q 145 206 106 172 q 226 268 185 240 q 296 310 267 296 q 229 326 265 315 q 161 353 193 336 q 105 397 129 371 q 74 458 81 422 q 69 480 71 469 q 69 501 68 490 q 109 592 74 543 q 199 692 144 642 q 319 792 253 743 q 454 882 386 840 q 585 954 522 924 q 693 997 647 985 q 799 1013 746 1013 q 920 988 863 1013 q 1008 903 978 963 q 1024 826 1026 867 q 1008 750 1022 786 q 985 692 1000 724 q 949 631 969 660 q 905 578 929 601 q 854 544 881 556 q 832 539 842 539 q 806 561 813 539 l 882 693 q 904 733 892 708 q 928 784 917 757 q 947 838 939 811 q 954 882 954 864 q 938 930 957 917 q 888 943 918 943 q 790 924 844 943 q 678 878 735 906 q 570 819 622 851 q 481 761 518 788 q 386 690 432 728 q 293 613 340 651 q 232 549 258 585 q 190 482 206 514 q 172 427 174 450 q 182 400 169 404 l 183 400 l 181 400 q 185 399 183 400 q 188 399 186 399 q 290 383 238 388 q 394 379 343 378 q 425 379 410 379 q 456 381 440 379 q 503 383 479 382 q 550 388 526 383 q 596 394 574 390 q 642 397 618 399 q 676 386 660 396 q 706 364 693 376 q 711 358 707 363 q 719 348 715 353 q 723 338 722 343 q 717 332 724 333 q 694 326 706 329 q 669 319 682 322 q 542 292 601 307 q 427 253 482 276 q 322 197 372 231 q 222 115 271 164 q 173 65 197 92 q 136 6 149 39 q 132 -33 129 -14 q 150 -35 138 -35 q 165 -36 157 -36 q 181 -36 174 -36 q 363 -16 272 -36 q 541 41 454 4 q 706 128 628 78 q 851 242 785 179 q 885 253 865 253 q 905 249 896 253 q 911 239 914 244 q 829 140 879 188 q 720 53 779 93 q 598 -17 661 14 q 476 -67 535 -47 q 389 -89 433 -81 q 300 -103 344 -97 q 253 -108 276 -106 q 207 -108 231 -110 q 138 -90 171 -106 q 81 -50 106 -75 q 44 1 57 -28 q 38 61 32 29 z "},"F":{"ha":736,"x_min":-14,"x_max":1133,"o":"m 44 793 q 138 844 86 825 q 245 875 190 864 q 356 890 300 886 q 464 894 413 894 q 576 894 521 896 q 688 889 632 892 q 801 888 746 888 q 914 896 857 889 q 966 906 940 900 q 1013 928 992 913 q 1042 966 1029 942 q 1039 1011 1054 990 q 1033 1019 1036 1014 q 1033 1029 1029 1025 q 1047 1029 1038 1032 q 1072 1018 1061 1026 q 1116 973 1099 1001 q 1126 913 1133 944 q 1098 866 1121 883 q 1045 838 1075 849 q 984 824 1015 828 q 928 817 953 819 q 840 808 883 810 q 751 807 796 807 q 624 809 688 807 q 497 808 561 811 q 535 775 521 800 q 556 728 549 750 q 558 674 563 704 q 547 617 556 644 q 526 564 538 590 q 495 501 511 532 q 463 438 479 469 q 521 419 490 432 q 579 389 551 407 q 628 347 607 371 q 654 293 649 322 q 650 286 656 289 q 625 294 640 286 q 607 306 610 303 q 591 326 597 315 q 575 347 585 338 q 532 372 554 368 q 494 379 513 376 q 457 381 476 382 q 443 381 450 381 q 429 379 436 381 q 338 241 382 322 q 259 85 293 160 q 204 -43 225 10 q 183 -96 183 -96 q 169 -128 179 -108 q 147 -153 160 -147 q 123 -141 135 -158 q 106 -115 111 -124 q 92 -46 89 -85 q 115 53 96 -1 q 160 161 135 107 q 215 265 186 215 q 268 351 244 314 q 253 344 265 350 q 238 336 240 338 q 122 290 175 314 q 103 281 113 286 q 83 274 94 276 q 54 278 72 271 q 19 297 39 282 q -8 325 0 311 q -4 340 -14 338 q 14 351 4 347 q 33 358 24 354 q 159 408 94 386 q 289 439 224 429 q 303 441 296 440 q 318 443 311 442 q 358 506 335 468 q 406 585 382 544 q 447 666 429 626 q 471 732 465 706 q 475 771 475 751 q 474 790 475 783 q 471 800 474 792 q 470 802 471 801 q 469 804 469 803 q 468 807 468 807 q 365 794 421 804 q 256 765 308 785 q 160 715 204 746 q 90 636 115 683 q 85 614 85 625 q 89 592 86 603 q 94 569 92 581 q 93 547 96 558 q 78 550 90 540 q 53 581 67 560 q 26 630 39 601 q 8 688 13 658 q 10 744 3 717 q 44 793 18 772 z "},"G":{"ha":1069,"x_min":-32,"x_max":1071,"o":"m -28 28 q -25 98 -32 64 q -5 165 -18 132 q 25 228 8 197 q 58 289 42 260 q 181 469 106 375 q 344 651 256 564 q 524 813 432 739 q 699 933 617 886 q 751 960 719 946 q 819 989 783 975 q 890 1012 856 1003 q 950 1021 925 1021 q 1017 1001 988 1021 q 1058 946 1046 982 q 1061 858 1071 910 q 1010 739 1051 806 q 934 637 974 682 q 832 564 894 592 q 774 542 807 550 q 758 537 767 539 q 742 535 750 535 q 721 540 731 535 q 707 549 714 543 q 699 563 700 554 q 700 578 697 568 q 758 601 729 585 q 813 637 788 617 q 858 677 839 657 q 888 711 878 697 q 929 793 914 751 q 956 881 944 835 q 956 888 956 883 q 957 894 957 892 q 960 909 960 901 q 961 925 960 917 q 962 929 961 928 q 963 933 963 931 q 736 815 840 893 q 538 651 632 738 q 413 530 475 593 q 295 398 350 467 q 195 255 240 329 q 121 99 150 181 q 108 62 117 88 q 97 11 100 36 q 99 -31 93 -14 q 129 -44 104 -49 q 284 5 208 -29 q 428 83 360 39 q 555 173 497 126 q 656 258 613 219 q 724 323 699 297 q 750 350 749 349 q 696 340 731 354 q 625 305 661 325 q 558 265 589 285 q 515 238 528 246 q 451 218 482 218 q 401 231 419 218 q 389 249 382 244 q 406 260 397 256 q 425 272 415 265 q 551 350 488 317 q 674 406 614 383 q 790 440 735 428 q 892 451 846 451 q 1011 417 975 451 q 1033 389 1024 406 q 1032 354 1043 372 q 1008 344 1024 344 q 968 357 988 344 q 949 393 949 369 q 902 392 921 394 q 864 383 883 389 q 876 356 875 372 q 876 326 876 339 q 871 276 876 299 q 844 192 861 232 q 807 111 826 151 q 770 31 788 71 q 743 -53 753 -8 q 739 -90 739 -72 q 739 -107 739 -99 q 742 -124 739 -115 q 742 -128 742 -126 q 743 -131 743 -129 q 743 -140 744 -135 l 743 -137 q 732 -146 742 -146 q 707 -139 721 -146 q 681 -122 693 -132 q 657 -99 668 -111 q 642 -78 646 -87 q 628 -17 628 -50 q 633 11 629 -3 q 640 39 636 25 q 648 65 643 53 q 658 92 653 78 q 682 143 669 118 q 708 193 694 168 q 722 219 714 203 q 740 252 731 235 q 757 285 749 269 q 769 311 765 301 q 649 183 721 257 q 494 43 576 110 q 324 -71 411 -24 q 157 -118 236 -118 q 94 -108 125 -118 q 37 -78 63 -97 q -6 -33 11 -60 q -28 28 -24 -6 z "},"H":{"ha":1178,"x_min":4,"x_max":1231,"o":"m 24 722 q 76 826 43 775 q 153 917 110 876 q 251 983 197 958 q 364 1008 304 1008 q 521 958 451 1008 q 624 829 590 908 q 653 669 653 757 q 632 487 651 578 q 582 308 613 396 q 732 348 657 332 q 886 371 807 364 q 953 546 917 460 q 1033 715 990 632 q 1061 772 1043 735 q 1100 847 1079 810 q 1141 913 1121 885 q 1175 939 1161 940 q 1188 935 1185 936 q 1217 906 1207 928 q 1229 864 1226 883 q 1211 828 1231 856 q 1158 744 1192 800 q 1081 598 1125 688 q 988 376 1038 508 q 1006 375 999 376 q 1038 369 1025 375 q 1082 346 1063 364 q 1083 345 1083 346 q 1085 344 1083 344 l 1083 344 q 1090 339 1086 343 q 1103 324 1094 335 q 1100 308 1111 313 q 1084 304 1093 304 q 1067 304 1075 304 l 1036 304 q 1006 304 1021 304 q 975 303 990 304 l 960 303 q 934 226 947 265 q 908 143 921 186 q 871 8 888 75 q 839 -129 854 -60 q 832 -168 832 -150 q 819 -178 831 -172 q 793 -185 807 -185 q 778 -181 786 -185 q 768 -168 771 -178 q 760 -133 761 -151 q 763 -97 760 -115 q 804 100 781 3 q 860 293 828 197 q 853 292 856 293 q 806 285 829 289 q 758 276 782 281 q 717 267 738 271 q 675 256 696 263 q 616 240 646 247 q 554 233 586 233 q 549 218 553 225 q 506 117 533 179 q 451 -6 479 54 q 385 -151 419 -75 q 349 -144 361 -154 q 329 -121 336 -133 q 324 -87 324 -107 q 336 -6 324 -54 q 366 94 349 43 q 403 193 383 146 q 436 269 422 240 l 432 274 q 422 283 429 276 q 417 296 414 289 q 431 298 421 301 q 444 293 440 294 l 446 292 q 451 301 449 297 q 456 311 453 306 q 534 477 497 393 q 583 653 571 561 q 585 742 589 692 q 563 837 581 793 q 512 908 546 881 q 424 928 478 936 q 318 888 368 919 q 227 813 268 857 q 157 715 186 768 q 115 611 128 663 q 108 572 111 594 q 106 528 104 550 q 115 487 107 506 q 143 460 122 468 q 168 454 160 454 q 208 466 189 454 q 241 496 226 478 q 266 535 256 514 q 279 572 276 556 q 284 576 279 578 q 295 569 289 574 q 306 558 301 564 q 311 550 311 551 q 337 485 333 522 q 317 421 340 449 q 276 392 301 401 q 225 383 251 383 q 171 392 196 383 q 78 445 115 411 q 23 523 42 479 q 4 618 4 567 q 24 722 4 669 z "},"I":{"ha":706,"x_min":17,"x_max":665,"o":"m 36 739 q 89 842 56 792 q 166 934 122 893 q 263 1000 210 975 q 376 1025 317 1025 q 534 976 464 1025 q 636 846 604 926 q 658 769 651 810 q 665 686 665 729 q 634 457 665 572 q 563 235 603 342 q 519 132 547 194 q 464 8 492 69 q 396 -139 432 -62 q 351 -113 364 -132 q 337 -74 339 -94 q 338 -35 335 -53 q 343 -14 342 -18 q 396 161 364 76 q 468 328 428 246 q 547 495 510 411 q 596 671 583 579 q 598 760 601 710 q 576 855 594 811 q 525 926 558 899 q 436 946 492 953 q 331 906 381 938 q 240 830 281 875 q 170 732 199 785 q 129 628 142 679 q 121 589 125 611 q 118 545 117 567 q 128 505 119 524 q 157 478 136 486 q 182 472 168 472 q 221 484 203 472 q 253 513 239 496 q 278 551 268 531 q 292 589 289 572 q 298 592 293 594 q 308 585 303 590 q 319 575 314 581 q 325 568 324 569 q 349 503 346 540 q 331 438 353 467 q 290 410 315 418 q 240 401 265 401 q 185 410 210 401 q 92 462 129 428 q 35 540 54 496 q 17 635 17 583 q 36 739 17 686 z "},"J":{"ha":875,"x_min":15,"x_max":888,"o":"m 42 82 q 95 133 61 113 q 167 153 129 153 q 211 144 190 153 q 261 94 250 131 q 257 59 265 76 q 231 36 249 42 q 196 42 213 29 q 183 72 179 54 q 141 18 154 53 q 135 -50 128 -17 q 169 -109 143 -83 q 232 -142 196 -135 q 311 -133 272 -149 q 378 -89 350 -117 q 457 28 428 -39 q 513 157 486 94 q 590 358 556 256 q 654 561 624 460 q 687 674 671 618 q 718 788 703 731 l 747 892 q 713 885 746 889 q 638 877 681 881 q 556 870 596 874 q 499 864 515 867 q 403 824 449 854 q 322 751 358 793 q 259 661 285 710 q 221 565 233 613 q 213 527 217 549 q 210 484 210 506 q 219 445 211 463 q 249 419 228 428 q 274 414 265 414 q 313 426 294 414 q 347 454 332 438 q 371 491 361 471 q 383 528 381 511 q 390 531 385 533 q 400 524 394 529 q 410 514 406 519 q 417 507 415 508 q 441 444 438 479 q 422 381 444 408 q 382 353 407 361 q 331 344 357 344 q 276 353 300 344 q 183 404 221 371 q 127 481 146 438 q 108 573 108 524 q 128 674 108 622 q 247 847 167 775 q 319 900 278 878 q 432 942 372 932 q 474 949 444 944 q 540 961 503 954 q 618 976 578 968 q 693 992 658 985 q 752 1007 728 1000 q 781 1018 776 1014 q 795 1022 786 1024 q 811 1019 804 1021 q 846 1008 828 1018 q 875 990 864 1001 q 883 983 879 988 q 886 972 888 978 q 878 944 882 958 q 871 917 874 931 q 842 806 856 861 q 814 696 829 751 q 768 526 794 614 q 709 350 742 438 q 639 178 676 263 q 560 21 601 94 q 430 -133 507 -75 q 240 -192 353 -192 q 160 -181 200 -192 q 89 -144 121 -169 q 46 -99 63 -126 q 22 -40 29 -71 q 20 24 15 -8 q 42 82 25 56 z "},"K":{"ha":1229,"x_min":25,"x_max":1336,"o":"m 44 718 q 97 822 64 771 q 175 913 131 872 q 273 979 219 954 q 385 1004 326 1004 q 542 955 472 1004 q 644 825 613 906 q 674 665 676 751 q 664 540 674 603 q 638 414 654 476 q 842 492 746 440 q 1031 622 951 550 q 1163 761 1110 694 q 1247 879 1217 828 q 1290 947 1278 931 q 1300 940 1292 949 q 1317 917 1308 932 q 1331 883 1326 903 q 1332 840 1336 863 q 1244 645 1311 735 q 1086 489 1178 556 q 888 381 994 422 q 679 328 782 339 q 692 314 686 321 q 706 300 699 307 q 738 251 724 276 q 765 199 751 225 q 801 134 783 167 q 839 69 819 101 q 870 22 854 46 q 906 -25 886 -3 q 913 -33 908 -29 q 919 -42 917 -37 q 954 -75 935 -60 q 996 -106 974 -90 q 1013 -113 1001 -108 q 1036 -124 1025 -118 q 1056 -135 1047 -129 q 1064 -147 1064 -142 q 1049 -156 1063 -156 q 1002 -146 1029 -156 q 968 -133 975 -136 q 866 -75 911 -112 q 783 8 821 -37 q 715 106 746 54 q 656 208 683 158 q 629 254 642 232 q 601 300 617 276 q 587 256 594 278 q 571 214 579 235 q 528 111 556 174 q 474 -12 501 49 q 408 -160 443 -83 q 376 -151 388 -161 q 357 -126 364 -140 q 346 -92 349 -111 q 348 -67 346 -89 q 353 -35 350 -46 q 478 307 393 140 q 494 340 486 324 q 510 376 503 357 q 506 385 507 379 q 514 392 506 390 q 517 392 517 392 q 519 393 518 393 q 572 518 549 456 q 606 649 596 581 q 607 738 611 688 q 585 833 603 789 q 534 904 568 876 q 444 924 500 932 q 339 884 389 915 q 248 808 289 853 q 178 710 207 764 q 138 607 150 657 q 130 568 133 590 q 127 524 126 546 q 136 483 128 501 q 165 456 144 464 q 190 450 182 450 q 230 462 211 450 q 263 492 249 474 q 288 530 278 510 q 300 568 297 550 q 306 572 301 574 q 317 565 311 569 q 327 553 322 560 q 333 546 332 547 q 358 481 354 518 q 339 415 361 444 q 299 388 324 396 q 247 379 274 379 q 193 388 217 379 q 100 441 138 407 q 44 519 63 475 q 25 614 25 563 q 44 718 25 665 z "},"L":{"ha":974,"x_min":6,"x_max":967,"o":"m 6 493 q 7 500 7 494 q 41 570 14 549 q 115 594 68 592 q 154 589 138 594 q 182 579 165 586 q 215 562 199 572 q 243 539 231 551 q 257 514 256 526 q 256 497 260 504 q 242 492 251 488 q 226 497 238 494 q 167 501 197 507 q 126 472 139 497 q 117 435 117 457 q 125 404 117 419 q 191 335 144 360 q 282 307 238 310 q 298 307 290 307 q 313 310 306 307 q 315 313 315 310 q 317 319 317 315 q 318 328 317 324 q 352 488 332 413 q 402 633 372 564 q 474 767 432 703 q 575 894 517 832 q 665 976 618 940 q 779 1015 713 1013 q 782 1017 782 1015 l 799 1017 q 801 1015 801 1015 q 815 1014 811 1015 q 923 960 881 1004 q 965 849 965 915 q 966 847 967 847 q 967 844 965 846 l 967 815 q 965 811 967 813 q 941 698 965 756 q 888 596 917 640 q 792 491 849 544 q 671 392 736 438 q 536 314 606 347 q 401 268 467 281 l 399 268 q 396 264 396 268 l 392 243 q 386 209 389 226 q 381 175 383 192 q 376 142 378 158 q 371 110 374 126 q 367 83 368 96 q 364 56 365 69 q 363 47 363 51 q 361 39 363 43 q 364 38 361 36 q 386 40 375 39 q 408 43 397 42 q 426 45 418 44 q 444 47 435 46 q 463 49 454 49 q 481 51 472 50 q 499 53 490 53 q 515 54 507 53 q 535 56 526 56 q 556 57 544 56 q 589 58 572 57 q 624 56 606 58 q 702 47 661 56 q 781 22 743 39 q 852 -19 819 6 q 907 -75 885 -43 q 924 -111 919 -92 q 924 -114 924 -112 q 925 -118 925 -115 q 919 -128 926 -124 q 906 -128 914 -129 q 896 -121 900 -125 q 871 -92 882 -108 q 823 -36 849 -51 q 754 -14 797 -21 q 715 -11 735 -11 q 675 -12 694 -11 q 425 -51 544 -12 q 188 -142 306 -89 q 185 -147 185 -144 q 176 -157 185 -154 q 172 -158 175 -158 l 163 -158 l 160 -158 q 143 -153 149 -156 q 97 -128 119 -143 q 61 -92 75 -112 q 54 -79 57 -87 q 58 -65 53 -71 q 60 -65 60 -65 q 63 -64 61 -64 q 160 -19 111 -37 q 260 15 208 -1 q 265 17 263 17 q 269 19 267 18 l 274 19 q 278 25 278 21 q 278 32 278 28 q 279 40 279 36 q 283 63 282 51 q 285 85 283 74 q 289 110 288 97 q 292 135 290 122 q 296 158 294 146 q 299 181 297 169 q 303 206 301 193 q 306 231 304 218 l 310 260 q 307 263 310 263 q 292 263 300 263 q 278 264 285 264 q 138 305 207 274 q 33 403 69 336 q 7 481 8 440 q 6 486 7 485 l 6 493 m 408 324 q 411 322 410 322 q 431 326 421 325 q 450 331 440 328 q 569 392 513 350 q 675 488 626 433 q 763 603 724 542 q 828 722 801 664 q 849 778 839 750 q 863 838 858 807 q 865 903 869 872 q 856 938 863 922 q 853 944 854 940 q 850 950 851 947 q 847 951 850 951 q 748 910 804 951 q 640 808 692 868 q 545 685 588 749 q 486 575 503 621 q 408 324 439 449 z "},"M":{"ha":1392,"x_min":10,"x_max":1449,"o":"m 29 739 q 82 842 49 792 q 160 934 115 893 q 258 1000 204 975 q 369 1025 311 1025 q 494 996 440 1025 q 585 919 549 967 q 641 811 622 872 q 660 686 660 750 q 651 585 658 636 q 633 482 644 533 q 687 581 657 526 q 749 686 717 636 q 812 776 781 736 q 869 832 843 817 q 931 853 906 853 q 985 796 975 853 q 956 636 996 739 q 917 528 931 569 q 896 461 903 486 q 888 417 889 432 q 1071 719 982 588 q 1149 828 1108 775 q 1231 921 1190 881 q 1308 983 1271 961 q 1375 1000 1344 1006 q 1422 978 1406 994 q 1443 940 1438 963 q 1446 890 1449 917 q 1436 836 1443 864 q 1375 693 1418 771 q 1238 331 1289 496 q 1201 190 1217 260 q 1183 59 1186 119 q 1192 -46 1179 -1 q 1238 -110 1204 -90 q 1213 -121 1225 -115 q 1185 -127 1200 -124 q 1153 -131 1169 -131 q 1113 -124 1133 -131 q 1077 -101 1093 -118 q 1051 -53 1061 -83 q 1039 25 1040 -22 q 1064 172 1038 83 q 1128 358 1090 260 q 1211 556 1167 456 q 1292 738 1256 656 q 1349 877 1328 821 q 1360 944 1369 933 q 1311 919 1351 956 q 1216 813 1271 882 q 1100 653 1161 744 q 988 466 1039 563 q 905 276 938 369 q 875 110 872 182 q 779 125 817 107 q 749 145 763 132 q 727 178 735 158 q 721 226 719 197 q 735 293 722 254 q 799 453 761 371 q 870 604 838 535 q 922 722 903 674 q 929 779 940 769 q 872 750 910 796 q 785 624 833 704 q 685 442 738 543 q 585 245 633 340 q 500 75 538 150 q 443 -26 463 0 l 431 -51 q 381 -44 397 -60 q 358 -8 364 -29 q 353 32 353 13 q 354 51 354 51 q 401 192 374 124 q 463 328 429 261 q 540 495 503 411 q 590 671 578 579 q 592 760 596 710 q 570 855 588 811 q 519 926 553 899 q 429 946 485 953 q 324 906 374 938 q 233 830 274 875 q 163 732 192 785 q 122 628 135 679 q 115 589 118 611 q 112 545 111 567 q 121 505 113 524 q 150 478 129 486 q 175 472 161 472 q 215 484 196 472 q 248 513 233 496 q 272 551 263 531 q 285 589 282 572 q 291 592 286 594 q 301 585 296 590 q 312 575 307 581 q 318 568 317 569 q 343 503 339 540 q 324 438 347 467 q 284 410 308 418 q 233 401 260 401 q 178 410 203 401 q 85 462 122 428 q 28 540 47 496 q 10 635 10 583 q 29 739 10 686 z "},"N":{"ha":1065,"x_min":8,"x_max":1126,"o":"m 28 725 q 81 828 47 778 q 158 920 114 879 q 255 986 201 961 q 367 1011 308 1011 q 524 961 454 1011 q 628 832 594 911 q 649 760 643 796 q 657 672 654 725 q 654 569 660 632 q 619 428 649 507 q 680 530 646 471 q 752 651 714 589 q 832 774 790 714 q 913 881 874 835 q 989 954 953 928 q 1053 975 1025 981 q 1099 953 1083 969 q 1121 915 1115 938 q 1124 865 1126 892 q 1114 811 1121 839 q 1053 668 1096 746 q 915 306 967 471 q 878 165 894 235 q 859 34 863 94 q 868 -71 856 -26 q 914 -135 881 -115 q 889 -146 901 -140 q 861 -152 876 -149 q 829 -156 846 -156 q 790 -149 810 -156 q 754 -125 769 -143 q 728 -77 739 -107 q 717 1 718 -47 q 741 147 715 60 q 806 333 767 235 q 889 531 844 432 q 969 714 933 631 q 1026 853 1006 797 q 1038 921 1047 910 q 975 886 1025 936 q 854 736 925 836 q 700 495 783 636 q 539 186 617 354 q 487 58 514 121 q 428 -67 460 -4 q 388 -62 406 -71 q 361 -38 371 -54 q 349 -2 351 -22 q 351 38 346 18 q 399 178 371 110 q 460 314 426 247 q 538 481 500 396 q 588 657 575 565 q 589 746 593 696 q 567 840 585 796 q 516 911 550 883 q 426 931 482 939 q 321 892 371 924 q 231 816 271 861 q 161 718 190 771 q 119 614 132 665 q 112 575 115 597 q 109 531 108 553 q 118 490 110 508 q 147 463 126 471 q 172 457 164 457 q 212 469 193 457 q 245 499 231 481 q 269 538 260 517 q 282 575 279 558 q 288 578 283 581 q 299 572 293 576 q 310 561 306 567 q 315 554 315 556 q 341 489 338 526 q 321 424 344 451 q 281 395 306 404 q 229 386 256 386 q 175 394 200 386 q 83 448 119 414 q 27 526 46 482 q 8 621 8 569 q 28 725 8 672 z "},"O":{"ha":1093,"x_min":56,"x_max":1082,"o":"m 56 394 q 110 608 61 506 q 236 792 158 710 q 413 931 314 874 q 619 1007 513 988 q 750 1014 688 1018 q 988 919 903 1007 q 1082 685 1074 832 q 1034 438 1082 564 q 906 198 986 311 q 724 -6 826 85 q 510 -146 621 -97 q 424 -175 469 -164 q 379 -183 401 -181 q 333 -183 357 -186 q 240 -161 283 -181 q 162 -109 196 -142 q 106 -34 128 -76 q 75 57 83 8 q 72 84 72 71 q 72 113 72 97 q 81 165 75 139 q 94 215 86 190 q 96 219 94 218 q 94 228 97 222 q 69 290 78 257 q 58 342 61 317 q 56 394 56 368 m 171 367 l 176 372 q 228 433 199 401 q 291 492 257 465 q 363 536 325 518 q 440 558 401 554 q 457 558 449 558 q 475 556 465 558 q 533 515 507 546 q 538 508 535 514 q 540 503 538 508 q 531 490 540 490 q 522 484 526 488 q 513 478 517 481 q 506 473 510 475 q 499 468 501 471 q 335 342 404 421 q 226 167 267 263 l 222 154 q 222 150 221 153 q 270 120 240 129 q 326 110 300 111 q 385 117 354 108 q 417 128 401 121 q 449 143 433 135 q 468 154 458 149 q 488 165 478 160 q 495 169 492 168 q 503 172 499 171 q 511 175 508 175 q 521 168 518 176 q 522 160 522 165 q 521 144 522 150 q 482 78 517 101 q 454 65 467 68 q 419 57 436 58 q 382 56 401 56 q 360 56 371 56 q 339 58 350 57 q 271 74 308 64 q 208 103 233 83 q 206 104 207 103 q 205 101 206 101 q 204 97 204 100 q 196 43 199 71 q 196 2 194 22 q 203 -39 197 -18 q 257 -96 215 -83 q 282 -101 269 -100 q 307 -100 294 -101 q 331 -96 319 -99 q 354 -90 343 -93 q 569 10 463 -58 q 766 169 676 78 q 918 371 856 261 q 999 596 981 481 q 1003 631 1001 614 q 1006 667 1004 649 q 1005 706 1007 686 q 1000 746 1003 726 q 959 858 989 807 q 864 925 929 910 q 840 928 853 928 q 817 929 828 928 q 711 922 767 931 q 538 861 622 907 q 385 750 454 815 q 263 603 315 685 q 185 436 211 522 q 177 406 181 421 q 171 375 174 390 q 171 367 171 367 z "},"P":{"ha":981,"x_min":11,"x_max":1018,"o":"m 368 996 q 381 999 375 997 q 393 1001 386 1000 q 518 1013 457 1013 q 639 1001 579 1013 q 755 965 699 990 q 860 901 811 940 q 947 808 910 863 q 1001 695 983 757 q 1007 568 1018 633 q 968 474 997 515 q 898 405 939 433 q 808 362 857 376 q 708 347 758 347 q 658 351 688 347 q 597 361 628 354 q 539 378 567 368 q 496 399 511 388 q 395 232 444 315 q 306 58 346 149 q 285 11 299 44 q 258 -58 272 -22 q 231 -122 243 -93 q 215 -158 219 -151 q 206 -167 213 -167 q 191 -156 199 -167 q 176 -132 183 -144 q 161 -96 168 -115 l 161 -94 q 160 -92 161 -93 q 162 -15 153 -60 q 189 79 171 31 q 231 176 207 128 q 276 265 254 225 q 313 332 297 304 q 333 365 329 360 q 384 450 351 393 q 449 569 417 507 q 508 684 482 631 q 538 760 533 738 q 542 800 542 781 q 540 819 542 814 q 540 824 540 822 q 539 828 539 825 l 538 831 q 536 833 536 832 q 535 835 536 833 l 535 838 q 551 840 543 840 q 590 818 572 840 q 619 756 613 792 q 623 678 628 717 q 603 601 618 639 q 569 526 589 563 q 529 457 550 490 q 553 451 540 456 q 574 443 567 446 q 601 438 588 439 q 631 436 615 436 q 723 451 678 436 q 805 493 768 465 q 868 560 842 521 q 903 646 894 599 q 904 660 904 653 q 906 674 904 667 q 878 802 908 751 q 799 882 847 853 q 690 924 750 911 q 576 936 631 936 q 378 913 476 939 q 199 815 279 886 q 142 751 167 788 q 107 669 118 715 q 106 604 99 638 q 124 564 113 571 q 140 558 131 558 q 160 558 150 557 q 206 588 190 565 q 229 642 222 611 q 231 655 231 647 q 239 664 232 663 q 268 656 254 667 q 288 629 282 644 q 289 574 297 604 q 263 529 281 544 q 215 503 244 511 q 163 494 186 494 q 51 541 92 494 q 11 657 11 588 q 44 783 11 726 q 128 882 76 839 q 244 953 181 925 q 368 996 307 982 z "},"Q":{"ha":1078,"x_min":-21,"x_max":1092,"o":"m -19 -168 q 6 -104 -14 -132 q 53 -56 25 -76 q 114 -25 81 -36 q 181 -11 147 -14 q 186 -10 183 -11 q 183 -8 185 -8 q 181 -6 182 -7 q 121 60 146 22 q 89 143 96 99 q 86 210 82 176 q 107 294 92 253 q 108 297 108 296 q 108 303 108 297 q 74 393 82 346 q 69 463 67 429 q 138 672 78 572 q 290 848 199 772 q 491 969 381 924 q 708 1014 601 1014 q 715 1015 713 1014 l 749 1015 q 756 1014 751 1014 q 875 996 817 1014 q 980 943 933 978 q 1056 858 1026 908 q 1092 743 1086 808 l 1092 738 l 1092 672 l 1092 667 q 1091 661 1090 664 q 1090 656 1092 658 q 1087 628 1089 642 q 1082 600 1085 614 q 1011 418 1060 507 q 896 250 963 329 q 749 105 829 171 q 586 -6 669 39 q 527 -33 557 -21 q 465 -54 497 -46 q 461 -56 463 -54 q 464 -57 463 -57 q 469 -58 467 -58 q 475 -60 472 -58 q 547 -69 511 -67 q 619 -71 583 -71 q 649 -69 635 -69 q 678 -67 663 -69 q 703 -63 690 -64 q 728 -60 715 -62 q 749 -55 739 -57 q 771 -51 760 -53 q 788 -50 779 -51 q 806 -50 796 -49 q 817 -51 811 -51 q 828 -51 822 -51 q 850 -57 840 -51 q 863 -63 857 -60 q 875 -72 868 -67 q 881 -79 879 -76 q 881 -89 886 -85 q 865 -107 876 -100 q 849 -115 857 -114 q 819 -124 835 -122 q 791 -128 804 -126 q 763 -131 778 -129 q 713 -135 738 -135 q 607 -129 656 -137 q 446 -94 522 -118 q 402 -82 424 -87 q 358 -71 381 -76 q 349 -69 356 -69 q 272 -56 307 -67 q 258 -53 269 -54 q 243 -53 246 -53 q 183 -56 211 -53 q 124 -72 154 -58 q 55 -117 86 -87 q 17 -189 24 -147 q 14 -194 17 -189 l 8 -194 q 4 -193 7 -193 q -14 -182 -7 -189 q -19 -168 -21 -178 m 188 432 q 239 488 210 460 q 303 540 268 517 q 374 581 338 564 q 447 601 411 597 q 465 602 456 603 q 482 600 474 601 q 499 594 488 599 q 521 584 510 590 q 540 571 532 578 q 549 558 549 564 q 551 551 551 553 q 549 543 554 546 q 543 540 546 540 q 534 534 539 538 q 525 528 529 531 q 519 524 522 525 q 513 521 515 524 q 494 513 503 517 q 476 501 485 508 q 469 497 471 499 q 331 387 392 451 q 235 238 269 322 q 235 232 233 233 q 276 208 251 215 q 325 197 301 200 q 361 197 343 194 q 397 203 379 199 q 461 226 426 210 l 503 247 q 517 254 510 251 q 526 256 519 256 q 533 250 532 256 q 534 247 533 249 q 535 243 535 246 q 533 221 535 229 q 515 185 526 196 q 482 161 503 174 q 418 147 453 150 q 353 150 389 146 q 285 163 321 153 q 221 190 250 172 q 218 189 218 190 q 217 183 217 188 q 208 119 208 153 q 219 51 208 83 q 272 10 231 19 q 298 6 285 7 q 324 7 311 6 q 554 91 435 28 q 774 247 674 154 q 941 453 874 339 q 1017 688 1008 567 q 1017 726 1018 707 q 1014 765 1017 746 q 958 888 1000 840 q 836 936 915 936 q 789 937 813 938 q 742 933 765 936 q 571 884 654 921 q 416 791 488 847 q 289 662 344 735 q 203 506 233 589 q 183 439 189 471 q 182 428 183 432 q 188 432 183 428 z "},"R":{"ha":1031,"x_min":10,"x_max":1017,"o":"m 11 675 q 47 802 13 746 q 133 899 81 858 q 251 967 186 940 q 376 1007 315 993 q 442 1016 410 1013 q 508 1019 474 1019 q 633 1007 571 1019 q 754 968 696 994 q 863 900 813 942 q 951 799 914 858 q 1001 683 985 746 q 1004 554 1017 621 q 954 448 990 490 q 869 380 918 406 q 760 344 819 354 q 643 333 701 333 q 619 334 635 333 q 585 338 603 335 q 553 345 568 340 q 532 358 539 350 q 626 204 588 289 q 662 137 635 186 q 735 29 689 88 q 845 -85 781 -29 q 994 -171 910 -140 q 962 -174 985 -168 q 932 -181 939 -179 q 838 -178 888 -186 q 754 -142 790 -168 q 690 -82 718 -117 q 639 -6 661 -47 q 599 78 617 36 q 581 122 589 100 q 563 165 572 143 q 554 186 558 176 q 544 207 550 196 q 540 219 542 214 q 535 229 538 224 q 532 235 535 232 q 531 239 532 236 q 529 243 529 242 q 528 245 528 244 q 526 247 528 246 q 519 263 524 254 q 511 281 515 271 l 490 318 q 468 354 481 335 q 382 208 424 281 q 306 56 340 135 q 278 -8 290 24 q 258 -72 265 -39 q 253 -114 253 -99 q 256 -137 254 -129 q 260 -150 258 -146 q 256 -158 261 -154 q 239 -164 249 -164 q 214 -153 226 -164 q 192 -126 201 -142 q 176 -93 182 -110 q 169 -64 169 -76 q 178 34 167 -12 q 210 126 190 81 q 267 249 236 189 q 333 367 299 308 q 346 386 342 378 q 301 415 321 397 q 283 439 290 425 q 283 468 276 453 q 307 487 292 482 q 338 490 322 492 q 367 485 353 489 q 396 474 382 481 q 442 558 418 514 q 485 643 465 603 q 520 716 506 683 q 538 764 535 749 q 542 806 542 785 q 540 825 542 818 q 540 829 540 828 q 539 833 539 831 l 538 836 l 538 839 l 536 840 q 535 843 535 842 q 549 846 540 846 q 565 840 556 844 q 590 822 575 836 q 611 793 606 810 q 621 760 617 776 q 622 671 631 715 q 596 583 614 626 q 553 499 578 539 q 508 422 529 458 q 508 420 508 421 q 507 418 507 419 q 532 419 515 419 q 680 436 603 422 q 814 494 757 450 q 869 557 846 521 q 901 636 892 593 l 906 665 q 881 794 911 743 q 803 878 851 846 q 697 924 756 910 q 583 940 638 938 q 385 922 483 946 q 204 831 286 897 q 145 767 171 803 q 107 686 119 731 q 103 620 97 654 q 121 578 110 586 q 157 572 135 568 q 204 601 186 576 q 228 653 222 626 q 231 667 229 660 q 239 675 232 674 q 268 666 254 678 q 288 639 282 654 q 286 583 294 613 q 258 539 278 554 q 213 515 242 522 q 164 508 188 508 q 109 517 136 508 q 63 544 82 525 q 22 603 35 568 q 11 675 10 638 z "},"S":{"ha":894,"x_min":7,"x_max":974,"o":"m 151 79 q 165 67 154 76 q 167 57 176 58 q 128 40 144 54 q 104 8 113 25 q 97 -24 96 -8 q 113 -47 99 -40 q 172 -57 133 -57 q 254 -48 208 -57 q 347 -25 300 -39 q 435 8 393 -11 q 507 44 478 26 q 558 85 529 58 q 609 144 586 111 q 644 213 632 176 q 644 282 656 249 q 603 331 633 314 q 547 360 572 347 q 466 393 507 379 q 386 423 425 407 q 313 463 347 439 q 249 526 278 486 q 222 582 228 556 q 222 633 215 608 q 244 679 228 657 q 282 722 260 701 q 388 813 324 763 q 526 906 453 863 q 674 980 599 950 q 811 1010 749 1010 q 874 1001 842 1010 q 929 971 906 992 q 960 929 947 954 q 974 876 974 904 q 953 783 974 833 q 901 685 933 732 q 830 598 869 638 q 750 539 790 558 q 665 510 708 518 q 650 511 657 507 q 636 521 643 515 l 633 524 q 631 526 631 524 q 626 529 628 528 q 622 532 625 531 q 656 546 639 538 q 686 564 672 554 q 717 586 701 574 q 810 701 772 633 q 864 842 847 768 q 869 874 864 857 q 871 887 871 881 q 872 900 871 893 q 853 919 874 919 q 821 913 838 919 q 740 875 783 896 q 653 831 697 854 q 569 783 610 808 q 497 733 529 758 q 453 697 485 724 q 392 635 421 669 q 348 563 363 600 q 356 496 333 526 q 405 468 371 476 q 458 456 439 460 q 583 421 521 443 q 696 358 644 399 q 769 245 753 314 q 744 110 785 176 q 674 23 718 65 q 577 -56 629 -19 q 470 -119 525 -92 q 367 -160 415 -146 q 267 -177 318 -174 q 165 -175 217 -181 q 84 -150 126 -172 q 21 -92 42 -128 q 9 -37 7 -68 q 24 23 11 -6 q 61 71 38 51 q 113 90 85 90 q 151 79 129 90 z "},"T":{"ha":1000,"x_min":-12,"x_max":1215,"o":"m 25 654 q 124 720 68 693 q 240 765 179 747 q 362 792 300 782 q 479 808 424 803 q 603 819 542 815 q 728 826 665 822 q 810 833 760 829 q 913 846 860 838 q 1012 868 965 854 q 1085 903 1058 882 q 1113 947 1101 919 q 1104 996 1124 975 q 1097 1003 1101 999 q 1097 1014 1093 1008 q 1104 1017 1100 1017 q 1111 1017 1108 1017 q 1142 1007 1124 1015 q 1194 963 1172 992 q 1211 899 1215 933 q 1192 853 1208 874 q 1155 819 1176 833 q 1108 794 1133 804 q 1063 781 1083 785 q 935 760 996 767 q 807 746 875 753 q 698 737 753 740 q 588 726 643 733 q 621 672 610 704 q 631 588 635 632 q 612 501 626 544 q 578 417 597 458 q 540 340 558 376 q 451 158 496 249 q 372 -28 406 68 q 348 -99 360 -64 q 335 -172 336 -135 q 334 -193 333 -183 q 336 -214 335 -203 q 325 -236 336 -229 q 307 -240 315 -240 q 279 -231 292 -240 q 258 -210 267 -222 q 240 -167 246 -190 q 236 -121 235 -144 q 251 -31 236 -83 q 287 78 265 22 q 332 185 308 133 q 372 271 356 236 q 415 356 388 299 q 468 476 442 414 q 515 593 494 539 q 538 669 536 647 q 538 708 540 689 q 536 721 538 717 q 525 719 529 721 l 493 715 q 381 691 442 707 q 263 648 319 675 q 160 582 206 621 q 92 489 114 543 q 89 465 86 476 q 96 442 92 454 q 103 419 100 431 q 104 394 107 407 q 88 397 103 388 q 56 426 74 406 q 21 476 39 447 q -5 536 3 504 q -8 599 -12 568 q 25 654 -3 629 z "},"U":{"ha":1168,"x_min":0,"x_max":1254,"o":"m 19 722 q 72 826 39 775 q 150 917 106 876 q 248 983 194 958 q 360 1008 301 1008 q 485 979 431 1008 q 576 903 539 950 q 631 794 613 856 q 650 669 650 733 q 617 440 649 554 q 546 218 586 325 q 513 124 526 167 q 485 19 499 82 l 486 19 q 474 -56 475 -24 q 476 -106 471 -83 q 506 -125 482 -128 q 598 -74 549 -119 q 699 43 647 -28 q 803 201 751 114 q 903 378 856 289 q 989 551 950 468 q 1054 697 1028 635 q 1100 788 1078 753 q 1143 842 1122 822 q 1181 868 1164 861 q 1213 875 1199 875 q 1243 868 1232 875 q 1254 861 1250 865 q 1106 565 1171 729 q 1000 230 1049 424 q 946 -200 951 36 q 888 -168 913 -187 q 851 -124 867 -151 q 839 -57 835 -97 q 853 37 844 -17 q 872 139 863 90 q 896 254 883 194 q 749 28 822 126 q 683 -56 718 -15 q 614 -129 649 -97 q 546 -181 579 -161 q 482 -200 513 -200 q 440 -187 460 -200 q 376 -124 397 -160 q 349 -51 356 -87 q 347 19 343 -14 q 357 72 351 51 l 356 72 q 399 194 375 135 q 453 311 424 253 q 531 477 493 393 q 581 653 568 561 q 582 742 586 692 q 560 837 578 793 q 509 908 543 881 q 419 928 475 936 q 314 888 364 919 q 223 813 264 857 q 153 715 182 768 q 113 611 125 663 q 105 572 108 594 q 102 528 101 550 q 111 487 103 506 q 140 460 119 468 q 165 454 157 454 q 205 466 186 454 q 238 496 224 478 q 263 535 253 514 q 275 572 272 556 q 281 576 276 578 q 292 569 286 574 q 302 558 297 564 q 308 550 307 551 q 333 485 329 522 q 314 421 338 449 q 274 392 299 401 q 221 383 249 383 q 168 392 192 383 q 75 445 113 411 q 19 523 38 479 q 0 618 0 567 q 19 722 0 669 z "},"V":{"ha":1218,"x_min":7,"x_max":1206,"o":"m 26 722 q 79 826 46 775 q 157 919 113 878 q 255 985 201 960 q 367 1010 308 1010 q 492 981 438 1010 q 583 903 546 951 q 638 795 619 856 q 657 671 657 735 q 647 566 657 614 q 622 467 636 518 q 588 358 607 417 q 553 219 569 299 q 542 158 549 197 q 529 75 535 119 q 519 -16 524 31 q 516 -101 515 -62 q 524 -167 517 -140 q 544 -199 531 -194 q 610 -184 568 -206 q 699 -122 651 -162 q 795 -28 747 -82 q 879 83 843 26 q 1049 447 989 260 q 1114 844 1110 633 q 1182 786 1158 829 q 1204 681 1203 750 q 1161 490 1206 611 q 1106 365 1142 440 q 1021 208 1069 290 q 913 44 972 125 q 790 -103 854 -37 q 656 -209 725 -168 q 518 -249 586 -250 q 465 -239 496 -249 q 414 -192 435 -229 q 388 -83 393 -156 q 411 118 383 -10 q 447 235 421 163 q 503 385 474 307 q 557 535 532 463 q 588 654 582 608 q 589 744 593 693 q 567 838 585 794 q 516 910 550 882 q 426 929 482 938 q 321 890 371 921 q 230 813 271 858 q 160 715 189 768 q 119 611 132 663 q 112 572 115 594 q 109 528 108 550 q 118 488 110 507 q 147 461 126 469 q 172 456 164 456 q 212 467 193 456 q 245 497 231 479 q 269 535 260 514 q 282 572 279 556 q 288 577 283 579 q 299 569 293 575 q 309 558 304 564 q 315 551 314 553 q 340 487 336 524 q 321 421 344 450 q 281 393 306 401 q 229 385 256 385 q 175 393 199 385 q 82 447 119 413 q 26 524 44 481 q 7 619 7 568 q 26 722 7 669 z "},"W":{"ha":1540,"x_min":35,"x_max":1536,"o":"m 54 729 q 107 833 74 782 q 184 924 140 883 q 281 990 228 965 q 394 1015 335 1015 q 552 966 482 1015 q 654 836 622 917 q 676 760 669 800 q 683 676 683 719 q 672 562 683 619 q 646 448 661 504 q 613 335 631 392 q 581 225 594 279 q 564 149 572 193 q 550 57 556 104 q 543 -35 544 10 q 545 -115 542 -81 q 558 -169 549 -150 q 588 -185 568 -189 q 670 -134 629 -175 q 747 -40 711 -93 q 808 67 782 14 q 847 156 835 121 q 886 286 869 219 q 911 419 903 353 q 953 567 924 504 q 982 619 965 594 q 1020 660 999 643 q 1070 685 1042 678 q 1133 686 1099 693 q 1022 360 1067 511 q 988 229 1004 296 q 963 103 971 163 q 955 -4 954 44 q 969 -81 956 -53 q 993 -97 978 -97 q 1073 -37 1024 -97 q 1175 117 1122 22 q 1276 333 1228 213 q 1354 574 1325 453 q 1386 805 1383 694 q 1349 990 1389 915 q 1372 1003 1360 997 q 1398 1012 1383 1008 q 1428 1015 1413 1015 q 1486 993 1457 1015 q 1529 901 1515 971 q 1534 825 1536 864 q 1526 749 1532 786 q 1480 532 1514 653 q 1393 292 1446 411 q 1271 71 1340 174 q 1118 -94 1201 -32 q 1058 -135 1090 -115 q 989 -158 1025 -156 q 925 -140 951 -162 q 888 -85 899 -118 q 874 -25 878 -57 q 869 36 869 7 q 817 -53 853 -4 q 735 -146 781 -103 q 638 -219 689 -189 q 542 -249 588 -249 q 469 -216 499 -249 q 427 -129 440 -183 q 416 -5 414 -75 q 436 140 418 65 q 478 275 451 203 q 533 417 506 347 q 585 551 561 488 q 614 660 608 614 q 616 749 619 699 q 594 844 613 800 q 543 915 576 888 q 454 935 510 943 q 349 895 399 926 q 258 819 299 864 q 188 722 217 775 q 147 618 160 669 q 139 579 143 601 q 136 535 135 557 q 146 494 138 513 q 175 467 154 475 q 199 461 192 461 q 238 473 219 461 q 272 503 257 485 q 297 542 286 521 q 310 579 307 563 q 316 583 311 585 q 326 576 321 581 q 337 565 332 571 q 343 557 342 558 q 367 492 364 529 q 349 428 371 456 q 307 399 332 408 q 256 390 282 390 q 203 399 226 390 q 110 452 147 418 q 53 530 72 486 q 35 625 35 574 q 54 729 35 676 z "},"X":{"ha":1043,"x_min":18,"x_max":1110,"o":"m 185 399 q 92 452 129 418 q 37 530 56 486 q 18 625 18 574 q 38 729 18 676 q 90 833 57 782 q 166 925 122 885 q 263 990 210 965 q 375 1015 315 1015 q 491 994 435 1015 q 592 933 547 972 q 644 866 628 901 q 671 786 660 831 q 699 647 689 717 q 719 507 710 578 q 830 595 776 547 q 928 696 883 643 q 936 706 931 700 q 983 758 960 732 q 1021 817 1006 785 q 1032 847 1028 831 q 1035 878 1036 863 q 1023 916 1032 896 q 994 940 1014 936 l 974 940 l 969 940 q 961 942 964 940 q 960 949 958 944 q 964 951 960 951 q 989 956 976 956 q 1049 933 1021 956 q 1090 882 1076 910 q 1100 796 1110 840 q 1072 711 1090 751 q 1054 676 1064 690 q 1042 661 1047 669 q 1031 646 1038 653 q 893 505 968 568 q 739 383 818 442 q 740 378 740 381 q 742 372 740 375 q 776 210 757 292 q 835 54 794 129 l 835 53 q 840 43 836 51 q 864 8 851 28 q 871 0 868 4 q 884 -15 878 -7 q 897 -31 890 -24 q 908 -43 903 -37 q 919 -56 914 -49 q 934 -69 926 -62 q 944 -85 942 -76 q 944 -89 944 -86 q 940 -92 944 -92 q 914 -84 928 -92 q 889 -68 900 -76 q 797 10 842 -42 q 728 111 753 63 q 685 213 700 160 q 661 321 671 267 q 640 304 650 313 q 621 286 631 296 q 528 197 575 247 q 441 90 481 147 q 375 -28 401 33 q 347 -153 349 -90 q 346 -167 346 -160 q 343 -182 346 -175 q 326 -204 338 -204 q 302 -182 314 -204 q 288 -147 290 -160 q 285 -41 278 -96 q 312 66 292 14 q 360 166 332 118 q 422 253 389 214 q 528 356 465 304 q 644 449 592 407 q 634 531 639 490 q 619 614 629 572 q 605 713 611 654 q 583 823 599 771 q 533 909 567 875 q 438 935 500 943 q 332 895 382 926 q 241 819 282 864 q 172 722 200 775 q 131 618 143 668 q 122 579 126 601 q 119 535 118 557 q 128 494 121 513 q 157 467 136 475 q 182 461 174 461 q 222 473 203 461 q 255 503 240 485 q 280 541 269 521 q 293 579 290 561 q 299 583 294 585 q 310 576 304 581 q 320 565 315 571 q 326 557 325 558 q 351 492 347 529 q 331 426 354 456 q 291 399 315 407 q 239 390 267 390 q 185 399 210 390 z "},"Y":{"ha":1161,"x_min":25,"x_max":1488,"o":"m 44 726 q 97 831 64 779 q 173 922 129 882 q 270 988 217 963 q 383 1013 324 1013 q 465 1001 425 1013 q 542 971 506 990 q 609 923 579 951 q 657 858 639 894 q 700 684 699 779 q 676 506 701 589 q 658 438 665 468 q 652 388 653 411 q 663 361 651 365 q 710 368 683 354 q 763 404 736 382 q 814 451 790 426 q 851 493 838 476 q 987 675 924 576 q 1099 861 1050 774 q 1122 908 1107 882 q 1160 958 1138 935 q 1216 998 1183 982 q 1292 1013 1249 1014 q 1389 997 1351 1011 q 1449 965 1426 982 q 1488 919 1475 944 q 1350 896 1417 921 q 1232 821 1293 874 q 1128 663 1171 768 q 1073 508 1099 593 q 1020 333 1047 422 q 962 160 993 244 q 892 6 931 75 q 806 -108 854 -62 q 696 -165 758 -154 q 647 -169 669 -169 q 547 -131 576 -169 q 517 -44 517 -92 q 540 48 517 4 q 596 100 563 92 q 585 49 586 71 q 592 13 583 29 q 628 -3 600 -3 q 728 31 663 -3 q 852 146 800 68 q 943 319 904 224 q 1009 518 982 415 q 1058 708 1036 621 q 988 599 1035 667 q 883 464 940 531 q 765 346 826 397 q 654 283 704 294 q 573 305 599 272 q 543 381 547 338 l 542 379 l 542 390 q 551 458 540 425 q 580 552 563 507 q 604 657 597 597 q 606 747 610 696 q 585 841 603 797 q 533 913 567 885 q 444 932 500 940 q 339 892 389 924 q 248 817 289 861 q 178 719 207 772 q 138 615 150 665 q 130 576 133 599 q 127 532 126 554 q 136 491 128 510 q 165 464 144 472 q 190 458 182 458 q 230 470 211 458 q 263 500 249 482 q 288 538 278 518 q 300 576 297 558 q 306 580 301 582 q 317 573 311 578 q 327 562 322 568 q 333 554 332 556 q 358 490 354 526 q 339 424 361 453 q 299 396 324 404 q 247 388 274 388 q 193 396 217 388 q 100 449 138 415 q 44 527 63 483 q 25 622 25 571 q 44 726 25 674 z "},"Z":{"ha":829,"x_min":-29,"x_max":1035,"o":"m -25 110 q -3 182 -21 149 q 39 240 15 215 q 201 392 114 325 q 376 517 288 460 q 548 620 464 574 q 702 710 632 667 q 821 792 772 753 q 888 875 869 832 q 781 828 839 851 q 663 785 724 804 q 541 753 601 765 q 425 740 481 740 q 306 765 351 740 q 265 794 285 778 q 231 832 244 810 q 214 884 218 854 q 218 953 210 914 q 226 982 221 964 q 244 1025 232 1000 q 276 944 244 975 q 357 895 308 913 q 465 871 406 878 q 579 864 525 864 q 648 866 617 864 q 708 873 679 868 q 767 886 738 878 q 831 908 796 894 q 885 938 863 924 q 933 976 908 951 q 948 983 940 985 q 963 976 956 981 q 983 958 974 969 q 1001 933 993 947 q 1029 874 1021 907 q 1033 852 1031 867 q 1028 831 1035 838 q 1011 813 1021 821 q 993 797 1001 804 q 983 790 988 792 q 869 695 929 733 q 744 625 808 657 q 610 560 679 593 q 469 481 540 528 q 322 367 397 435 q 169 200 247 300 q 213 211 190 207 q 263 215 236 215 q 383 187 317 215 q 532 75 450 158 q 599 30 564 43 q 666 14 635 17 q 720 13 697 11 q 750 14 743 15 q 741 -3 750 13 q 715 -35 732 -18 q 672 -67 697 -53 q 611 -82 646 -82 q 528 -59 567 -82 q 463 -1 489 -36 q 356 94 418 60 q 226 132 293 128 q 169 126 199 133 q 111 94 139 118 q 80 63 94 82 q 56 19 65 44 l 53 14 q 50 -11 50 0 q 55 -29 50 -21 q 71 -39 60 -37 q 75 -40 75 -40 q 50 -53 67 -53 q 22 -44 38 -53 q -5 -15 7 -35 q -23 35 -17 4 q -25 110 -29 67 z "},"b":{"ha":539,"x_min":-53,"x_max":482,"o":"m 235 918 q 253 929 235 919 q 299 954 272 939 q 355 988 325 969 q 407 1025 385 1007 q 397 997 411 1028 q 365 926 383 967 q 327 844 346 885 q 301 789 308 804 q 251 677 283 753 q 183 511 219 601 q 111 327 146 421 q 53 161 76 233 q 153 342 99 253 q 275 508 207 432 q 301 537 288 522 q 331 562 315 551 q 363 577 346 572 q 399 575 379 582 q 458 531 440 563 q 479 461 476 500 q 478 399 482 431 q 468 342 475 368 q 425 215 454 279 q 351 100 396 150 q 247 22 307 50 q 114 4 188 -7 q 80 19 94 7 q 54 47 65 32 q 48 33 51 40 q 40 19 44 26 q 24 -12 32 4 q 6 -43 15 -28 q -3 -41 3 -49 q -11 -31 -10 -33 q -18 -16 -15 -24 q -18 -1 -21 -8 q -15 7 -17 3 q -12 14 -14 11 q -33 31 -24 19 q -50 67 -43 43 q -34 142 -53 78 q 15 298 -15 207 q 81 493 44 389 q 149 688 117 597 q 206 844 182 779 q 235 918 231 908 m 83 101 q 106 97 92 100 q 195 104 153 89 q 272 149 238 119 q 333 217 307 178 q 376 296 360 257 q 417 446 406 368 q 417 508 421 481 q 389 540 413 535 q 356 526 378 543 q 308 481 333 508 q 257 417 283 453 q 211 347 231 382 q 164 268 188 307 q 119 189 140 229 q 112 172 118 186 q 99 143 106 158 q 87 115 92 128 q 83 101 82 101 z "},"c":{"ha":458,"x_min":-17,"x_max":474,"o":"m 39 356 q 50 378 42 364 q 92 440 67 407 q 151 502 118 474 q 219 549 183 531 q 293 567 256 567 q 353 563 322 569 q 408 538 385 557 q 446 481 438 515 q 445 413 454 446 q 411 356 436 379 q 349 331 386 332 q 333 340 342 331 q 318 360 325 349 q 308 382 311 372 q 308 392 304 392 q 360 408 339 392 q 399 449 381 424 q 413 478 406 460 q 399 500 419 496 q 343 494 372 507 q 293 468 314 482 q 228 410 257 444 q 179 339 200 376 q 149 268 165 313 q 131 183 133 224 q 149 113 129 142 q 228 89 169 85 q 322 124 278 93 q 400 189 367 154 q 453 252 433 224 q 474 281 472 281 l 464 261 q 423 186 450 232 q 355 98 396 140 q 258 26 314 56 q 129 0 203 -4 q 44 38 82 3 q -6 122 6 72 q -1 242 -17 181 q 39 356 14 303 z "},"d":{"ha":696,"x_min":-57,"x_max":800,"o":"m 3 314 q 60 422 26 371 q 135 515 93 474 q 222 588 174 556 q 328 617 271 619 q 415 592 372 615 q 469 522 458 569 q 515 653 492 588 q 560 776 539 718 q 599 881 581 835 q 629 951 617 926 q 647 956 629 953 q 692 965 665 958 q 747 983 718 971 q 799 1013 776 994 q 781 977 800 1014 q 730 878 761 940 q 661 736 699 817 q 588 571 624 656 q 525 403 553 486 q 487 255 497 321 q 488 144 476 189 q 542 93 499 100 q 583 106 563 90 q 618 138 603 122 q 669 205 647 169 q 713 276 690 240 q 710 263 721 289 q 674 195 699 238 q 615 106 650 153 q 539 29 579 58 q 503 12 524 18 q 458 6 482 6 q 406 15 431 6 q 368 49 381 25 q 355 117 351 79 q 365 189 358 156 q 404 324 375 231 q 384 303 394 313 q 365 283 374 293 q 351 263 358 274 q 335 243 343 253 q 290 185 317 217 q 234 124 264 154 q 173 69 204 94 q 113 26 142 43 q 76 6 96 15 q 38 0 57 -3 l 35 1 q -13 24 7 4 q -40 69 -33 44 q -39 194 -57 131 q 3 314 -21 258 m 36 26 q 90 48 56 21 q 159 113 124 75 q 224 189 194 151 q 267 243 254 226 q 295 284 282 263 q 319 329 308 306 q 335 363 326 346 q 354 396 344 379 q 356 411 354 406 q 350 453 356 431 q 318 475 344 475 q 290 465 306 475 q 208 399 256 444 q 119 297 161 353 q 46 183 76 242 q 14 79 15 125 q 17 49 13 67 q 36 26 21 31 z "},"e":{"ha":438,"x_min":-21,"x_max":469,"o":"m 38 357 q 78 431 53 392 q 138 504 104 471 q 210 559 171 538 q 292 581 249 581 q 363 556 333 581 q 392 510 383 538 q 400 454 400 483 q 392 396 400 425 q 374 343 385 367 q 320 258 349 290 q 264 206 292 225 q 209 181 236 188 q 161 174 182 174 q 110 185 121 174 q 108 168 110 185 q 111 130 107 151 q 127 89 115 108 q 164 63 139 69 q 168 62 167 63 q 171 61 169 61 q 275 85 224 54 q 367 159 326 117 q 435 241 408 201 q 467 289 463 281 q 453 244 469 269 q 426 199 438 218 q 374 128 403 164 q 311 65 346 93 q 237 18 276 36 q 151 0 197 0 q 59 27 103 0 q 0 103 15 54 q -5 232 -21 165 q 38 357 11 299 m 121 222 q 135 217 125 218 q 158 215 146 215 q 189 217 174 215 q 211 222 204 219 q 276 273 249 239 q 319 346 304 307 q 338 422 335 385 q 328 483 340 460 q 314 490 325 490 q 294 485 304 490 q 276 475 283 479 q 223 417 253 457 q 168 336 193 378 q 129 261 143 294 q 121 222 115 228 z "},"f":{"ha":343,"x_min":-260,"x_max":365,"o":"m -203 -168 q -178 -113 -196 -151 q -137 -26 -160 -75 q -87 79 -114 24 q -35 187 -60 135 q 11 283 -10 239 q 43 354 32 328 q 69 415 57 385 q 97 475 82 444 q 113 512 104 490 q 133 552 121 533 q 160 583 144 571 q 199 594 176 596 q 210 583 206 594 q 217 567 215 572 q 210 549 217 551 q 193 539 204 547 q 161 494 181 529 q 123 419 142 460 q 89 340 104 379 q 68 283 74 301 q 52 241 64 271 q 28 180 40 211 q 6 124 15 149 q -3 97 -4 100 q 35 82 6 82 q 103 95 63 82 q 190 133 144 108 q 282 193 236 158 q 364 271 328 228 q 360 263 365 272 q 349 242 356 254 q 335 218 342 229 q 326 206 329 207 q 213 124 265 154 q 122 76 161 93 q 61 54 83 60 q 39 49 39 49 q 49 31 44 42 q 93 -159 97 -60 q 26 -342 89 -258 q -45 -419 -6 -383 q -139 -461 -85 -454 q -210 -447 -176 -464 q -253 -392 -243 -429 q -257 -334 -260 -362 q -245 -277 -254 -306 q -224 -221 -236 -249 q -203 -168 -212 -193 m -100 -369 q -74 -364 -93 -374 q -33 -333 -56 -354 q 10 -280 -11 -311 q 45 -208 32 -249 q 58 -117 58 -167 q 38 -11 58 -67 q 6 38 28 17 q 8 35 6 38 q 4 38 6 38 q -3 44 1 40 q -10 50 -7 47 q -17 56 -12 51 q -65 -83 -42 -12 q -103 -215 -89 -154 q -119 -317 -118 -275 q -100 -369 -121 -360 z "},"g":{"ha":563,"x_min":-92,"x_max":511,"o":"m -83 -207 q -75 -208 -82 -203 q -56 -221 -68 -212 q -25 -236 -43 -229 q 17 -243 -7 -243 q 90 -222 49 -243 q 180 -138 131 -200 q 285 33 229 -76 q 403 319 340 143 q 398 314 400 317 q 393 308 396 311 q 378 285 386 297 q 363 263 371 274 q 347 240 356 251 q 332 218 339 229 q 244 112 292 165 q 140 21 197 58 q 105 -1 124 8 q 65 -8 86 -11 l 63 -8 q 15 18 36 -4 q -12 69 -6 40 q -19 138 -21 103 q -11 208 -18 174 q 8 277 -4 243 q 31 342 19 311 q 31 343 31 343 q 32 344 32 343 q 88 464 56 407 q 163 569 121 521 q 204 613 182 592 q 251 649 226 633 q 301 674 275 664 q 356 682 328 683 q 401 674 378 681 q 444 653 425 667 q 478 620 464 640 q 499 572 493 600 q 500 521 503 547 q 490 471 497 494 q 504 486 499 482 q 510 486 510 490 q 503 449 511 469 q 490 411 496 428 q 415 147 456 278 q 331 -114 375 17 q 303 -186 318 -147 q 267 -260 288 -225 q 220 -326 247 -296 q 158 -372 193 -356 q 128 -381 147 -378 q 88 -385 110 -385 q 23 -376 57 -385 q -37 -347 -11 -368 q -78 -292 -64 -326 q -83 -207 -92 -258 m 64 21 q 117 46 83 15 q 187 119 151 76 q 252 203 222 161 q 294 263 282 244 q 323 310 310 286 q 347 360 336 333 q 364 397 356 379 q 382 435 372 415 l 382 482 q 374 508 383 493 q 346 524 364 524 q 318 513 331 524 q 235 435 282 488 q 145 321 188 383 q 73 194 103 258 q 42 81 43 131 q 44 45 40 65 q 64 21 49 25 z "},"h":{"ha":607,"x_min":-50,"x_max":644,"o":"m 238 915 q 256 926 238 917 q 301 951 275 936 q 358 985 328 967 q 410 1022 388 1004 q 400 994 414 1025 q 367 924 386 964 q 330 843 349 883 q 304 788 311 803 q 252 671 286 750 q 181 497 218 592 q 107 307 143 403 q 50 140 71 211 q 135 259 86 201 q 241 370 185 317 q 358 472 297 424 q 475 563 418 521 q 490 554 482 568 q 500 536 497 540 q 507 478 514 506 q 490 421 500 451 q 449 298 468 361 q 424 172 431 235 q 421 129 421 156 q 440 93 421 103 q 463 88 450 88 q 515 111 488 88 q 567 165 543 135 q 610 226 592 196 q 636 271 628 257 q 633 258 644 283 q 598 190 622 232 q 539 100 574 147 q 464 24 504 53 q 388 0 429 0 q 326 17 354 0 q 288 71 297 35 q 284 128 281 99 q 297 185 288 157 q 317 240 306 213 q 339 293 329 268 q 359 338 346 308 q 390 407 372 367 q 378 397 382 401 q 205 243 290 328 q 63 60 119 158 q 54 46 58 53 q 44 32 50 39 q 35 17 39 21 q 32 13 33 14 q 29 10 31 13 l 29 7 q -13 13 10 6 q -47 64 -36 21 q -40 112 -50 72 q -10 210 -29 151 q 33 342 8 269 q 83 491 57 415 q 136 640 110 567 q 183 771 163 713 q 219 868 204 829 q 238 915 233 907 z "},"i":{"ha":307,"x_min":-40,"x_max":336,"o":"m 19 303 q 38 344 25 317 q 67 406 50 371 q 103 483 83 442 q 144 568 124 525 q 160 558 150 565 q 180 541 171 551 q 194 517 189 531 q 194 489 200 504 q 193 483 193 488 q 149 353 169 418 q 117 233 128 288 q 106 142 106 179 q 125 96 107 106 q 147 90 135 90 q 203 115 175 90 q 257 171 232 139 q 301 234 282 203 q 328 279 319 265 q 325 266 336 293 q 288 196 314 239 q 226 104 263 153 q 149 25 190 56 q 69 0 115 0 q 6 18 35 0 q -33 72 -24 36 q -37 131 -40 101 q -24 190 -33 161 q -3 248 -15 219 q 19 303 10 276 m 151 626 q 154 636 151 635 q 163 649 156 644 q 168 651 165 650 q 174 654 171 653 q 193 656 181 658 q 214 651 197 657 q 220 648 217 649 q 226 644 224 647 q 238 635 233 638 q 246 624 240 632 q 256 593 256 610 q 253 582 256 585 q 243 569 249 571 l 233 564 q 227 563 231 563 q 221 561 224 563 q 203 563 213 561 q 188 569 194 564 q 175 578 182 572 q 161 594 167 583 q 158 601 158 597 q 154 608 157 604 q 151 626 150 622 z "},"j":{"ha":188,"x_min":-458,"x_max":201,"o":"m -449 -185 q -442 -185 -449 -181 q -422 -199 -435 -190 q -392 -214 -410 -207 q -350 -221 -374 -221 q -274 -198 -317 -221 q -181 -109 -232 -175 q -72 75 -129 -43 q 51 382 -14 193 q 71 418 56 394 q 102 465 86 442 q 131 502 118 488 q 144 510 144 517 q 137 471 144 492 q 125 433 129 450 q 49 169 88 300 q -36 -92 10 39 q -64 -164 -49 -125 q -99 -238 -79 -203 q -147 -303 -119 -274 q -208 -350 -174 -333 q -238 -359 -219 -356 q -279 -362 -257 -362 q -344 -354 -311 -362 q -404 -325 -378 -346 q -444 -270 -431 -304 q -449 -185 -458 -236 m 94 613 q 97 624 94 618 q 106 636 99 629 q 117 642 111 638 q 126 644 122 643 q 136 643 131 644 q 157 639 147 643 l 169 631 q 181 622 178 625 l 190 611 q 199 592 197 600 q 199 579 201 583 q 197 566 199 574 q 188 556 194 558 l 178 550 q 172 549 175 549 q 165 547 168 549 q 144 551 156 547 q 131 557 138 551 q 119 565 125 560 q 104 581 114 568 q 101 587 103 583 q 97 594 100 590 q 94 613 93 608 z "},"k":{"ha":479,"x_min":-57,"x_max":493,"o":"m 231 910 q 249 921 231 911 q 294 946 268 931 q 351 980 321 961 q 403 1017 381 999 q 393 989 407 1019 q 360 917 379 958 q 323 836 342 876 q 297 781 304 796 q 263 705 285 754 q 216 594 242 656 q 163 463 190 532 q 110 326 135 393 q 154 379 122 342 q 225 456 186 417 q 301 525 264 494 q 361 560 339 556 q 406 553 389 564 q 431 521 422 542 q 438 461 442 494 q 426 404 433 428 q 389 325 413 358 q 344 280 376 306 q 272 233 311 254 q 193 200 233 211 q 125 197 153 189 q 180 108 144 132 q 249 79 215 85 q 335 100 292 74 q 415 160 379 126 q 472 223 450 194 q 493 250 493 251 q 447 160 478 204 q 379 81 417 117 q 301 25 342 46 q 225 4 261 4 q 178 18 204 4 q 126 57 151 32 q 83 115 101 82 q 61 189 65 149 q 38 115 47 149 q 24 58 28 82 q 22 0 19 31 q -20 7 3 -1 q -54 58 -43 15 q -38 134 -57 69 q 10 290 -19 199 q 76 485 40 381 q 145 680 113 589 q 202 835 178 771 q 231 910 226 900 m 160 279 q 314 357 251 300 q 392 508 376 414 q 389 510 390 510 q 385 511 388 510 q 365 510 374 514 q 345 502 354 507 q 326 490 336 497 q 233 394 275 449 q 160 279 190 339 z "},"l":{"ha":311,"x_min":-32,"x_max":418,"o":"m 158 88 q 201 100 181 83 q 235 132 221 117 q 286 198 264 163 q 329 269 308 233 q 326 258 338 283 q 291 190 315 232 q 232 100 267 147 q 157 24 197 53 q 75 0 125 0 q 23 10 47 0 q -14 42 -1 19 q -28 112 -32 74 q -17 182 -24 150 q 6 269 -11 210 q 49 402 24 328 q 102 559 74 476 q 158 717 131 642 q 208 853 185 793 q 246 946 232 914 q 265 950 246 947 q 309 959 283 953 q 364 977 335 965 q 415 1007 393 989 q 399 972 418 1008 q 348 872 379 935 q 278 730 317 810 q 206 565 240 650 q 143 398 171 481 q 104 249 115 315 q 104 138 93 182 q 158 88 115 94 z "},"m":{"ha":850,"x_min":-68,"x_max":886,"o":"m -64 107 q 3 276 -18 207 q 32 388 24 344 q 40 454 40 432 q 44 485 40 476 q 64 494 44 486 q 111 514 83 501 q 169 542 139 526 q 222 575 200 558 q 213 546 225 576 q 178 465 200 515 q 128 352 156 415 q 72 225 100 289 q 239 379 150 310 q 421 514 328 449 q 436 506 428 518 q 446 490 444 493 q 454 437 461 463 q 436 383 447 411 q 422 344 429 364 q 408 303 415 324 q 554 444 475 381 q 715 571 633 508 q 731 563 722 576 q 740 544 739 549 q 749 487 756 514 q 731 429 742 460 q 715 383 724 406 q 700 336 707 360 q 678 260 689 299 q 664 181 668 221 q 662 138 661 164 q 682 100 663 111 q 703 94 696 94 q 756 118 729 94 q 808 173 783 142 q 851 234 832 204 q 878 278 869 264 q 875 266 886 292 q 839 198 864 240 q 779 108 814 156 q 704 32 744 61 q 629 8 672 8 q 567 26 596 8 q 529 79 538 43 q 525 136 522 107 q 537 193 528 165 q 558 249 546 221 q 579 301 569 276 q 599 346 586 317 q 632 415 613 375 q 531 339 588 386 q 422 237 475 292 q 325 123 368 182 q 264 11 282 64 q 245 33 253 19 q 235 61 238 47 q 231 114 228 88 q 242 167 233 140 q 263 218 251 193 q 285 265 275 243 q 305 308 292 281 q 338 371 318 335 q -8 25 131 232 q -13 18 -11 22 q -18 11 -15 14 q -21 8 -21 11 l -25 0 q -56 22 -47 6 q -67 58 -64 39 q -64 107 -68 81 z "},"n":{"ha":567,"x_min":-58,"x_max":597,"o":"m -56 119 q 11 288 -10 219 q 40 399 32 356 q 49 465 49 443 q 53 496 49 488 q 72 506 53 497 q 119 526 92 514 q 178 555 147 539 q 231 588 208 571 q 222 562 233 589 q 192 490 211 535 q 147 387 172 444 q 94 268 121 329 q 252 424 167 351 q 426 563 338 496 q 442 554 433 568 q 451 536 450 540 q 460 478 467 506 q 442 421 453 451 q 426 374 435 397 q 411 328 418 351 q 390 251 400 290 q 375 172 379 213 q 374 129 374 156 q 393 93 374 103 q 414 88 403 88 q 467 111 440 88 q 519 165 494 135 q 562 226 543 196 q 589 271 581 257 q 586 258 597 283 q 550 190 575 232 q 490 100 525 147 q 415 24 456 53 q 340 0 383 0 q 278 17 307 0 q 240 71 249 35 q 236 128 233 99 q 248 185 239 157 q 269 240 257 213 q 290 293 281 268 q 310 338 297 308 q 343 407 324 367 q 331 397 335 401 q 181 266 247 332 q 51 117 115 200 q 33 88 42 101 q 14 60 24 75 q 6 46 10 53 q -3 32 1 39 q -8 24 -6 28 q -12 17 -10 19 l -17 13 q -20 10 -19 11 q -24 7 -21 8 q -31 10 -26 4 q -36 19 -35 17 q -37 22 -36 21 q -54 50 -50 33 q -58 82 -58 67 q -56 119 -58 100 z "},"o":{"ha":474,"x_min":-31,"x_max":563,"o":"m -31 122 q -28 142 -29 133 q -26 163 -28 151 q 3 267 -15 217 q 53 365 22 317 q 32 390 39 374 q 29 424 26 403 q 85 523 44 485 q 190 568 126 561 l 196 568 l 211 568 q 274 551 244 568 q 324 508 303 535 q 359 450 346 482 q 374 386 372 418 q 402 390 389 389 q 431 393 415 390 q 498 405 460 397 q 561 428 536 413 q 563 424 563 426 l 563 415 q 549 388 561 403 q 508 366 531 372 q 463 357 486 360 q 417 352 439 354 q 371 347 394 350 q 367 327 368 336 q 363 307 365 318 q 294 145 343 219 q 169 22 244 71 q 110 0 143 4 l 104 0 l 96 0 q 88 1 92 0 q 82 1 85 1 q 34 19 58 6 q -6 50 10 32 q -31 104 -26 71 l -31 110 l -31 122 m 28 104 q 35 63 28 83 q 38 61 36 61 q 47 67 46 65 q 65 81 57 74 q 82 94 74 88 q 95 109 89 101 q 108 125 101 117 q 171 215 144 169 q 213 317 197 260 q 218 339 215 325 l 210 339 q 163 339 186 336 q 144 340 153 340 q 125 343 135 340 q 121 340 121 343 q 119 340 119 340 q 117 339 118 340 q 63 244 88 297 q 32 139 39 190 q 28 104 28 122 m 71 404 q 76 388 71 394 l 76 389 q 101 411 88 400 q 128 429 114 422 q 135 432 131 431 q 142 433 139 433 q 147 429 147 433 q 149 426 149 429 q 149 406 151 419 q 139 378 147 394 q 140 375 139 375 q 157 375 149 375 q 174 376 165 375 q 201 377 188 376 q 228 378 214 378 q 232 386 232 382 q 231 407 232 400 q 213 458 231 438 q 165 479 196 479 q 129 474 146 479 q 89 447 107 464 q 71 404 71 431 z "},"p":{"ha":492,"x_min":-192,"x_max":443,"o":"m -15 222 q -14 226 -14 224 q 23 340 11 293 q 39 417 35 386 q 43 465 43 449 q 46 489 43 482 q 65 498 46 490 q 113 518 85 506 q 171 547 140 531 q 224 579 201 563 q 220 566 226 581 q 203 524 214 551 q 176 460 192 497 q 142 382 160 424 q 235 507 188 451 q 261 535 247 521 q 291 560 275 550 q 324 576 307 571 q 360 574 340 581 q 418 529 400 560 q 440 460 436 499 q 440 398 443 429 q 429 340 436 367 q 386 213 415 278 q 312 99 357 149 q 208 20 267 49 q 74 3 149 -8 q 40 17 54 6 q 15 44 26 29 q 8 31 13 38 q 1 18 4 25 q -7 1 -3 10 q -17 -14 -11 -7 q -48 -104 -32 -58 q -77 -190 -64 -150 q -100 -261 -90 -229 q -112 -311 -110 -293 q -115 -341 -114 -326 q -114 -368 -115 -356 q -156 -362 -133 -371 q -190 -311 -179 -354 q -180 -267 -192 -306 q -149 -171 -168 -228 q -109 -49 -131 -114 q -67 74 -87 17 q -33 173 -47 132 q -15 222 -18 214 m 44 100 q 56 98 50 99 q 67 96 61 97 q 156 103 114 88 q 233 147 199 118 q 294 216 268 176 q 338 294 321 256 q 378 444 367 367 q 378 506 382 479 q 350 539 374 533 q 317 524 339 542 q 269 479 294 507 q 217 416 243 451 q 171 344 192 381 q 125 266 149 304 q 81 188 101 228 q 72 171 79 185 q 58 142 65 157 q 47 113 51 126 q 44 100 43 100 z "},"q":{"ha":525,"x_min":-44,"x_max":550,"o":"m 6 292 l 7 294 q 54 394 26 346 q 117 482 82 442 q 190 550 150 519 q 279 578 231 581 q 353 554 317 576 q 399 485 390 532 q 421 506 410 494 q 440 525 432 517 q 480 556 460 542 q 522 585 500 569 q 535 583 531 590 q 543 564 540 575 q 538 511 550 536 q 514 460 526 486 q 360 140 428 304 q 244 -196 293 -25 q 237 -222 240 -211 q 231 -243 233 -233 q 226 -264 229 -253 q 219 -290 224 -275 q 209 -308 218 -294 q 189 -333 200 -321 q 169 -355 178 -346 q 160 -361 160 -364 q 163 -214 150 -299 q 197 -45 175 -129 q 242 109 218 39 q 278 213 265 179 q 279 217 279 214 q 258 188 271 203 q 183 99 222 142 q 97 21 144 56 q 68 3 83 11 q 35 -3 53 -6 l 33 -3 q -7 20 10 1 q -31 63 -24 39 q -29 179 -44 119 q 6 292 -14 239 m 33 22 q 79 42 50 17 q 138 103 108 68 q 192 174 167 139 q 228 225 218 210 q 251 265 240 244 q 272 307 263 285 q 287 338 279 322 q 301 369 294 354 q 303 383 301 379 q 298 422 303 400 q 271 444 293 444 q 247 435 258 444 q 176 367 215 411 q 101 273 136 324 q 41 169 65 222 q 15 72 17 115 q 17 42 14 60 q 33 22 21 25 z "},"r":{"ha":511,"x_min":-28,"x_max":538,"o":"m -7 231 q 84 400 56 328 q 124 508 113 472 q 121 509 122 508 q 118 510 119 510 q 96 517 107 514 q 76 531 85 521 q 64 581 60 554 q 69 602 65 589 q 80 628 72 615 q 99 653 88 642 q 129 668 111 664 q 169 588 146 604 q 213 569 193 571 q 250 569 232 569 q 288 569 268 568 q 301 570 290 569 q 325 572 313 571 q 348 574 338 574 q 360 576 358 575 q 367 575 363 579 q 374 569 372 571 q 388 548 382 560 q 396 525 393 536 q 397 504 399 511 q 396 489 399 500 q 394 483 394 488 q 350 353 371 418 q 318 233 329 288 q 308 142 307 179 q 326 96 308 106 q 349 90 336 90 q 404 115 376 90 q 457 171 432 139 q 501 234 482 203 q 529 279 521 265 q 526 266 538 293 q 490 196 515 239 q 428 104 464 153 q 350 25 392 56 q 271 0 317 0 q 207 18 236 0 q 168 72 178 36 q 165 131 161 101 q 177 190 168 161 q 199 248 186 219 q 221 303 211 276 q 253 374 229 324 q 307 488 276 424 q 271 487 289 486 q 235 489 253 488 q 158 500 200 490 l 153 500 q 138 470 146 485 q 124 440 131 456 q 58 315 92 375 q -25 182 24 256 q -26 185 -28 179 q -20 201 -24 192 q -13 219 -17 210 q -7 231 -10 228 z "},"s":{"ha":399,"x_min":-71,"x_max":483,"o":"m -67 157 q -61 169 -65 164 q -51 179 -57 174 q -19 197 -36 192 q 9 208 -6 204 q 39 217 24 213 q 74 224 57 221 q 108 231 90 228 l 165 240 q 172 241 168 240 q 175 244 175 242 q 169 258 172 251 q 163 272 165 265 q 130 342 144 307 q 108 415 115 376 q 106 467 104 443 q 130 535 110 503 q 186 581 150 568 q 208 585 197 585 l 217 585 q 226 583 222 585 q 235 581 231 582 q 246 576 240 579 q 260 560 256 568 q 271 526 269 542 l 271 515 q 263 510 269 507 q 204 497 232 514 q 158 449 176 482 q 147 410 149 428 q 153 371 147 388 q 156 360 153 368 q 163 341 160 350 q 172 322 167 332 q 189 287 181 304 q 208 250 197 269 q 275 265 239 254 q 347 293 311 276 q 417 331 383 310 q 478 379 451 353 q 483 369 481 378 l 483 368 q 482 364 482 367 q 440 320 472 343 q 369 277 408 297 q 288 240 329 257 q 221 215 247 224 q 231 192 225 208 q 244 126 244 157 q 239 82 246 107 q 194 22 231 40 q 119 0 157 4 l 113 0 l 94 0 l 89 0 q 1 28 40 7 q -58 99 -39 50 q -68 129 -65 111 q -67 157 -71 146 m -15 122 q -8 118 -10 119 q 47 100 19 107 q 103 93 74 93 q 115 93 108 93 q 129 96 122 93 q 174 122 156 103 q 192 169 192 142 q 185 208 192 185 q 151 200 168 204 q 117 192 133 196 q 83 182 103 188 q 44 168 64 176 q 9 149 25 160 q -15 125 -7 138 q -15 122 -17 124 z "},"t":{"ha":289,"x_min":-43,"x_max":524,"o":"m 15 293 q 40 349 22 311 q 83 438 58 388 q 134 544 107 488 q 186 653 161 600 q 121 644 143 647 q 85 638 99 640 q 60 636 71 636 q 26 638 49 636 q -23 647 -8 640 q -14 660 -37 653 q 99 686 43 674 q 213 708 154 699 q 240 769 228 742 q 261 815 253 796 q 271 837 265 824 q 284 861 276 850 q 301 877 292 872 q 324 875 311 882 q 321 854 326 874 q 308 812 315 835 q 293 769 300 789 q 285 746 286 749 q 276 719 283 735 q 341 731 308 726 q 404 736 374 736 q 468 726 440 736 q 510 688 496 715 q 522 663 519 669 q 519 657 524 657 q 481 668 513 657 q 389 679 450 679 q 328 676 361 679 q 256 663 296 672 q 217 559 239 617 q 174 441 194 501 q 135 322 153 381 q 108 215 117 263 q 99 134 99 167 q 118 93 100 101 q 139 88 128 88 q 192 111 165 88 q 244 165 219 135 q 287 226 268 196 q 314 271 306 257 q 311 258 322 283 q 275 190 300 232 q 215 100 250 147 q 140 24 181 53 q 65 0 108 0 q 2 17 31 0 q -36 71 -26 35 q -40 128 -43 99 q -27 185 -36 157 q -6 240 -18 213 q 15 293 6 268 z "},"u":{"ha":626,"x_min":-40,"x_max":653,"o":"m 19 303 q 38 344 25 317 q 67 406 50 371 q 103 483 83 442 q 144 568 124 525 q 160 558 150 565 q 180 541 171 551 q 194 517 189 531 q 194 489 200 504 q 193 483 193 488 q 149 353 169 418 q 117 233 128 288 q 106 142 106 179 q 125 96 107 106 q 147 90 135 90 q 203 115 175 90 q 257 171 232 139 q 301 234 282 203 q 328 279 319 265 q 333 291 331 286 q 338 303 335 296 q 356 344 343 317 q 385 406 368 371 q 421 483 401 442 q 461 568 440 525 q 477 558 467 565 q 497 541 488 551 q 512 517 507 531 q 511 489 517 504 q 510 486 511 488 q 510 483 510 485 q 466 353 486 418 q 434 233 446 288 q 423 142 422 179 q 443 96 424 106 q 465 90 453 90 q 520 115 492 90 q 574 171 549 139 q 617 234 599 203 q 644 279 636 265 q 642 266 653 293 q 606 196 631 239 q 544 104 581 153 q 467 25 508 56 q 388 0 433 0 q 324 18 353 0 q 285 72 294 36 q 283 153 274 113 q 308 233 293 194 q 281 183 297 211 q 243 126 264 154 q 198 71 222 97 q 149 25 174 44 q 69 0 115 0 q 6 18 35 0 q -33 72 -24 36 q -37 131 -40 101 q -24 190 -33 161 q -3 248 -15 219 q 19 303 10 276 z "},"v":{"ha":508,"x_min":-7,"x_max":606,"o":"m -4 265 q -3 310 -4 281 q 1 379 -1 340 q 8 465 4 418 q 15 558 11 511 q 33 556 21 558 q 58 547 46 553 q 81 530 71 540 q 90 503 90 519 q 92 496 90 499 q 95 353 94 426 q 101 221 96 281 q 116 122 106 161 q 147 81 126 83 q 163 86 154 79 q 176 97 172 93 q 217 149 197 115 q 251 216 236 182 q 276 278 267 250 q 283 314 285 307 q 278 345 282 329 q 271 376 274 361 q 271 442 267 408 q 281 494 274 465 q 299 551 288 522 q 324 604 310 579 q 357 646 339 629 q 390 673 369 658 q 431 683 411 688 q 453 654 451 679 q 449 599 456 629 q 434 540 443 568 q 421 500 425 511 q 385 402 406 450 q 347 306 364 354 l 343 293 q 395 272 365 279 q 457 265 425 265 q 529 276 494 265 q 586 307 564 286 q 597 313 589 310 q 604 310 606 317 q 595 293 603 300 q 582 281 588 286 q 507 244 550 257 q 424 231 464 231 q 375 235 400 231 q 326 253 350 240 q 278 144 303 199 q 210 49 254 89 q 177 23 194 33 q 140 7 160 13 q 99 0 117 0 q 61 8 79 0 q 31 32 43 15 q 5 85 13 57 q -5 144 -3 114 q -6 206 -7 175 q -4 265 -4 238 z "},"w":{"ha":815,"x_min":-8,"x_max":896,"o":"m -7 276 q -1 392 -7 308 q 13 575 6 476 q 30 572 18 575 q 54 563 42 569 q 76 547 67 557 q 88 519 86 536 q 89 513 88 514 q 96 372 92 442 q 108 248 100 303 q 131 158 117 193 q 167 119 146 122 q 211 138 192 117 q 244 191 231 158 q 266 260 257 224 q 281 326 275 297 q 284 365 283 346 q 288 403 285 385 q 310 419 293 403 q 344 453 326 435 q 375 488 361 472 q 389 503 389 504 q 387 360 389 433 q 388 228 385 288 q 400 128 390 168 q 431 86 410 89 q 447 91 438 85 q 460 101 456 97 q 501 151 481 118 q 539 217 522 183 q 565 279 556 251 q 575 314 575 307 q 569 346 574 331 q 564 376 565 361 q 562 410 561 393 q 565 442 563 426 q 576 494 568 465 q 597 550 585 522 q 625 603 610 578 q 658 644 640 628 q 692 669 671 656 q 733 679 714 683 q 756 649 754 675 q 750 593 757 624 q 733 534 743 563 q 718 496 722 506 q 678 400 700 447 q 638 304 657 353 l 633 290 q 687 268 656 275 q 750 261 718 261 q 819 270 786 261 q 872 299 851 279 q 885 303 875 301 q 894 299 896 306 q 885 282 892 289 q 871 271 878 275 q 854 260 863 264 q 838 250 846 256 q 779 233 814 239 q 718 226 744 226 q 666 232 692 226 q 615 251 640 238 q 563 145 590 199 q 490 51 536 92 q 440 19 469 32 q 383 7 411 7 q 343 15 363 7 q 311 42 324 22 q 283 129 290 74 q 278 250 276 185 q 261 172 272 215 q 231 90 250 128 q 181 26 211 51 q 106 0 151 0 q 63 10 83 0 q 28 40 43 19 q 3 94 11 65 q -6 155 -4 124 q -8 217 -8 186 q -7 276 -7 249 z "},"x":{"ha":522,"x_min":-15,"x_max":472,"o":"m 467 49 q 471 47 472 49 q 465 41 469 44 q 455 34 460 38 q 449 31 450 31 q 396 6 425 17 q 338 4 367 -6 q 279 40 307 14 q 227 98 251 65 q 185 165 203 131 q 154 229 167 200 q 83 159 117 196 q 29 76 49 122 q 29 61 32 64 q 23 51 25 57 q 18 42 21 46 q 7 43 13 36 q -1 54 1 50 q -10 72 -6 61 q -12 92 -15 82 q 44 199 7 154 q 131 285 82 244 q 130 286 131 286 q 129 288 129 286 q 71 459 97 371 q 44 638 44 547 q 46 659 44 649 q 51 679 47 669 q 58 693 54 688 q 69 703 61 699 q 76 706 72 704 q 85 708 81 707 q 99 704 93 708 q 110 694 104 700 q 133 653 124 679 q 143 606 143 626 q 140 592 142 599 q 132 582 139 585 q 129 581 129 581 l 126 578 q 125 574 125 575 q 124 571 125 574 q 124 573 124 572 q 125 575 125 574 q 124 570 124 572 q 122 565 124 568 l 122 551 q 124 542 122 544 q 124 528 124 535 q 126 515 125 522 q 128 508 128 513 q 129 500 128 504 q 135 476 132 489 q 140 453 138 464 q 144 440 143 446 q 149 426 146 433 l 149 424 q 150 420 150 421 q 151 417 150 419 q 166 374 158 396 q 183 331 174 353 q 251 397 219 363 q 303 475 283 431 q 321 528 314 500 q 322 585 328 557 q 322 593 321 588 q 329 594 322 599 q 338 584 335 592 q 342 569 340 576 q 328 426 358 494 q 276 345 308 382 q 208 276 244 308 q 292 146 243 203 q 367 76 322 110 q 467 49 411 43 m 122 564 q 121 560 122 560 q 122 562 121 561 q 122 564 122 563 m 121 560 q 122 553 122 557 q 121 560 122 557 m 122 549 l 122 551 q 123 544 124 542 q 122 549 122 546 z "},"y":{"ha":553,"x_min":-106,"x_max":497,"o":"m -97 -203 q -89 -203 -96 -199 q -69 -217 -82 -208 q -39 -232 -57 -225 q 3 -239 -21 -239 q 76 -217 35 -239 q 165 -135 117 -196 q 269 36 214 -74 q 388 322 325 146 q 308 207 351 265 q 219 101 264 149 q 131 24 174 54 q 54 -6 88 -6 q 11 13 29 -6 q -17 74 -7 31 q -22 156 -26 114 q -6 241 -18 199 q 22 324 6 283 q 56 403 39 365 q 86 468 69 436 q 124 529 103 500 q 133 542 126 533 q 147 557 139 550 q 162 567 154 564 q 176 565 169 569 q 206 546 192 556 q 229 524 219 536 q 242 495 239 511 q 238 458 244 479 q 190 357 221 410 q 143 256 158 304 q 115 128 115 165 q 132 92 114 92 q 178 118 149 92 q 243 184 208 144 q 315 270 278 224 q 382 358 351 317 q 434 426 413 399 q 460 456 456 454 q 485 486 475 475 q 496 492 496 497 q 489 453 497 474 q 476 415 481 432 q 317 -110 407 150 q 289 -182 304 -143 q 253 -256 274 -221 q 206 -322 233 -292 q 144 -368 179 -351 q 115 -377 133 -374 q 74 -381 96 -381 q 9 -372 43 -381 q -51 -343 -25 -364 q -92 -288 -78 -322 q -97 -203 -106 -254 z "},"z":{"ha":540,"x_min":-112,"x_max":522,"o":"m 3 -382 q -81 -319 -50 -367 q -101 -215 -112 -272 q -99 -203 -101 -211 q -90 -213 -100 -207 q -67 -226 -81 -219 q -42 -237 -54 -232 q -29 -242 -31 -242 q 110 -251 38 -260 q 183 -237 142 -247 q 263 -209 225 -228 q 326 -161 300 -190 q 353 -90 351 -132 q 329 -29 353 -56 q 274 11 306 -3 q 209 30 243 25 q 143 42 175 35 q 100 57 121 46 q 76 90 79 68 q 83 122 74 107 q 104 150 93 138 q 375 396 229 286 q 289 395 332 394 q 204 404 246 396 q 178 411 193 407 q 149 421 163 415 q 117 433 133 426 q 33 266 81 351 q -72 114 -15 181 q -76 124 -76 108 q -69 144 -75 139 q 3 246 -26 193 q 51 344 32 299 q 78 419 69 389 q 88 450 88 449 q 53 481 69 463 q 41 495 46 488 q 33 514 36 503 q 33 533 31 524 q 44 549 36 543 q 61 553 53 553 q 90 546 76 553 q 261 515 169 515 q 324 519 293 515 q 385 531 354 522 q 423 540 404 535 q 461 543 442 544 q 497 530 481 542 q 518 499 514 518 q 507 457 522 479 q 476 422 494 438 q 303 272 389 347 q 131 119 218 196 q 244 94 189 117 q 339 29 299 72 q 393 -76 379 -15 q 385 -190 407 -136 q 332 -272 367 -235 q 253 -335 297 -308 q 159 -375 208 -361 q 63 -389 110 -389 q 3 -382 28 -389 z "},".":{"ha":201,"x_min":13,"x_max":100,"o":"m 28 74 q 56 76 43 81 q 78 64 68 71 q 87 53 83 58 q 93 42 90 47 q 98 31 96 36 q 100 21 100 26 q 99 11 100 14 q 86 3 96 6 q 68 0 76 1 q 40 11 51 -3 q 24 33 29 25 q 15 55 17 43 q 28 74 13 67 z "},",":{"ha":244,"x_min":33,"x_max":131,"o":"m 42 6 q 59 27 57 10 q 58 56 61 44 q 56 61 57 58 q 54 67 56 64 q 67 88 50 81 q 86 90 78 90 q 121 74 111 88 q 124 40 131 60 q 94 10 115 21 q 50 0 74 -1 q 40 1 47 0 q 42 6 33 3 z "},"!":{"ha":274,"x_min":49,"x_max":229,"o":"m 64 411 q 139 854 94 632 q 147 890 143 872 q 154 926 151 907 q 159 945 157 936 q 164 964 161 954 q 169 983 167 974 q 181 997 171 992 q 188 997 183 1000 q 194 990 192 993 q 217 955 208 976 q 226 914 225 933 q 225 867 229 890 q 217 821 221 844 q 209 783 213 801 q 203 744 206 764 q 178 608 190 676 q 156 472 167 540 q 144 403 149 438 q 135 333 139 368 q 130 299 132 317 q 125 265 128 282 q 120 233 122 249 q 114 201 118 217 q 108 178 111 190 q 96 157 104 167 q 83 156 90 150 q 70 174 76 163 q 60 198 64 186 q 56 214 56 210 q 53 313 49 264 q 64 411 57 363 m 64 75 q 91 77 78 82 q 113 64 104 72 q 122 54 118 60 q 128 43 125 49 q 132 31 131 36 q 135 21 133 26 q 133 11 135 14 q 121 3 131 6 q 103 0 111 1 q 76 11 88 -3 q 60 33 65 25 q 51 56 53 43 q 64 75 49 68 z "},"?":{"ha":461,"x_min":25,"x_max":446,"o":"m 31 846 q 49 912 35 879 q 86 970 64 944 q 139 1013 108 996 q 206 1032 169 1029 q 268 1026 238 1035 q 322 994 299 1017 q 383 919 360 963 q 419 828 407 875 q 433 650 446 736 q 371 503 421 571 q 321 442 347 471 q 268 382 294 413 q 221 318 242 351 q 186 247 200 285 q 182 228 183 238 q 179 210 181 219 q 178 199 178 204 q 176 190 178 194 l 176 179 q 175 169 175 175 q 171 158 175 164 q 160 156 167 153 q 151 162 156 158 q 143 168 147 165 q 131 185 136 175 q 122 203 126 194 q 115 224 118 214 q 108 246 111 235 q 105 288 106 267 q 108 331 104 310 q 160 454 122 401 q 246 558 199 507 q 326 663 294 614 q 367 786 357 713 l 367 789 l 367 794 l 367 792 l 367 796 l 367 811 q 365 828 365 817 l 365 831 q 363 838 364 835 q 361 847 363 842 q 360 851 361 850 q 360 854 360 853 q 357 860 360 854 q 354 865 357 860 q 352 868 353 867 q 349 872 351 869 q 344 878 346 875 q 340 883 343 881 q 336 886 339 883 q 298 907 322 900 q 254 914 274 914 q 158 875 199 911 q 100 789 118 839 q 96 769 97 779 q 93 749 94 760 q 92 739 92 746 q 92 743 93 749 q 92 735 92 738 l 92 732 q 94 731 93 732 q 109 726 101 728 q 124 724 117 725 q 169 740 151 726 q 176 748 172 744 q 182 756 179 751 q 189 760 185 760 q 207 746 197 760 q 219 728 217 732 q 227 708 224 718 q 233 688 231 699 q 235 673 235 681 q 232 658 235 665 q 215 632 226 646 q 202 621 208 626 q 189 611 196 615 q 174 608 182 608 q 158 607 165 607 q 115 622 135 608 q 81 654 96 635 q 56 697 65 674 q 40 740 46 719 q 31 846 25 796 m 99 74 q 126 76 113 81 q 147 64 139 71 q 162 44 154 57 q 169 21 169 31 q 168 11 171 17 q 156 3 165 6 q 138 0 146 1 q 110 11 122 -3 q 93 33 99 25 q 85 55 86 43 q 99 74 83 67 m 356 864 l 356 863 l 356 864 m 357 860 l 356 863 l 357 860 z "},"*":{"ha":408,"x_min":38,"x_max":365,"o":"m 113 843 l 140 858 l 129 871 q 115 885 125 876 q 93 903 104 894 q 81 912 89 907 q 66 923 72 917 q 58 936 60 929 q 61 950 56 943 q 77 957 67 957 q 94 954 88 957 q 124 938 110 947 q 151 918 139 929 l 167 906 l 175 936 q 183 972 178 953 q 201 1003 188 990 q 217 1008 207 1008 q 250 988 240 1008 q 250 954 257 972 q 238 922 243 936 l 229 899 l 251 908 q 318 928 285 924 q 336 931 325 931 q 354 925 347 932 q 358 908 365 917 q 342 892 350 899 q 310 875 326 882 q 276 861 293 868 q 239 843 242 847 q 246 828 236 839 q 294 771 272 800 q 309 744 301 760 q 306 717 317 729 q 290 708 297 708 q 273 717 281 708 q 260 735 265 726 q 249 748 258 738 q 230 769 240 758 q 210 790 219 781 q 200 797 201 799 q 197 785 199 796 q 194 761 196 775 q 190 732 192 747 q 186 707 188 717 q 164 688 183 688 q 150 692 157 688 q 146 697 147 694 q 136 731 135 713 q 139 765 138 749 q 139 797 143 797 q 115 785 135 797 q 81 761 94 772 q 68 753 75 757 q 54 756 61 750 q 41 782 38 768 q 57 808 44 796 q 86 828 69 819 q 113 843 103 838 z "},"#":{"ha":669,"x_min":35,"x_max":658,"o":"m 43 400 q 56 404 50 404 q 69 403 63 404 q 83 402 76 403 q 96 400 89 401 l 140 394 q 167 470 154 432 q 194 546 181 508 q 179 548 188 547 q 163 551 171 549 q 94 572 128 556 q 89 576 93 572 q 81 583 85 579 q 75 590 76 586 q 78 597 74 594 q 92 600 85 600 q 106 599 99 600 l 139 594 q 146 594 142 594 q 156 593 150 593 q 161 592 157 592 q 178 590 169 590 q 196 588 188 589 q 199 587 199 588 q 203 586 200 586 l 210 586 q 265 738 238 663 q 321 890 293 814 q 332 896 324 896 q 364 885 346 896 q 379 865 382 875 q 349 778 364 821 q 318 692 333 736 q 297 635 307 664 q 278 578 288 606 q 290 576 282 576 q 342 570 317 574 q 393 564 367 567 q 422 561 408 563 q 451 557 436 560 q 458 576 454 567 q 464 593 461 585 q 524 772 494 683 q 590 949 554 861 q 601 954 592 954 q 617 951 608 954 q 628 947 625 949 q 646 938 633 944 q 656 921 658 931 q 626 817 642 868 q 593 715 610 767 q 566 631 579 672 q 538 546 553 589 q 546 545 542 546 q 556 544 550 544 q 588 538 572 542 q 619 524 604 533 q 622 522 621 522 q 625 521 624 522 q 640 510 632 517 q 646 494 649 503 q 628 485 643 483 q 607 488 614 486 l 578 492 q 551 496 564 494 q 522 499 538 497 q 499 428 511 463 q 475 357 488 393 q 474 354 475 356 q 474 351 474 353 q 524 342 499 349 q 568 315 550 335 q 574 303 574 308 q 564 294 574 297 q 542 294 553 292 q 522 299 532 296 l 493 303 q 476 305 485 304 q 458 307 468 306 q 437 242 447 275 q 415 178 426 210 l 386 90 q 378 66 382 78 q 369 42 374 54 q 366 33 367 38 q 363 22 365 28 q 347 3 360 11 q 329 1 340 -3 q 311 7 318 4 q 295 16 304 10 q 283 29 286 22 q 281 45 281 39 q 285 60 282 51 l 293 85 q 301 110 297 97 q 310 136 306 122 l 343 236 q 358 278 350 257 q 372 321 365 299 l 314 329 q 255 339 285 335 q 194 349 225 343 q 175 293 185 321 q 156 238 165 265 l 129 161 q 123 140 126 150 q 117 121 119 131 q 107 104 113 110 q 100 97 104 100 q 93 89 96 93 q 80 88 89 85 q 67 93 71 90 q 55 99 63 94 q 46 110 47 103 q 45 122 46 117 q 44 135 44 128 q 51 156 46 142 q 76 220 64 188 q 100 285 89 253 l 128 360 q 65 375 90 364 q 49 385 63 376 q 43 400 35 393 m 276 378 q 331 370 304 374 q 386 364 358 367 q 410 437 399 400 q 435 511 422 474 l 426 511 q 372 519 399 515 q 318 526 346 522 q 290 531 303 529 q 261 535 276 532 q 235 460 249 497 q 208 386 222 424 q 243 382 226 383 q 276 378 260 381 z "},"^":{"ha":368,"x_min":32,"x_max":304,"o":"m 32 713 l 32 715 q 38 717 36 715 q 40 722 40 722 q 76 790 58 757 q 113 857 94 824 q 131 892 122 875 q 149 929 140 910 q 165 967 157 949 q 176 1006 172 986 q 178 1008 176 1007 q 183 1013 178 1013 q 194 1014 188 1014 q 228 1003 210 1011 q 251 979 246 994 q 258 953 254 965 q 264 926 261 940 q 281 838 275 879 q 287 794 283 815 q 294 751 290 774 q 299 721 297 736 q 303 690 300 706 q 304 682 304 688 q 297 675 304 675 q 288 676 290 675 q 265 683 272 679 q 246 703 251 690 q 226 767 233 735 q 211 833 218 800 q 208 850 210 842 q 206 867 207 858 q 205 870 206 869 q 204 872 204 871 q 201 874 203 874 q 199 870 200 871 q 197 867 199 869 q 149 781 174 824 q 97 697 124 739 q 96 695 96 696 q 94 693 96 694 q 88 689 93 689 q 81 688 85 688 q 74 689 76 689 q 51 699 60 693 q 38 710 43 703 q 32 713 35 713 z "},"$":{"ha":710,"x_min":6,"x_max":769,"o":"m 8 107 q 26 166 8 135 q 74 204 44 197 q 132 189 108 213 q 133 187 133 188 q 135 185 133 186 q 133 182 133 182 q 125 179 128 179 q 94 158 107 174 q 78 125 81 143 q 78 113 76 119 q 89 103 82 104 q 107 99 97 99 q 122 100 114 100 q 136 100 129 100 q 165 103 151 101 q 194 107 179 104 q 215 112 206 110 q 236 117 225 114 q 242 118 239 117 q 244 121 244 118 q 249 131 246 125 q 309 265 279 199 q 368 400 339 332 q 370 405 369 403 q 372 410 371 407 q 371 414 376 414 q 363 417 365 417 q 311 435 342 425 q 239 469 275 449 q 181 524 203 490 q 164 558 168 540 q 165 604 158 579 q 173 624 168 615 q 183 643 178 633 q 217 682 200 668 q 291 750 246 715 q 388 815 336 785 q 492 870 439 846 q 590 904 544 894 q 599 911 597 907 q 610 933 603 922 l 631 975 q 643 978 635 986 q 663 938 658 961 q 661 919 664 932 q 660 917 660 918 q 658 915 660 917 q 663 908 657 910 q 672 907 669 908 q 699 900 690 904 q 745 869 725 893 q 768 818 765 844 q 769 808 768 813 q 768 799 769 804 q 749 730 765 768 q 709 656 733 692 q 655 592 685 621 q 596 551 625 564 q 590 550 594 550 q 588 550 589 549 q 586 553 586 551 l 586 557 q 606 613 592 585 q 635 665 619 642 q 660 713 649 689 q 678 764 671 738 q 683 794 681 779 q 689 825 686 810 q 676 840 689 840 q 661 840 669 843 q 643 833 651 838 q 625 825 635 829 q 622 822 622 825 l 618 814 q 472 472 547 643 q 468 463 469 467 q 472 456 465 458 q 483 451 478 453 q 493 446 488 449 q 550 411 528 429 q 597 353 581 389 q 608 274 615 318 q 590 222 604 246 q 578 206 583 214 q 565 190 572 199 q 514 138 546 164 q 445 88 482 111 q 371 46 408 64 q 301 18 333 28 q 288 15 294 15 q 275 11 282 14 q 271 7 271 11 q 265 -4 267 1 q 252 -35 258 -19 q 239 -65 246 -50 q 233 -81 236 -72 q 225 -96 229 -89 l 215 -96 l 211 -92 q 189 -50 192 -68 q 186 -4 186 -32 q 182 1 186 -1 l 176 1 q 153 2 165 1 q 129 3 142 3 q 85 14 107 6 q 46 36 64 22 q 33 47 39 42 q 22 60 28 53 q 8 107 6 79 m 294 507 q 310 499 299 504 q 324 494 317 496 q 338 492 331 493 q 365 486 351 489 q 392 481 378 483 q 403 479 401 478 q 408 489 404 481 q 410 492 408 490 q 453 592 432 542 q 499 692 475 642 l 536 775 q 537 778 536 778 q 538 782 538 779 q 518 774 533 782 q 485 757 503 767 q 452 738 468 747 q 431 724 436 728 q 391 697 414 713 q 347 661 368 681 q 307 621 325 642 q 281 581 289 600 q 272 553 275 568 q 274 528 269 542 q 294 507 279 514 m 338 153 q 344 157 339 154 q 422 207 388 179 q 437 218 429 213 q 451 231 444 224 q 478 261 465 244 q 484 274 481 268 q 490 286 488 279 q 494 300 493 293 q 497 314 496 307 q 482 353 494 338 q 471 364 478 360 q 439 385 457 375 q 433 382 435 385 q 429 371 432 379 q 400 306 414 339 q 372 240 386 274 q 356 202 364 221 q 339 164 347 183 q 336 156 336 158 q 338 153 336 153 z "},"&":{"ha":635,"x_min":1,"x_max":628,"o":"m 28 288 q 114 407 58 354 q 229 501 169 460 q 251 518 240 510 q 272 535 261 526 q 279 540 275 536 q 282 547 282 542 q 281 553 282 551 q 269 609 274 581 q 258 665 264 638 q 254 698 256 682 q 251 731 253 714 q 253 789 250 761 q 268 844 257 817 q 333 935 290 896 q 433 974 375 974 q 545 933 504 974 q 586 824 586 892 q 583 778 588 800 q 569 735 578 757 q 485 606 538 665 q 371 503 432 547 q 366 499 368 500 q 361 494 364 497 q 360 489 360 493 l 360 486 q 402 353 379 418 q 456 226 425 289 q 460 217 458 221 q 465 208 463 213 q 468 204 465 207 q 469 202 468 203 q 471 203 471 201 q 474 206 474 206 q 537 283 508 238 q 569 376 565 328 q 553 454 571 417 l 549 463 q 539 471 543 468 q 526 476 531 474 q 521 482 522 478 q 525 489 518 489 q 529 489 529 489 q 539 488 536 489 q 594 456 571 479 q 624 399 617 433 q 626 360 628 379 q 619 321 625 340 q 591 257 611 289 q 549 200 571 225 q 529 180 539 189 q 510 160 519 171 l 501 151 q 501 144 499 149 q 504 139 501 142 q 549 71 524 104 q 601 10 574 38 q 597 0 606 3 l 592 0 q 551 17 565 3 q 510 61 529 39 q 471 108 490 83 q 461 117 468 117 q 456 114 458 114 q 378 67 415 86 q 292 38 342 47 q 190 29 242 26 q 89 53 139 31 q 33 97 54 71 q 7 163 11 122 q 28 288 1 228 m 96 115 q 108 83 100 97 q 122 74 114 76 q 140 72 131 72 q 167 71 149 71 q 302 96 235 71 q 424 161 369 121 q 426 165 425 164 q 429 167 428 165 q 431 171 431 168 q 426 176 428 174 q 326 396 367 279 q 319 419 322 407 q 311 442 315 431 q 308 451 311 443 l 306 453 q 299 447 301 449 q 228 390 263 419 q 167 328 194 361 q 121 258 140 296 q 93 171 101 219 q 92 143 92 157 q 96 115 93 129 m 322 668 q 328 636 325 653 q 333 604 331 619 q 336 592 333 600 q 339 590 336 590 q 353 602 342 590 q 380 629 365 614 q 407 658 394 644 q 422 675 419 671 q 468 742 447 707 q 488 784 479 763 q 500 829 496 806 q 503 850 501 840 q 503 871 504 860 q 496 913 503 889 q 486 931 492 924 q 481 933 483 933 q 475 933 478 933 q 469 932 472 932 q 405 903 433 925 q 358 852 376 882 q 329 788 339 822 q 319 718 319 753 q 319 693 318 706 q 322 668 321 681 z "},"€":{"ha":383,"x_min":15,"x_max":450,"o":"m 19 503 q 38 518 25 514 q 58 521 51 521 q 90 522 74 521 q 124 522 107 522 l 144 522 q 154 531 153 522 q 172 646 160 576 q 206 783 183 715 q 265 903 229 850 q 356 969 301 956 q 363 971 358 971 q 404 971 383 974 q 444 950 431 967 q 450 943 447 949 q 442 935 450 935 q 385 913 414 935 q 340 868 356 890 q 280 726 303 804 q 243 574 257 647 q 240 555 242 564 q 238 536 239 546 l 238 526 q 242 522 238 522 l 253 522 l 336 522 q 346 517 340 522 q 360 472 360 493 q 360 464 360 472 q 356 460 360 460 l 344 460 l 294 460 q 268 461 281 461 q 243 463 256 461 l 233 463 l 231 460 q 230 427 231 444 q 228 393 229 410 q 229 388 228 389 q 232 385 229 385 q 239 383 233 383 q 271 385 254 385 q 303 385 288 385 q 319 385 311 385 q 336 383 328 385 q 353 363 347 383 q 360 335 358 343 l 360 325 q 355 322 358 322 q 349 321 351 321 l 329 321 q 294 322 311 322 q 258 324 276 322 l 235 324 q 232 319 232 324 l 232 311 q 258 163 239 232 q 267 140 263 151 q 275 118 271 129 q 306 67 288 90 q 338 35 318 47 q 346 28 342 32 q 354 21 350 24 q 361 13 358 19 q 357 1 364 4 q 344 0 353 0 q 313 10 325 3 q 241 63 269 29 q 194 139 213 97 q 167 226 176 181 q 153 315 157 272 l 153 321 q 144 326 151 326 l 69 331 l 57 331 q 52 330 54 331 q 47 329 50 329 q 36 317 38 325 q 33 311 36 317 l 32 311 l 31 311 q 28 313 29 313 q 26 314 28 313 q 15 342 17 328 q 20 366 15 354 q 40 381 25 378 q 61 382 47 382 q 89 383 75 383 q 118 383 103 383 l 143 383 q 149 389 146 383 l 149 397 l 149 454 l 149 461 q 146 465 149 463 l 142 465 q 106 467 124 467 q 69 468 88 468 q 56 468 64 469 l 49 468 q 36 456 38 463 q 33 450 36 453 q 32 449 33 449 q 31 449 32 449 l 26 453 q 15 479 17 467 q 19 503 15 493 z "},"£":{"ha":647,"x_min":13,"x_max":633,"o":"m 15 110 q 36 150 17 133 q 61 165 47 161 q 90 171 75 168 q 136 165 115 171 q 140 164 139 164 q 144 163 142 164 q 149 165 149 163 q 151 172 151 171 q 171 240 165 204 q 181 311 176 275 l 189 415 q 190 437 189 426 q 193 458 192 447 l 193 464 q 194 481 194 479 q 178 482 193 482 q 143 484 160 483 q 108 485 126 485 q 101 483 103 485 q 90 472 93 481 q 88 467 90 472 q 85 467 86 465 q 82 468 82 468 q 72 510 67 488 q 92 532 76 528 q 111 535 99 535 q 144 535 128 535 q 176 536 161 536 l 199 536 q 204 540 203 536 q 251 734 219 636 q 340 913 282 832 q 380 949 358 932 q 429 969 401 965 q 453 972 436 972 q 469 972 461 972 q 486 968 478 971 q 506 960 497 965 q 510 954 507 957 q 506 946 513 949 q 499 945 503 946 q 492 944 496 944 q 420 899 451 936 q 365 813 389 861 q 326 713 342 764 q 301 624 310 661 q 294 588 297 606 q 286 553 290 571 q 285 540 285 549 q 285 538 283 539 q 288 536 286 536 l 294 536 l 382 536 q 389 532 388 536 q 401 508 399 519 q 404 482 404 497 q 399 476 404 476 l 376 476 l 338 476 l 338 478 q 313 478 325 478 q 286 479 300 478 l 278 479 q 275 476 275 479 q 272 469 272 471 q 269 437 271 453 q 267 404 268 421 q 265 358 265 381 q 261 313 264 336 q 253 221 258 268 q 229 133 247 174 q 227 124 226 126 q 233 118 228 122 q 268 97 251 107 q 304 76 285 86 q 319 69 311 72 q 333 61 326 65 q 386 47 363 49 q 415 47 401 46 q 504 86 465 56 q 546 172 543 117 q 542 210 549 192 q 533 224 539 215 q 521 235 531 231 q 506 244 517 238 q 496 257 496 251 q 499 267 493 264 q 502 267 501 267 q 504 268 503 268 l 517 268 q 576 244 549 263 q 619 197 604 226 q 631 168 628 183 q 632 138 633 153 q 612 76 629 101 q 569 33 594 50 q 512 8 543 17 q 449 0 481 0 q 356 18 400 3 q 271 56 313 33 q 246 71 258 63 q 221 86 233 79 l 213 90 q 210 90 210 90 q 203 81 204 82 q 178 49 192 63 q 107 21 149 15 q 39 51 69 25 q 25 67 33 56 q 15 110 13 86 m 94 81 q 97 82 96 82 q 126 121 115 100 l 124 121 q 93 83 97 111 q 94 82 93 82 q 94 81 94 82 z "},"¥":{"ha":411,"x_min":24,"x_max":428,"o":"m 25 956 q 29 957 28 956 q 40 957 35 957 q 51 954 46 957 q 64 949 60 951 q 85 929 78 942 q 120 847 107 889 q 142 760 133 804 q 148 717 144 739 q 156 675 151 696 q 167 613 161 643 q 185 550 174 582 q 188 549 185 549 q 193 557 193 557 q 274 761 236 660 q 342 969 311 863 q 346 980 344 975 q 350 990 347 985 q 358 996 351 996 q 375 996 367 999 q 410 982 392 992 q 419 975 418 976 q 426 957 428 967 q 419 925 425 943 q 348 708 388 814 q 260 497 308 601 q 251 479 254 486 q 240 465 246 468 q 235 456 235 461 q 233 424 233 440 q 231 392 232 407 l 231 388 q 235 384 231 385 q 243 383 240 383 q 270 384 257 383 q 297 385 283 385 l 336 385 q 350 382 347 383 q 358 371 353 381 q 367 351 365 360 q 368 329 368 342 q 364 326 368 326 q 353 325 361 325 q 325 326 339 326 q 296 326 311 326 l 233 329 q 226 326 232 329 q 225 321 225 325 q 223 299 224 310 q 221 278 222 289 q 220 263 221 271 q 219 249 219 256 q 218 242 218 246 q 224 236 218 236 l 231 236 l 343 236 q 356 231 350 236 q 368 192 367 211 q 368 183 368 192 q 367 181 368 182 q 365 179 367 181 q 362 178 363 179 q 360 178 361 178 l 338 178 q 314 179 326 179 q 290 181 301 179 q 260 181 275 181 q 229 182 244 182 l 218 182 q 214 178 214 182 q 213 169 213 174 q 211 160 213 165 q 207 94 208 128 q 203 28 206 61 q 199 11 203 19 q 185 0 194 3 l 179 0 q 142 18 156 3 q 131 40 133 25 q 130 51 131 46 q 131 61 129 56 q 133 103 132 82 q 135 146 133 125 q 136 163 136 154 q 136 178 136 171 q 135 183 136 181 q 131 185 133 185 q 108 186 119 186 q 83 188 96 186 l 71 188 q 63 186 65 188 q 49 174 50 183 q 47 171 47 171 q 43 169 44 168 q 41 171 42 171 q 39 172 40 171 q 29 208 28 188 q 53 233 31 229 q 65 235 57 235 q 90 235 78 235 q 115 236 103 236 l 138 236 q 142 244 142 236 q 143 256 143 253 l 149 315 q 150 326 150 319 q 147 331 150 331 l 144 331 q 112 333 128 332 q 81 335 96 333 q 65 333 71 335 q 49 324 54 333 q 48 320 49 321 q 47 317 47 319 q 43 317 46 315 q 41 318 42 318 q 39 319 40 318 q 29 356 25 338 q 50 379 33 375 q 68 382 56 382 q 105 383 88 382 q 140 383 122 383 l 153 383 q 157 388 157 383 q 160 404 158 396 q 163 419 161 413 q 171 471 164 446 l 171 474 q 169 476 169 476 q 164 481 167 478 q 138 507 147 490 q 99 592 110 544 q 79 683 88 639 q 74 722 76 703 q 68 761 71 742 q 62 803 65 782 q 56 847 58 825 q 38 919 49 888 q 31 933 35 926 q 25 947 28 940 q 24 953 24 949 q 24 954 24 954 q 25 956 25 954 z "},"%":{"ha":467,"x_min":40,"x_max":451,"o":"m 46 94 q 53 99 51 94 q 69 140 61 119 q 86 181 78 160 q 210 489 149 336 q 336 796 272 642 q 407 958 369 878 q 415 972 410 967 l 418 972 q 425 967 422 968 q 447 936 442 953 q 449 919 451 929 q 409 813 429 867 q 369 706 389 758 q 308 549 339 626 q 247 392 278 471 l 126 88 q 113 54 119 71 q 100 21 107 38 q 93 3 99 14 q 86 0 90 0 q 82 1 83 1 q 79 3 81 1 q 72 8 74 6 q 51 33 61 17 q 40 63 40 49 l 40 89 q 46 94 40 94 m 65 822 q 81 878 69 847 q 106 922 92 903 q 131 946 118 936 q 182 969 151 965 q 187 970 185 971 q 190 972 189 969 l 213 972 q 215 971 215 971 l 244 963 q 275 929 269 951 q 277 924 276 926 q 279 918 278 921 q 258 782 296 850 q 237 750 251 768 q 208 724 222 732 q 153 706 186 706 q 85 735 113 706 q 65 781 67 757 q 63 801 63 792 q 65 822 64 811 m 232 131 q 247 182 238 156 q 274 228 257 208 q 301 256 285 243 q 343 274 324 269 q 399 272 368 279 q 404 270 401 271 q 410 268 407 269 q 442 233 432 258 q 447 208 444 219 q 450 182 450 196 q 444 141 450 164 q 428 96 439 118 q 404 56 418 74 q 374 28 390 38 q 321 11 351 11 q 262 29 289 11 q 232 82 235 47 q 229 106 229 94 q 232 131 229 118 m 142 783 l 142 771 q 144 754 142 765 q 149 743 144 751 q 168 736 156 733 q 181 742 176 739 q 186 747 183 744 q 192 751 189 749 q 219 782 206 765 q 240 818 233 799 q 250 911 258 863 q 249 917 250 914 q 246 924 247 921 q 235 936 242 933 q 207 938 221 944 q 193 925 201 933 q 173 896 182 914 q 158 864 164 878 q 145 826 150 844 q 142 783 140 807 m 308 93 l 308 79 l 308 67 q 314 50 311 56 q 325 42 315 44 q 336 43 331 40 q 354 54 347 46 q 395 102 378 76 q 417 161 413 128 q 418 210 421 183 q 416 217 417 214 q 414 225 415 221 q 403 240 408 236 q 372 242 388 251 q 356 224 365 238 q 342 204 346 211 q 324 168 329 183 q 308 93 307 132 z "},"(":{"ha":342,"x_min":60,"x_max":393,"o":"m 60 372 q 61 415 61 396 q 63 453 61 433 q 78 574 68 513 q 107 694 88 636 q 118 726 114 713 q 128 750 122 733 q 176 853 147 803 q 246 944 206 904 q 285 978 260 961 q 306 989 294 983 q 329 994 318 994 q 367 986 350 999 q 385 971 374 982 q 388 966 386 968 q 389 961 389 964 q 388 957 393 957 q 385 954 385 954 q 381 953 382 953 q 378 951 381 953 q 346 935 361 947 q 331 922 338 928 q 317 908 324 915 q 288 869 299 888 q 224 753 250 817 q 183 620 199 689 q 161 482 168 551 q 154 347 154 413 q 156 311 156 329 q 160 274 157 293 q 165 212 160 246 q 181 144 171 178 q 204 78 190 110 q 236 24 218 47 q 244 10 242 15 q 238 0 244 3 q 224 1 228 0 q 171 23 199 4 q 131 65 143 42 q 92 144 107 101 q 72 231 78 186 q 60 372 60 300 z "},")":{"ha":378,"x_min":-14,"x_max":346,"o":"m -11 46 q -8 47 -10 46 q -6 47 -7 47 q 47 77 21 51 q 97 136 74 103 q 139 203 121 169 q 165 258 157 238 q 234 477 208 364 q 260 706 260 590 q 260 737 260 724 q 260 761 261 750 q 257 810 260 782 q 248 869 254 839 q 233 928 242 900 q 213 974 225 956 q 210 978 211 976 q 208 983 210 981 l 208 990 q 213 996 208 996 q 222 996 218 999 q 246 986 236 993 q 294 940 275 968 q 323 878 313 911 q 338 809 333 844 q 344 742 343 774 q 345 708 344 725 q 344 675 346 692 q 324 477 344 579 q 269 285 303 375 q 262 267 265 276 q 254 250 258 258 q 231 199 246 228 q 197 140 215 169 q 157 83 178 110 q 117 40 136 57 q 76 11 99 22 q 28 0 53 0 q -12 35 -1 7 q -14 39 -14 36 q -11 46 -14 44 z "},"@":{"ha":886,"x_min":69,"x_max":842,"o":"m 104 474 q 161 567 125 522 q 242 648 197 613 q 338 707 286 683 q 443 738 389 731 q 489 742 467 742 q 535 740 511 743 q 633 717 585 736 q 723 666 682 697 q 793 592 764 635 q 832 499 822 550 q 835 484 835 492 q 838 469 836 476 q 789 311 842 381 q 721 251 761 275 q 636 217 681 226 q 597 214 615 213 q 533 251 553 214 q 526 282 526 268 q 528 304 526 293 q 533 326 531 315 q 538 340 536 333 q 539 353 539 346 l 531 344 q 438 258 486 293 q 417 244 428 250 q 396 231 407 238 q 384 225 389 228 q 372 221 379 222 q 336 224 354 215 q 299 274 303 239 q 296 301 296 288 q 299 328 296 314 q 311 368 303 350 q 344 443 324 404 q 393 515 365 482 q 456 574 421 549 q 532 604 490 599 q 613 586 576 608 q 626 574 622 578 q 644 533 643 557 q 635 479 649 508 q 628 465 632 472 q 624 447 625 457 q 624 429 624 438 q 617 407 622 419 q 606 362 610 383 q 601 317 601 340 q 603 308 603 313 q 606 300 603 304 q 615 283 607 294 q 644 275 628 274 q 660 281 656 278 q 668 285 664 283 q 676 290 672 288 q 736 363 713 322 q 760 451 760 403 q 735 554 761 504 q 665 636 710 604 q 589 668 632 660 q 556 672 572 671 q 524 671 539 672 q 421 639 469 664 q 333 576 372 614 q 265 492 293 539 q 221 393 236 446 q 210 336 214 365 q 207 278 206 307 q 276 123 214 176 q 433 58 339 69 q 463 56 449 56 q 490 54 476 56 q 545 56 518 54 q 600 61 572 57 q 612 62 607 61 q 624 63 617 63 q 651 68 640 65 l 654 68 q 654 64 654 64 q 640 39 651 51 q 608 17 624 22 q 572 6 590 7 q 497 0 539 0 q 365 15 433 0 q 238 63 297 31 q 136 144 179 94 q 78 264 93 194 q 74 290 75 276 q 71 317 72 303 q 78 397 69 358 q 104 474 88 436 m 338 254 q 342 244 339 250 q 360 235 346 232 q 394 254 379 239 q 490 347 447 294 q 561 460 532 400 q 567 479 567 467 q 565 494 565 485 q 561 504 565 500 q 539 515 554 515 q 528 513 536 515 q 519 507 522 510 q 458 460 488 489 q 408 404 432 433 q 364 343 383 375 q 353 324 358 333 q 344 306 349 315 q 339 281 340 292 q 338 254 338 269 z "},"<":{"ha":525,"x_min":40,"x_max":503,"o":"m 40 207 q 44 233 42 219 q 51 261 46 247 q 61 278 57 272 q 76 290 65 283 q 165 328 121 311 q 254 363 210 346 q 306 379 281 371 q 357 397 331 388 q 378 404 364 399 l 410 414 q 423 418 417 417 q 436 422 429 419 q 446 425 442 424 q 456 426 450 426 q 467 419 464 426 q 468 403 468 414 q 460 360 468 383 q 433 333 451 342 q 410 322 421 326 q 358 303 383 311 q 306 285 332 294 q 243 265 274 274 q 181 244 213 256 l 168 240 q 169 238 168 238 q 193 232 181 235 q 217 226 206 229 q 321 203 269 215 q 425 178 372 192 q 450 172 438 175 q 476 165 463 168 l 489 161 q 497 153 496 160 q 498 149 497 150 q 499 144 499 147 q 488 83 503 114 q 478 71 485 78 q 467 68 474 67 q 439 76 453 72 q 411 83 425 81 q 269 128 344 106 q 124 164 193 151 q 90 169 107 167 q 57 172 74 172 l 56 172 q 44 181 47 172 q 40 207 40 189 z "},">":{"ha":514,"x_min":35,"x_max":497,"o":"m 39 151 l 39 157 q 49 167 40 165 l 61 171 q 108 183 85 178 q 156 194 132 189 q 256 217 206 206 q 354 240 306 229 q 368 243 363 243 q 368 246 368 246 q 357 251 363 250 q 244 286 300 268 q 133 326 188 304 q 99 341 115 332 q 76 368 83 350 q 72 380 74 375 q 71 390 71 385 q 69 410 69 397 q 71 424 69 419 q 74 429 71 426 q 79 432 75 432 l 88 432 q 96 429 90 432 q 128 419 113 424 q 161 410 144 415 q 201 396 181 403 q 243 382 222 389 q 352 343 299 363 q 458 297 406 324 q 483 269 476 289 q 492 243 489 258 q 496 214 496 228 q 496 200 497 206 q 493 189 494 194 q 490 182 493 188 q 483 179 488 179 q 434 174 458 178 q 386 164 410 169 q 312 146 349 156 q 239 125 275 136 q 159 101 199 113 q 79 76 119 89 q 74 75 76 75 q 69 74 72 75 q 60 76 64 72 q 58 78 58 78 q 56 79 57 78 l 51 88 q 39 151 35 118 z "},"=":{"ha":557,"x_min":56,"x_max":519,"o":"m 63 328 q 76 342 71 339 q 97 349 83 346 q 116 349 107 349 q 135 350 125 350 l 221 350 q 309 351 265 351 q 397 351 353 351 l 439 351 q 463 352 450 353 q 486 351 475 351 q 499 344 492 351 q 517 303 513 326 q 517 286 519 294 q 511 281 517 281 l 503 281 q 465 281 483 281 q 426 282 446 281 q 401 283 418 283 q 356 284 378 283 q 311 285 333 285 l 311 286 l 286 286 q 228 288 257 288 q 169 289 199 289 q 151 290 160 290 q 132 292 142 290 l 114 292 q 107 291 111 292 q 100 290 103 290 q 85 275 89 286 l 83 271 q 79 269 83 265 q 74 272 76 269 q 58 304 60 288 q 63 328 58 318 m 61 150 q 76 167 65 163 q 99 175 88 172 q 155 175 126 175 q 211 178 183 175 l 375 178 l 457 178 l 485 178 q 497 171 493 178 q 504 161 503 165 q 518 125 514 147 q 517 113 518 117 q 513 108 517 108 q 497 107 507 107 q 462 108 479 107 q 426 108 444 108 q 395 110 411 110 q 363 110 379 110 q 337 111 350 111 q 310 111 324 111 l 310 113 q 278 113 294 113 q 246 114 261 113 q 140 118 194 114 l 115 118 q 97 115 106 118 q 85 101 88 111 l 85 97 q 78 96 83 93 q 71 103 71 103 q 63 117 65 108 q 61 150 56 129 z "},":":{"ha":188,"x_min":33,"x_max":150,"o":"m 49 178 q 76 180 63 185 q 97 168 89 175 q 113 146 110 157 q 121 125 119 136 q 118 115 121 118 q 106 108 115 110 q 89 104 96 106 q 60 116 72 103 q 43 138 49 129 q 35 159 38 147 q 49 178 33 171 m 78 411 q 96 415 86 415 q 124 405 113 415 q 143 381 135 394 q 148 370 146 375 q 150 358 150 365 q 149 350 150 353 q 136 342 146 344 q 118 339 126 340 q 90 350 101 336 q 74 371 79 364 q 65 392 67 381 q 78 411 63 404 z "},";":{"ha":140,"x_min":0,"x_max":126,"o":"m 8 81 q 26 102 24 85 q 25 131 28 119 q 23 136 24 133 q 21 142 22 139 q 33 161 17 156 q 54 164 43 167 q 88 149 78 163 q 90 115 97 135 q 63 85 83 96 q 18 75 42 74 q 8 76 15 75 q 8 81 0 78 m 54 403 q 82 405 69 410 q 103 393 94 400 q 119 371 114 382 q 126 350 125 357 q 125 340 126 343 q 112 333 122 335 q 94 329 101 331 q 67 341 78 328 q 50 363 56 354 q 41 384 43 372 q 54 403 39 396 z "},"{":{"ha":285,"x_min":38,"x_max":336,"o":"m 40 242 q 56 322 43 283 q 83 399 69 361 q 90 446 92 425 q 83 482 89 467 q 69 507 76 497 q 61 521 63 517 q 50 557 51 539 l 50 564 q 51 578 50 569 q 63 585 53 588 q 65 583 64 583 q 67 582 65 583 q 113 588 92 572 q 142 628 135 603 q 151 676 149 651 q 157 725 154 700 q 165 774 161 749 q 172 824 169 799 q 180 869 176 847 q 190 914 183 892 q 226 978 201 950 q 289 1010 250 1007 q 324 989 311 1010 q 336 949 336 968 q 335 940 336 946 q 332 935 335 935 q 274 898 296 929 q 243 835 253 867 q 228 753 232 794 q 221 671 225 711 q 215 632 219 656 q 200 585 210 608 q 174 542 190 561 q 135 514 158 522 q 149 483 143 501 q 158 449 154 469 q 161 403 163 429 q 148 308 158 354 q 122 215 138 261 q 115 186 118 200 q 108 157 111 172 q 107 143 107 153 q 119 89 108 104 q 142 68 129 74 q 165 60 154 63 q 181 46 176 58 q 185 28 183 39 q 182 11 186 18 q 163 0 176 0 q 144 3 153 0 q 128 11 135 7 q 80 65 97 31 q 51 131 63 99 q 40 186 43 158 q 40 242 38 214 z "},"}":{"ha":310,"x_min":-4,"x_max":301,"o":"m 11 54 q 28 63 17 63 q 46 60 36 63 q 67 62 56 58 q 89 77 78 65 q 110 117 100 89 q 117 153 115 128 q 119 190 118 179 q 122 263 119 222 q 132 345 124 304 q 157 422 140 386 q 201 478 174 458 q 173 519 182 494 q 163 570 164 544 q 164 619 161 596 q 169 658 167 643 q 189 739 179 699 q 201 822 199 779 q 192 894 203 857 q 149 951 181 932 q 147 958 146 953 q 150 967 149 964 q 156 976 153 972 q 161 986 158 981 q 197 1008 178 1008 q 214 1004 206 1008 q 264 950 250 988 q 276 876 278 913 q 271 830 275 853 q 264 785 267 807 l 247 685 q 238 636 243 661 q 232 588 233 611 q 244 538 229 560 q 288 515 260 517 l 292 515 q 300 506 301 514 q 297 492 299 497 l 297 490 l 296 489 q 294 486 296 488 q 272 454 286 468 q 261 445 271 451 q 241 427 251 439 q 222 396 231 415 q 214 349 214 376 q 215 265 215 307 q 204 183 215 224 q 172 104 193 136 q 118 39 151 72 q 85 15 103 26 q 49 1 68 4 q 18 1 36 -1 q -3 22 0 4 q 1 39 -4 31 q 11 54 6 47 z "},"|":{"ha":260,"x_min":13,"x_max":240,"o":"m 24 86 q 31 126 26 106 q 38 165 35 146 l 56 269 q 88 453 71 361 q 121 636 104 544 q 153 819 138 728 q 192 1001 169 910 q 204 1002 193 1008 q 218 993 215 996 q 233 978 225 986 q 239 961 240 969 q 225 853 233 907 q 210 747 217 800 q 165 468 188 607 q 118 190 143 329 l 103 99 q 95 52 99 75 q 88 6 92 29 q 81 0 86 0 q 65 6 74 0 q 53 13 56 11 q 32 32 42 21 q 19 56 22 43 q 14 79 17 69 q 24 86 13 89 z "},"[":{"ha":331,"x_min":43,"x_max":300,"o":"m 46 104 q 53 158 49 132 q 60 211 57 183 q 71 297 65 254 q 81 383 76 340 q 85 422 83 403 q 90 461 88 442 q 94 490 93 476 q 97 518 94 504 q 100 548 99 533 q 103 578 101 563 q 107 609 106 593 q 110 640 108 625 q 112 656 111 647 q 114 671 113 664 q 117 705 115 688 q 119 739 118 722 q 123 774 122 757 q 126 810 124 792 l 135 901 q 135 921 135 911 q 138 942 136 931 q 139 965 139 953 q 140 988 139 976 q 142 996 140 993 q 146 1001 142 1000 q 153 1001 150 1001 q 174 997 164 999 q 196 994 185 996 q 219 992 207 993 q 242 994 231 992 q 258 996 247 996 q 271 992 265 999 q 300 932 296 967 q 299 917 300 922 q 293 911 297 913 q 289 910 290 911 q 286 910 288 910 q 265 907 275 908 q 244 907 256 906 l 225 907 q 208 910 217 908 q 192 914 200 911 l 189 914 q 183 911 183 917 q 182 894 182 903 q 181 878 182 886 q 168 700 176 792 q 167 683 167 692 q 165 664 167 674 l 161 618 l 157 572 q 156 556 157 564 q 154 539 156 547 q 151 503 153 521 q 149 469 150 486 q 144 436 146 453 q 142 403 143 419 q 138 372 139 388 q 135 340 138 356 q 132 311 133 325 q 129 283 131 297 q 125 253 126 268 q 122 224 124 239 q 119 197 119 210 q 115 171 118 185 q 113 146 114 158 q 108 121 111 133 l 108 114 q 113 110 108 110 l 122 110 q 161 108 142 110 q 200 100 181 107 q 204 99 203 99 q 208 97 206 99 q 240 68 229 88 q 254 28 250 49 q 256 13 256 24 q 255 10 256 11 q 254 6 254 8 q 243 0 249 -1 q 201 11 221 7 q 158 15 182 15 l 111 15 q 100 16 106 15 q 89 17 94 17 q 68 32 74 17 q 47 76 54 50 q 46 104 43 88 z "},"]":{"ha":311,"x_min":0,"x_max":281,"o":"m 3 32 q 6 39 3 36 q 29 79 15 65 q 47 94 36 90 q 67 101 53 99 q 119 103 90 106 q 138 101 129 101 q 154 99 146 100 q 160 97 156 97 l 163 100 l 163 108 q 175 332 167 218 q 176 355 176 343 q 178 379 176 367 l 183 446 q 185 471 185 458 q 186 494 185 483 q 188 519 188 507 q 190 543 189 531 q 192 560 192 551 q 193 578 193 568 q 195 599 194 589 q 197 621 196 610 q 199 642 199 632 q 201 664 200 653 q 203 681 203 672 q 204 697 203 689 q 208 732 207 715 q 211 765 208 749 q 215 809 214 788 q 219 854 217 831 q 222 877 221 865 q 224 901 222 889 q 224 904 224 901 q 221 907 226 907 q 210 906 215 907 q 203 906 206 906 q 119 919 157 906 q 114 931 113 924 q 117 947 114 936 q 143 989 124 968 q 156 999 147 993 q 167 1000 164 1001 q 192 993 183 994 q 210 989 201 990 q 231 988 219 988 l 268 988 l 271 988 q 281 976 281 988 q 278 954 281 968 l 274 917 q 272 897 272 906 q 271 876 272 888 q 269 855 269 865 q 267 833 268 844 q 265 817 265 825 q 264 800 264 808 l 256 704 q 254 683 254 693 q 253 663 254 674 q 251 646 251 654 q 250 629 251 638 q 249 602 249 615 q 247 575 249 589 q 245 542 246 558 q 243 511 244 526 q 242 507 243 508 q 242 503 242 506 q 239 444 240 474 q 236 388 238 415 q 230 279 232 333 q 225 171 228 225 q 223 126 224 149 q 221 82 222 104 q 211 43 221 65 q 186 11 200 24 l 183 8 q 160 0 172 -3 q 141 3 150 3 q 122 7 132 4 q 102 10 111 8 q 82 13 93 11 q 31 13 57 17 q 21 11 25 11 q 11 10 17 11 q 3 17 3 7 q 3 32 0 24 z "},"…":{"ha":579,"x_min":51,"x_max":526,"o":"m 67 74 q 94 76 82 81 q 117 64 107 71 q 126 53 122 58 q 132 42 129 47 q 137 31 135 36 q 139 21 139 26 q 138 11 139 14 q 125 3 135 6 q 107 0 115 1 q 79 11 90 -3 q 63 33 68 25 q 53 55 56 43 q 67 74 51 67 m 260 74 q 288 76 275 81 q 310 64 300 71 q 319 53 315 58 q 325 42 322 47 q 330 31 328 36 q 332 21 332 26 q 331 11 332 14 q 318 3 328 6 q 300 0 308 1 q 272 11 283 -3 q 256 33 261 25 q 247 55 249 43 q 260 74 244 67 m 453 74 q 481 76 468 81 q 503 64 493 71 q 512 53 508 58 q 518 42 515 47 q 523 31 521 36 q 525 21 525 26 q 524 11 525 14 q 511 3 521 6 q 493 0 501 1 q 465 11 476 -3 q 449 33 454 25 q 440 55 442 43 q 453 74 438 67 z "},"¡":{"ha":243,"x_min":15,"x_max":228,"o":"m 29 174 q 36 211 32 193 q 43 249 40 229 q 80 451 63 350 q 113 654 97 551 q 117 688 115 671 q 122 721 119 704 q 127 752 125 736 q 133 783 129 768 q 140 806 136 794 q 151 828 143 818 q 165 828 158 835 q 178 810 172 822 q 189 787 185 799 q 193 771 193 775 q 195 674 200 722 q 183 578 190 626 q 140 304 165 439 q 83 33 114 169 q 78 15 81 24 q 65 1 75 6 q 58 1 63 -1 q 50 7 53 4 q 38 25 43 14 q 18 82 22 49 q 20 128 15 106 q 29 174 25 151 m 143 971 q 156 978 146 976 q 172 982 165 981 q 201 971 189 985 q 218 949 213 957 q 226 927 224 939 q 213 908 228 915 q 185 906 199 901 q 164 918 172 911 q 149 940 153 929 q 140 961 143 951 q 143 971 140 968 z "},"¿":{"ha":465,"x_min":28,"x_max":449,"o":"m 40 383 q 63 460 47 424 q 103 531 79 497 q 153 592 126 563 q 206 650 179 621 q 262 731 235 683 q 294 824 289 778 q 296 833 296 828 q 297 843 296 838 l 297 854 q 298 859 297 857 q 299 864 299 861 q 302 874 299 869 q 313 876 306 879 q 331 864 319 875 q 353 827 343 849 q 365 788 363 806 q 369 744 368 765 q 365 701 369 724 q 313 578 351 632 q 228 474 274 525 q 147 370 182 424 q 107 246 111 317 l 107 243 l 107 242 l 107 239 l 107 242 l 107 236 l 107 221 q 108 213 107 217 q 108 203 108 210 l 113 186 q 113 182 113 183 q 114 178 114 181 l 117 174 q 119 167 117 172 q 125 160 122 164 q 129 155 128 157 q 133 150 131 153 l 138 146 q 147 140 142 143 q 156 133 151 136 q 219 119 185 119 q 281 135 253 121 q 330 172 308 149 q 365 224 351 194 q 381 283 378 253 q 381 289 381 286 q 382 294 382 292 q 381 290 381 285 q 382 297 382 294 q 379 301 382 296 q 349 308 363 308 q 326 303 338 307 q 304 292 314 300 q 292 276 300 288 q 285 272 290 272 q 269 281 276 272 q 256 302 263 290 q 246 326 250 314 q 240 346 242 339 q 239 360 239 353 q 242 375 239 368 q 258 400 249 390 q 283 420 271 415 q 315 425 296 425 q 358 411 339 425 q 393 377 378 397 q 418 334 408 357 q 433 292 428 311 q 443 186 449 236 q 424 119 439 151 q 387 60 410 86 q 334 19 364 35 q 267 0 304 3 q 151 38 200 -4 q 90 114 114 69 q 54 206 67 158 q 40 383 28 294 m 306 1021 q 318 1029 308 1026 q 336 1032 328 1032 q 363 1022 351 1035 q 381 1000 375 1008 q 389 978 388 990 q 375 960 390 967 q 348 957 361 953 q 326 969 335 961 q 312 989 319 976 q 304 1013 304 1001 q 306 1021 303 1015 m 118 169 q 120 165 119 167 q 118 169 121 163 l 118 169 m 117 172 q 118 169 118 171 l 117 172 z "},"©":{"ha":822,"x_min":25,"x_max":793,"o":"m 189 892 q 322 977 251 947 q 460 1007 392 1007 q 597 976 535 1007 q 702 894 658 946 q 769 777 746 843 q 793 640 793 711 q 762 466 793 551 q 675 313 731 381 q 542 205 619 246 q 369 164 464 164 q 230 191 293 164 q 121 265 167 218 q 50 375 75 311 q 25 513 25 439 q 67 720 25 619 q 189 892 108 821 m 119 438 q 199 287 139 347 q 356 226 260 226 q 503 265 438 226 q 614 366 568 304 q 684 504 660 428 q 708 654 708 581 q 692 759 708 708 q 647 849 676 810 q 572 911 617 888 q 468 935 526 935 q 403 927 436 935 q 338 903 369 919 q 257 849 293 882 q 193 774 221 815 q 147 685 165 732 q 118 592 128 639 q 114 558 115 578 q 113 515 113 538 q 114 473 113 493 q 119 438 115 453 m 214 488 q 273 646 225 571 q 385 774 321 721 q 433 804 407 793 q 483 815 460 815 q 539 794 517 815 q 564 740 561 772 q 560 692 567 717 q 546 647 554 667 q 535 626 542 639 q 519 600 529 613 q 499 579 510 588 q 476 571 489 571 q 464 576 469 571 q 485 642 475 604 q 496 682 490 661 q 501 703 499 693 q 507 725 504 714 l 507 726 q 511 749 510 736 q 508 769 513 761 q 499 778 504 778 q 493 779 496 779 q 469 771 481 779 q 446 756 457 763 q 443 753 446 753 q 386 698 414 731 q 335 628 358 665 q 294 551 311 590 q 269 475 276 511 q 268 436 267 460 q 281 400 269 413 q 297 392 288 392 l 301 392 q 399 418 346 392 q 518 503 451 444 q 530 508 521 506 q 542 510 539 510 q 549 506 549 510 q 549 499 553 503 q 547 497 547 497 q 546 494 547 496 q 545 492 546 493 q 544 490 544 492 q 541 486 542 488 q 539 483 540 485 q 486 424 519 456 q 421 376 453 392 q 380 356 404 365 q 326 347 356 347 q 271 360 296 347 q 231 401 246 374 q 214 488 207 439 z "},"®":{"ha":826,"x_min":28,"x_max":796,"o":"m 29 504 q 40 622 29 569 q 78 725 51 674 q 131 818 106 783 q 192 885 156 853 q 324 969 254 939 q 464 999 394 999 q 602 968 540 999 q 707 887 664 938 q 773 769 750 836 q 796 632 796 703 q 765 458 796 543 q 677 305 733 372 q 543 197 621 238 q 372 156 465 156 q 256 174 311 156 q 156 228 200 193 q 80 313 111 264 q 36 422 49 363 q 29 462 31 447 q 29 504 28 476 m 122 429 q 202 278 142 338 q 360 219 263 219 q 377 219 368 219 q 396 222 386 219 q 529 274 471 233 q 628 374 588 315 q 690 504 669 433 q 711 646 711 575 q 696 751 711 700 q 650 841 681 801 q 575 904 619 881 q 472 928 531 928 q 342 896 408 928 q 293 868 314 882 q 254 837 272 854 q 221 798 236 819 q 188 749 206 776 q 149 672 167 717 q 121 583 131 626 q 117 549 118 569 q 115 508 115 529 q 117 465 115 486 q 122 429 119 444 m 251 656 q 263 697 251 679 q 292 726 274 714 q 331 747 310 739 q 371 760 351 756 q 379 761 376 760 q 396 763 388 763 q 413 763 404 763 q 556 693 510 763 q 572 615 582 657 q 528 559 563 574 q 454 544 493 544 l 453 544 l 440 544 q 448 531 444 538 q 456 518 451 525 q 467 497 458 511 q 488 466 475 482 q 520 435 501 450 q 563 411 539 419 l 561 404 q 556 399 558 401 q 547 393 550 396 q 542 392 543 393 l 529 392 q 519 392 524 392 q 510 393 515 393 q 460 424 478 400 q 432 474 443 447 q 422 494 428 481 l 421 500 q 415 513 418 504 q 413 518 413 515 l 410 522 l 408 525 q 404 533 408 529 q 399 543 403 540 q 376 506 388 525 q 356 468 365 488 q 350 455 353 461 q 344 442 347 449 q 341 428 342 435 q 338 415 340 422 q 322 401 333 406 q 301 413 310 396 q 294 438 294 424 q 315 504 294 465 q 350 565 335 543 q 343 571 347 567 q 336 597 328 585 q 360 608 340 608 q 367 607 364 607 q 374 604 371 607 q 401 653 390 632 q 414 681 411 674 q 415 692 414 688 q 415 694 415 693 q 413 700 414 696 l 410 711 l 432 711 l 433 710 q 444 701 440 707 q 456 679 451 693 q 451 631 461 656 q 426 588 440 607 q 468 592 447 588 q 504 609 488 599 q 525 643 521 619 q 526 647 525 646 q 526 650 526 647 q 513 693 529 678 q 472 717 497 711 q 436 722 447 722 q 425 724 432 724 q 388 720 408 724 q 350 708 368 717 q 317 688 332 700 q 297 656 303 675 q 299 632 292 639 l 303 632 q 308 635 306 632 q 318 650 315 639 q 331 663 321 661 q 353 646 346 663 q 351 624 356 635 q 340 607 347 614 q 324 599 335 601 q 306 596 313 596 q 269 610 283 599 q 251 656 250 628 z "},"™":{"ha":425,"x_min":17,"x_max":393,"o":"m 22 979 q 24 983 24 982 q 26 986 25 983 q 33 989 29 989 q 47 992 42 992 q 60 994 54 993 q 74 996 67 994 q 101 997 88 997 q 128 997 114 997 q 155 997 142 997 q 183 994 168 996 q 207 992 197 992 q 215 990 211 990 q 221 989 218 990 q 239 975 229 988 q 248 960 244 968 q 254 946 251 953 q 256 938 256 943 q 258 926 257 932 q 276 901 268 914 q 290 875 283 889 q 320 925 306 900 q 350 974 335 950 q 363 974 354 982 q 374 964 371 967 q 385 942 381 954 q 390 919 390 931 q 392 869 392 894 q 392 818 392 843 l 393 768 l 393 746 q 392 734 393 740 q 385 726 392 728 q 374 730 378 725 q 367 739 369 735 q 350 774 353 756 q 347 814 347 793 l 347 840 q 333 816 340 828 q 318 792 325 804 q 309 790 315 786 q 300 796 303 793 q 281 829 288 808 q 278 836 281 831 q 275 842 276 839 q 272 850 274 846 q 267 861 269 853 q 265 864 265 863 q 264 866 264 865 q 263 868 264 867 q 251 888 260 874 q 251 859 251 872 q 249 831 250 846 q 242 785 246 807 q 231 740 238 763 q 217 735 226 728 q 204 749 208 743 q 197 763 200 756 q 190 779 193 771 q 190 788 190 783 q 190 794 189 792 q 199 831 194 813 q 207 867 204 849 q 209 885 208 876 q 211 903 210 893 q 212 908 211 904 q 213 918 213 913 q 189 922 201 921 q 164 925 176 924 q 163 899 165 913 q 158 874 161 886 l 150 828 q 142 781 146 804 q 132 733 139 757 q 121 726 129 722 q 107 736 113 729 q 86 786 89 757 q 83 803 85 793 q 83 821 81 813 q 88 826 83 825 l 92 826 q 98 856 94 842 q 106 886 101 871 q 110 906 108 897 q 114 926 111 915 l 96 926 q 71 925 88 925 l 58 925 q 51 927 54 925 q 42 931 47 929 q 30 941 35 933 q 22 954 25 949 q 18 967 19 960 q 22 979 17 975 z "},"¦":{"ha":228,"x_min":40,"x_max":188,"o":"m 40 64 q 40 84 40 75 q 42 103 40 93 l 46 157 l 54 253 q 56 269 56 261 q 57 286 56 278 l 61 324 q 63 344 63 335 q 64 364 64 353 l 68 401 l 72 439 q 74 449 74 444 q 75 458 75 453 q 85 467 76 464 q 140 449 118 471 q 150 431 149 443 q 153 417 153 422 l 153 396 q 152 379 153 388 q 151 363 151 371 q 149 338 150 350 q 147 314 149 326 q 145 292 146 303 q 143 269 144 281 q 139 234 140 251 q 136 199 138 217 q 135 176 136 188 q 133 154 135 165 q 129 90 131 122 q 125 26 128 58 q 122 10 125 21 q 111 0 122 3 q 85 6 100 0 q 61 18 71 11 q 44 36 50 24 q 40 54 42 47 l 40 64 m 76 618 q 89 771 81 693 l 92 808 q 96 847 94 828 q 100 886 97 867 q 101 906 100 897 q 103 925 103 915 q 105 942 104 933 q 107 960 106 951 q 110 981 110 974 q 111 983 111 982 q 113 986 111 985 q 117 990 113 989 q 119 991 118 990 q 121 992 119 992 q 158 986 140 994 q 165 981 161 983 q 172 976 169 979 q 188 949 185 967 l 188 922 l 188 915 q 186 882 188 899 q 183 847 185 865 l 179 814 q 178 795 179 804 q 176 776 178 786 q 173 736 174 757 q 169 696 172 715 q 167 674 168 685 q 167 653 167 664 q 165 619 165 636 q 163 585 164 601 q 162 565 163 575 q 160 546 161 556 q 157 533 160 542 q 149 525 157 528 q 131 526 143 524 q 114 533 122 529 q 99 540 106 536 q 76 572 81 550 q 76 578 76 575 q 75 585 75 582 q 75 601 75 593 q 76 618 75 610 z "},"½":{"ha":553,"x_min":22,"x_max":536,"o":"m 24 74 q 26 87 25 81 q 28 100 26 93 q 38 104 28 111 q 58 143 49 124 q 78 182 68 163 q 104 232 92 207 q 131 282 117 257 q 222 460 175 372 q 314 638 268 549 q 406 815 360 726 q 503 990 451 903 q 515 987 507 997 q 524 974 522 976 q 533 955 529 965 q 532 935 536 944 q 483 830 508 882 q 432 725 457 778 q 342 544 388 633 q 250 364 296 456 l 158 185 q 135 139 147 161 q 113 94 124 117 q 90 49 101 71 q 67 4 79 26 q 60 0 64 -1 q 51 6 56 1 q 44 15 47 10 q 39 21 40 19 q 27 47 32 32 q 24 74 22 61 m 199 50 q 200 58 197 56 q 204 63 203 61 q 240 99 224 85 l 243 101 l 247 106 q 286 140 267 121 q 319 181 306 158 q 328 214 332 203 q 321 222 328 219 q 306 219 311 222 q 294 210 301 217 q 290 202 293 207 q 290 190 288 197 q 297 185 292 188 q 306 179 304 181 q 306 171 310 175 q 293 167 300 167 q 269 174 282 167 q 254 192 257 181 q 263 222 251 210 q 287 240 272 233 q 317 249 301 247 l 318 249 q 343 242 332 249 q 358 218 357 233 q 356 189 360 203 q 320 125 344 153 q 271 72 296 97 q 268 69 268 72 l 275 69 l 279 69 q 293 69 286 69 q 307 67 300 68 q 319 64 311 67 q 349 54 338 61 q 353 49 351 51 q 357 44 356 47 l 357 40 q 350 36 357 39 q 341 37 344 36 q 333 39 338 38 l 332 39 q 328 40 331 40 q 317 43 322 43 l 314 43 l 311 43 q 306 44 308 43 q 300 44 303 44 l 297 44 l 294 44 l 290 44 q 285 44 288 44 q 279 43 282 43 q 267 42 272 42 q 257 39 263 42 q 244 35 253 39 q 231 32 236 32 l 229 32 q 210 38 219 32 q 204 40 207 38 q 199 50 196 46 m 210 803 q 216 809 210 808 q 225 811 222 810 l 226 811 l 236 811 l 239 811 l 243 811 q 243 825 242 819 q 260 863 250 844 q 279 901 269 882 q 288 920 283 911 q 297 938 293 929 q 300 944 300 943 q 306 956 304 950 q 285 949 299 949 q 280 949 282 949 q 275 950 278 950 l 267 951 l 274 956 q 285 965 281 963 q 299 976 292 971 q 313 988 306 982 q 328 993 318 993 q 340 989 336 993 q 347 963 351 982 q 341 943 344 953 q 332 922 338 933 q 315 887 324 904 q 299 853 307 869 q 291 838 294 846 q 283 821 288 829 q 279 814 281 815 q 306 804 294 811 q 315 794 314 800 q 314 790 315 792 q 308 786 313 786 l 276 786 l 271 786 q 249 787 260 786 q 226 790 238 788 q 213 797 221 792 q 210 803 208 801 z "},"¼":{"ha":557,"x_min":21,"x_max":535,"o":"m 22 75 q 24 88 24 82 q 26 101 25 94 q 36 106 26 113 q 57 144 47 125 q 76 183 67 164 q 103 234 90 208 q 129 285 115 260 q 221 463 175 375 q 313 642 267 551 q 406 819 360 731 q 501 994 451 907 q 514 992 506 1003 q 524 979 522 982 q 531 960 528 971 q 531 940 535 949 q 482 834 507 886 q 431 729 457 782 q 295 457 363 592 q 158 186 228 322 q 134 140 146 163 q 111 94 122 118 q 89 49 100 72 q 65 4 78 26 q 50 6 60 -6 q 38 22 40 18 q 26 47 31 33 q 22 75 21 61 m 160 103 l 164 107 q 192 133 179 119 q 213 167 206 147 q 214 171 213 169 q 219 185 217 178 q 219 200 222 193 q 214 208 214 204 q 219 213 214 211 q 253 186 249 213 q 251 167 254 175 q 246 153 249 158 q 222 115 238 135 q 213 104 219 111 l 224 104 q 238 106 231 106 q 251 107 246 107 q 261 115 256 107 l 264 119 q 283 150 274 135 q 303 182 292 165 l 319 208 l 322 206 q 333 180 333 192 q 328 157 332 168 q 311 121 321 138 q 292 88 301 104 l 283 75 l 279 67 q 253 15 263 40 l 253 13 q 242 0 250 0 q 238 1 239 0 q 227 7 232 3 q 222 22 222 11 q 226 41 224 32 q 232 58 229 50 q 235 65 235 64 l 239 74 q 244 88 244 82 q 219 83 232 86 q 194 78 207 81 q 183 75 189 76 q 172 72 178 74 q 170 72 171 72 q 168 71 169 71 q 163 70 165 71 q 158 69 161 69 q 147 76 151 69 q 147 92 142 85 q 160 103 153 99 m 208 807 q 211 811 208 811 q 224 815 218 815 l 225 815 l 236 815 l 239 815 l 242 815 q 242 829 240 824 q 259 868 250 849 q 278 907 268 888 q 288 924 283 915 q 296 943 292 933 q 298 946 297 944 q 300 949 299 947 q 306 961 303 957 q 283 954 296 954 l 274 954 l 267 956 l 272 961 q 278 965 275 964 q 283 969 281 967 q 297 981 290 976 q 311 993 304 986 q 328 997 318 997 q 339 994 333 997 q 346 968 350 989 q 331 926 342 953 q 315 891 324 908 q 297 857 306 874 q 282 826 290 842 q 279 818 279 821 q 304 808 293 815 q 314 799 314 804 q 314 794 314 799 q 307 790 313 790 l 275 790 l 269 790 q 248 791 258 790 q 226 794 238 792 q 213 801 218 796 q 208 807 208 804 z "},"¾":{"ha":567,"x_min":22,"x_max":543,"o":"m 24 75 l 28 100 q 39 104 28 113 q 58 143 49 124 q 79 182 68 163 q 105 232 92 207 q 132 282 118 257 q 224 459 178 371 q 318 636 271 547 q 411 813 365 725 q 508 986 457 900 q 521 984 513 994 q 531 971 529 974 q 540 951 536 963 q 539 932 543 940 q 489 828 515 879 q 436 724 463 776 q 345 543 392 632 q 253 364 299 454 l 161 185 q 138 139 150 161 q 114 94 125 117 q 92 49 103 71 q 67 4 81 26 q 51 6 61 -6 q 39 22 42 18 q 27 47 32 33 q 24 75 22 61 m 189 771 q 245 785 222 771 q 292 817 268 799 q 294 821 294 819 l 293 822 l 290 822 q 276 824 283 824 q 263 825 269 825 q 236 843 243 825 q 238 859 232 853 q 247 868 243 865 q 262 878 254 874 q 276 888 269 882 q 298 901 288 894 q 317 915 308 907 q 319 922 321 919 q 313 926 319 926 q 291 922 303 926 q 276 914 279 917 q 265 900 263 907 l 265 900 q 266 897 265 899 q 265 893 267 896 q 257 889 264 889 q 251 890 253 889 q 235 894 244 890 q 222 906 226 899 q 221 918 218 911 q 240 935 226 929 q 289 950 260 944 q 304 951 294 951 q 343 935 333 951 q 348 911 350 924 q 339 890 346 899 q 321 872 331 879 q 300 856 311 864 q 298 854 299 854 q 296 853 297 854 q 317 840 308 849 q 325 817 326 832 q 315 790 325 803 q 291 767 306 776 q 260 752 276 758 q 231 744 243 746 q 222 743 228 743 q 186 765 199 743 l 182 769 l 189 771 m 221 101 q 226 106 224 103 q 255 132 242 118 q 275 165 268 146 q 276 168 276 168 q 282 183 279 175 q 282 199 285 192 q 278 206 275 203 q 282 210 278 210 q 289 211 283 211 q 308 202 300 211 q 317 183 315 193 q 315 165 318 174 q 308 151 311 157 q 286 115 300 133 q 281 109 283 113 q 275 103 278 106 q 286 104 282 103 q 302 105 294 104 q 315 106 310 106 q 325 115 321 107 q 326 118 326 117 q 347 149 338 133 q 367 179 356 164 l 383 207 l 386 203 q 397 178 397 190 q 392 156 396 167 q 375 119 385 136 q 356 86 365 103 l 347 74 l 343 67 q 329 42 336 54 q 317 15 322 29 q 316 13 317 14 q 315 11 315 13 q 313 4 314 8 q 304 0 311 0 q 300 1 301 0 q 286 22 286 4 q 296 57 286 38 q 299 65 296 60 l 303 74 q 306 80 304 76 q 307 86 307 83 q 257 76 286 86 q 246 74 251 75 q 233 71 240 74 l 231 71 q 221 69 228 69 q 210 75 214 69 q 209 91 203 85 q 221 101 215 97 z "},"‰":{"ha":644,"x_min":19,"x_max":618,"o":"m 21 74 l 25 99 q 35 103 25 110 q 56 141 46 122 q 76 179 65 160 q 102 229 89 204 q 128 279 115 254 q 220 455 174 367 q 313 631 267 543 q 406 805 360 718 q 503 978 451 892 q 515 975 507 985 q 525 963 522 965 q 533 943 529 954 q 532 924 536 932 q 483 819 508 871 q 431 717 457 768 q 340 538 386 626 q 249 360 294 450 q 203 271 225 315 q 157 182 181 226 q 134 138 146 160 q 111 93 122 115 q 88 47 100 69 q 64 4 76 25 q 57 0 61 -1 q 49 6 53 1 q 41 15 44 10 q 36 21 38 19 q 24 46 29 32 q 21 74 19 60 m 169 853 q 185 897 175 875 q 211 938 196 919 q 247 969 226 957 q 294 981 268 981 q 315 978 301 981 q 342 969 329 976 q 361 950 356 961 q 369 931 367 939 q 371 922 371 926 q 372 915 371 918 q 374 851 378 885 q 360 802 371 829 q 334 752 350 775 q 296 714 318 729 q 247 699 274 699 l 238 699 q 188 723 206 703 q 164 765 171 743 q 161 811 158 789 q 169 853 164 833 m 178 154 q 194 199 183 176 q 219 240 204 221 q 256 270 235 258 q 303 282 276 282 q 324 279 310 282 q 350 271 338 278 q 372 247 363 263 q 381 217 381 232 q 382 153 386 186 q 369 103 379 131 q 344 53 360 76 q 306 15 328 31 q 257 0 285 0 l 246 0 q 197 24 214 4 q 174 67 179 44 q 169 113 167 90 q 178 154 172 135 m 410 154 q 426 199 415 176 q 451 240 436 221 q 488 270 467 258 q 535 282 508 282 q 556 279 542 282 q 582 271 569 278 q 603 247 594 263 q 613 217 613 232 q 614 153 618 186 q 600 99 610 126 q 573 49 590 71 q 532 14 556 28 q 478 0 508 0 q 428 24 446 4 q 406 67 411 44 q 401 113 399 90 q 410 154 404 135 m 238 786 l 238 779 q 240 751 238 768 q 253 732 242 735 q 293 756 282 732 q 331 808 315 778 q 346 883 346 846 l 346 888 q 341 926 346 903 q 314 949 336 949 q 291 935 307 949 q 254 872 275 922 l 254 871 q 238 786 235 826 m 246 88 l 246 81 q 248 53 246 69 q 261 33 250 36 q 278 35 274 33 q 294 49 283 38 l 303 57 q 303 58 303 58 q 304 60 304 58 q 339 110 325 83 q 354 185 354 147 l 354 189 q 349 227 354 204 q 322 250 344 250 q 299 237 315 250 q 263 174 283 224 l 263 172 q 246 88 243 128 m 478 88 l 478 81 q 480 53 478 69 q 493 33 482 36 q 510 35 506 33 q 526 49 515 38 l 535 57 q 535 58 535 58 q 536 60 536 58 q 571 110 557 83 q 586 185 586 147 l 586 189 q 581 227 586 204 q 554 250 576 250 q 531 237 547 250 q 494 174 515 224 l 494 172 q 478 88 475 128 z "},"§":{"ha":660,"x_min":-7,"x_max":704,"o":"m 4 194 q 57 258 18 235 q 108 269 81 274 q 119 267 111 269 q 122 266 121 267 q 125 265 122 265 q 135 229 146 253 q 124 217 132 225 q 94 206 110 206 q 76 196 83 206 q 63 167 65 185 q 91 92 63 122 q 161 54 119 63 q 261 61 215 43 q 280 69 271 65 q 296 81 289 74 q 340 171 340 114 q 303 258 343 224 q 288 270 296 265 q 274 281 281 275 q 253 292 263 286 q 232 301 243 297 q 207 312 219 307 q 183 322 194 317 q 161 333 172 328 q 139 344 150 338 q 122 353 131 349 q 107 363 114 357 q 90 377 99 369 q 75 394 82 385 q 61 422 65 410 q 63 483 51 451 q 78 513 69 501 q 97 539 86 525 q 106 549 101 544 q 115 558 111 553 q 204 633 158 601 q 213 639 210 636 l 213 642 l 207 647 q 192 664 196 658 q 179 750 165 706 q 192 776 183 763 q 208 800 200 789 q 219 813 214 807 q 231 825 225 818 q 361 926 290 883 q 511 993 432 969 q 534 997 522 996 q 557 999 546 999 q 660 967 615 1001 q 704 879 704 933 q 629 756 690 806 q 615 746 624 750 q 596 744 606 742 q 578 763 581 747 q 579 782 576 769 q 599 814 586 799 q 624 842 611 829 q 638 863 631 849 q 646 883 644 871 q 647 889 647 885 q 632 913 649 906 q 601 917 618 917 q 576 916 589 918 q 550 911 564 914 q 478 884 514 901 q 413 846 443 867 q 335 796 378 826 q 264 738 292 765 q 259 731 261 735 q 254 725 257 728 q 247 717 249 719 q 247 696 240 707 q 252 691 250 693 q 257 688 254 689 q 277 676 264 682 q 299 667 290 669 q 340 650 319 658 q 381 632 361 642 q 433 604 406 621 q 485 566 461 588 q 524 519 508 544 q 544 463 540 493 q 521 358 556 403 q 501 335 513 346 q 478 315 490 325 q 440 295 458 304 q 400 281 421 286 q 392 278 394 278 q 390 274 389 275 q 414 238 404 260 q 428 196 424 215 q 426 138 432 165 q 401 86 421 110 q 310 21 365 42 q 199 0 254 0 q 138 7 169 0 q 80 28 107 14 q 32 65 53 42 q 4 118 11 88 q 4 194 -7 161 m 129 428 q 135 422 132 425 q 142 417 138 419 q 157 408 146 414 q 169 403 164 406 q 182 397 175 400 q 257 366 221 382 q 328 328 293 350 q 340 321 339 321 q 356 324 342 321 q 426 359 393 329 q 458 429 458 389 q 433 513 458 486 q 364 564 408 539 q 345 572 354 568 q 326 579 336 576 q 318 584 322 582 q 310 586 314 586 l 293 578 q 185 503 238 543 q 163 483 174 493 q 142 463 151 474 q 129 447 138 458 q 129 428 122 439 z "},"¶":{"ha":668,"x_min":64,"x_max":683,"o":"m 113 815 q 215 942 149 890 q 365 1008 282 994 q 384 1010 376 1010 q 401 1011 392 1011 q 426 1009 411 1011 q 464 1004 440 1007 q 519 995 486 1001 q 583 977 551 989 q 640 949 614 965 q 676 907 667 932 q 679 875 683 892 q 651 807 675 858 q 628 755 640 782 q 611 714 617 728 q 586 659 604 700 q 549 574 568 618 q 498 461 519 510 q 461 372 476 413 q 434 297 446 332 q 411 225 422 261 q 394 147 401 189 q 386 85 386 104 q 394 18 389 35 q 388 -1 403 -1 q 346 17 364 -1 q 322 58 328 36 q 316 97 317 78 q 318 149 315 115 q 365 353 325 239 q 418 502 389 428 q 485 644 447 576 q 500 674 490 654 q 518 711 510 693 q 544 764 526 729 q 579 831 563 799 q 608 885 596 863 q 618 910 619 908 q 606 915 618 911 q 579 924 594 919 q 548 933 564 929 q 524 938 532 936 q 511 931 513 939 q 506 911 510 924 q 496 888 501 899 q 487 870 493 883 q 474 842 481 857 q 433 755 456 800 q 389 669 411 710 q 376 645 382 657 q 369 631 371 633 q 343 576 363 617 q 299 482 324 536 q 248 370 267 415 q 221 294 229 325 l 211 265 q 186 54 164 128 q 190 35 190 39 q 186 28 190 31 q 166 26 179 24 q 142 36 153 29 q 117 285 64 92 q 142 365 128 322 q 168 435 157 408 q 174 451 171 444 q 178 461 178 458 q 169 475 181 467 q 138 510 157 486 q 110 549 119 533 q 80 674 79 601 q 113 815 81 746 z "},"†":{"ha":489,"x_min":24,"x_max":488,"o":"m 31 749 q 46 768 33 761 q 67 774 56 774 q 82 776 74 775 q 99 776 90 776 l 192 776 q 211 776 201 776 q 231 778 221 776 q 252 889 242 833 q 276 1001 263 944 q 289 1002 278 1008 q 303 993 300 996 q 318 978 311 986 q 324 961 325 969 q 313 869 319 914 q 299 778 306 824 l 365 778 l 408 778 q 432 778 419 779 q 456 778 444 778 q 467 771 464 775 q 485 736 478 758 q 486 717 488 724 l 486 711 q 482 708 483 708 q 472 707 479 707 q 437 708 454 707 q 401 708 419 708 q 373 709 386 708 q 344 710 360 710 q 317 711 331 711 q 289 711 303 711 q 262 544 275 628 q 233 376 249 460 q 188 99 213 233 q 181 52 183 75 q 172 6 178 29 q 165 0 171 0 q 149 6 158 0 q 138 13 140 11 q 117 32 126 21 q 106 56 108 43 q 100 79 103 65 q 108 86 96 89 q 115 126 111 106 q 124 165 119 146 q 163 401 143 283 q 206 636 183 518 q 213 675 208 656 q 219 714 217 694 q 178 715 199 714 q 139 715 158 715 q 120 717 129 717 q 101 718 111 717 l 82 718 q 67 715 78 718 q 54 701 58 711 q 53 697 54 699 q 49 696 53 692 q 44 699 44 696 q 31 749 24 719 z "},"‡":{"ha":567,"x_min":15,"x_max":551,"o":"m 24 232 q 39 251 26 244 q 60 258 46 256 q 75 259 67 258 q 92 260 83 260 q 138 260 115 260 q 185 261 161 261 l 196 261 q 197 269 196 267 q 229 453 213 361 q 261 636 246 544 q 269 675 265 656 q 275 714 272 694 q 239 715 257 714 q 203 715 221 715 q 184 717 193 717 q 165 718 175 717 l 146 718 q 131 715 142 718 q 118 701 122 711 q 117 697 118 699 q 113 696 117 692 q 108 699 108 696 q 94 749 88 719 q 110 768 97 761 q 131 774 119 774 q 146 776 138 775 q 163 776 154 776 l 256 776 l 286 776 q 308 889 297 833 q 332 1001 318 944 q 346 1002 335 1008 q 360 993 357 996 q 374 978 367 986 q 381 961 382 969 q 368 868 375 914 q 354 778 361 822 l 431 778 l 472 778 q 496 778 483 779 q 519 778 508 778 q 531 771 528 775 q 549 736 542 758 q 551 726 550 731 q 551 717 551 722 q 550 711 550 714 q 546 708 547 708 q 536 707 543 707 q 501 708 518 707 q 465 708 483 708 q 437 709 450 708 q 408 710 424 710 q 377 711 393 711 q 344 711 361 711 q 310 486 328 599 q 271 261 292 374 l 358 261 l 401 261 q 425 262 413 263 q 449 261 438 261 q 460 256 454 261 q 478 219 471 242 q 479 200 481 207 l 479 194 q 475 192 476 192 q 465 190 472 190 q 430 192 447 192 q 394 192 413 192 q 366 193 379 193 q 338 193 353 193 q 306 194 322 194 q 272 196 289 194 l 260 196 l 260 190 l 243 99 q 237 52 240 75 q 228 6 233 29 q 221 0 226 0 q 184 20 204 0 q 161 56 164 40 q 156 79 158 69 q 165 86 151 89 q 172 126 168 106 q 179 165 176 146 q 182 182 181 174 q 185 197 183 190 q 158 199 171 199 q 132 200 144 199 q 113 201 122 200 q 94 201 104 201 l 75 201 q 60 199 71 201 q 47 186 51 194 q 46 181 47 182 q 42 179 46 175 q 38 182 38 179 q 24 232 15 204 z "},"‘":{"ha":182,"x_min":32,"x_max":129,"o":"m 39 954 q 67 985 46 974 q 111 994 88 996 q 122 993 114 994 q 121 989 129 992 q 103 967 106 985 q 104 939 101 950 q 106 933 104 936 q 108 928 107 931 q 96 908 111 913 q 75 906 85 904 q 41 921 50 907 q 39 954 32 935 z "},"’":{"ha":197,"x_min":69,"x_max":165,"o":"m 76 910 q 94 932 92 915 q 94 960 97 949 q 92 965 93 963 q 90 971 90 968 q 101 992 86 985 q 122 994 108 994 q 156 979 147 993 q 158 946 165 965 q 131 915 151 926 q 86 906 110 904 q 76 906 83 906 q 76 910 69 907 z "},"“":{"ha":303,"x_min":43,"x_max":219,"o":"m 129 961 q 157 992 136 981 q 201 1001 178 1003 q 212 1000 204 1001 q 211 996 219 999 q 194 974 196 992 q 194 946 192 957 q 196 940 194 943 q 199 935 197 938 q 186 915 201 919 q 165 913 175 911 q 131 928 140 914 q 129 961 122 942 m 50 961 q 78 992 57 981 q 122 1001 99 1003 q 133 1000 125 1001 q 132 996 140 999 q 115 974 117 992 q 115 946 113 957 q 117 940 115 943 q 119 935 118 938 q 107 915 124 921 q 86 913 97 910 q 53 928 63 914 q 50 961 43 942 z "},"”":{"ha":282,"x_min":76,"x_max":251,"o":"m 163 919 q 180 941 178 924 q 179 969 182 958 q 178 974 179 972 q 176 979 176 976 q 188 1000 172 993 q 208 1003 194 1003 q 242 988 233 1001 q 244 954 251 974 q 217 924 238 935 q 172 914 196 913 q 162 915 169 914 q 163 919 154 917 m 83 919 q 101 941 99 924 q 101 969 104 958 q 97 979 97 978 q 108 1000 93 993 q 129 1003 115 1003 q 163 988 154 1001 q 165 954 172 974 q 138 924 158 935 q 93 914 117 913 q 83 915 90 914 q 83 919 76 917 z "},"„":{"ha":299,"x_min":61,"x_max":236,"o":"m 69 6 q 87 27 85 10 q 86 56 89 44 q 84 61 85 58 q 82 67 83 64 q 94 88 78 81 q 114 90 106 90 q 149 74 139 88 q 151 40 158 60 q 122 10 143 21 q 78 0 101 -1 q 68 1 75 0 q 69 6 61 3 m 149 6 q 166 27 164 10 q 165 56 168 44 q 163 61 164 58 q 161 67 163 64 q 174 88 157 81 q 193 90 185 90 q 227 74 218 88 q 229 40 236 60 q 201 10 222 21 q 157 0 181 -1 q 147 1 154 0 q 149 6 140 3 z "},"‚":{"ha":181,"x_min":33,"x_max":131,"o":"m 42 6 q 59 27 57 10 q 58 56 61 44 q 56 61 57 58 q 54 67 56 64 q 67 88 50 81 q 86 90 78 90 q 121 74 111 88 q 124 40 131 60 q 94 10 115 21 q 50 0 74 -1 q 40 1 47 0 q 42 6 33 3 z "},"÷":{"ha":425,"x_min":11,"x_max":419,"o":"m 17 286 q 31 307 21 299 q 53 313 42 313 q 76 314 65 314 q 118 315 97 315 q 158 315 139 315 l 313 315 q 331 315 322 315 q 350 317 340 315 q 371 317 361 317 q 390 315 381 317 q 401 310 396 315 q 417 274 414 290 q 418 254 419 263 l 418 249 q 414 246 415 246 l 406 246 l 343 246 q 318 247 331 247 q 294 249 306 247 q 265 249 279 249 q 236 250 251 249 l 215 250 q 164 252 189 251 q 113 254 139 253 q 96 255 104 254 q 79 256 88 256 l 64 256 q 50 253 54 256 q 39 240 40 250 q 38 238 39 239 q 38 235 38 238 q 33 233 36 233 q 31 235 32 235 q 29 236 31 235 q 17 286 11 258 m 178 193 q 206 195 193 200 q 228 183 218 190 q 237 172 233 178 q 243 161 240 167 q 250 140 249 147 q 249 131 250 133 q 235 123 246 125 q 218 119 225 121 q 190 131 201 118 q 174 153 179 144 q 165 174 167 163 q 178 193 163 186 m 208 426 q 235 428 222 433 q 257 417 249 424 q 272 394 265 408 q 279 374 279 383 q 278 365 281 371 q 265 357 275 360 q 247 354 256 354 q 220 365 232 351 q 203 386 208 378 q 194 408 196 396 q 208 426 193 419 z "},"−":{"ha":564,"x_min":90,"x_max":499,"o":"m 96 53 q 108 72 99 64 q 128 79 117 79 q 142 81 135 81 q 157 81 150 81 q 197 82 176 82 q 239 82 218 82 l 392 82 q 410 83 401 82 q 429 83 419 83 q 450 83 440 83 q 471 82 460 83 q 483 74 478 82 q 491 57 488 67 q 497 37 494 47 q 499 21 499 26 q 497 17 497 19 q 493 13 496 13 l 486 13 q 453 13 469 13 q 422 14 438 13 q 397 14 410 14 q 374 15 385 14 q 344 16 358 15 q 315 17 331 17 q 294 18 301 17 q 243 19 268 18 q 192 21 218 19 q 175 22 183 21 q 158 22 167 22 q 143 24 154 24 q 129 19 136 24 q 118 7 119 17 q 113 0 118 0 q 110 1 111 1 q 108 3 110 1 q 96 53 90 25 z "},"±":{"ha":499,"x_min":19,"x_max":481,"o":"m 26 349 q 39 361 31 357 q 60 367 49 367 q 78 369 69 368 q 99 369 88 369 l 210 369 q 224 371 219 369 q 228 375 228 371 l 228 383 q 229 437 228 411 q 232 490 231 463 l 232 511 q 231 515 231 514 q 229 519 231 517 q 215 532 226 531 q 213 533 214 533 q 211 535 213 533 q 210 538 210 535 q 213 543 210 540 q 222 551 217 549 q 233 556 228 553 q 264 557 247 561 q 282 542 276 551 q 288 529 285 538 q 289 519 289 524 q 290 508 289 514 l 292 388 l 292 375 q 296 371 292 371 l 301 371 l 449 371 q 460 364 457 368 q 465 357 464 360 q 481 317 476 340 q 479 304 481 308 q 475 301 476 301 q 463 300 471 300 q 431 300 447 300 q 397 301 414 300 q 369 302 383 301 q 340 303 356 303 q 324 303 332 303 q 306 304 315 303 l 297 304 q 292 300 292 304 l 292 289 q 292 234 292 261 q 293 179 292 207 q 293 162 293 171 q 292 144 293 153 l 292 133 q 285 119 292 126 l 283 118 q 226 100 257 100 q 222 106 222 104 q 221 114 221 108 q 221 135 221 125 q 222 157 221 146 q 223 181 222 169 q 224 206 224 193 q 224 247 224 226 q 225 288 225 267 q 226 299 226 292 q 219 306 226 306 l 214 306 q 174 308 194 307 q 135 308 154 308 q 114 310 124 310 q 93 311 104 310 l 75 311 q 61 308 69 311 q 47 296 51 306 l 47 292 q 39 289 46 286 l 35 293 q 21 322 25 304 q 26 349 19 335 m 43 53 q 57 74 47 68 q 75 79 68 79 q 89 81 82 81 q 103 81 96 81 q 144 82 124 82 q 185 82 165 82 l 339 82 q 358 83 349 82 q 376 83 367 83 q 397 83 388 83 q 417 82 406 83 q 426 76 425 82 q 437 60 433 69 q 443 42 440 51 q 444 21 446 28 q 443 17 444 18 q 440 13 443 13 l 432 13 q 401 13 417 13 q 369 14 385 13 q 344 14 357 14 q 319 15 332 14 q 292 16 306 15 q 263 17 278 17 q 242 18 249 17 q 190 19 215 18 q 139 21 164 19 q 122 22 131 21 q 106 22 114 22 q 89 24 100 24 q 75 19 83 24 q 65 7 67 17 q 64 1 64 6 q 61 0 63 0 q 60 0 61 0 q 58 1 58 1 q 56 3 57 1 q 43 53 35 25 z "},"×":{"ha":419,"x_min":32,"x_max":388,"o":"m 33 147 q 37 150 36 149 q 39 153 38 151 l 69 183 q 88 200 79 192 q 106 217 96 208 q 135 244 121 231 q 165 272 150 258 l 174 281 q 174 290 176 286 q 171 293 171 290 q 142 322 156 308 q 115 351 129 336 q 101 367 108 360 q 88 382 94 375 q 77 394 83 388 q 64 403 71 400 q 44 404 54 408 l 42 401 q 35 406 35 399 q 35 411 35 411 q 46 442 35 428 q 67 457 53 453 q 85 457 76 460 q 104 446 99 451 q 118 433 111 439 q 132 421 125 428 q 173 381 153 401 q 213 342 193 361 q 222 333 218 336 q 228 332 225 329 l 235 339 q 274 376 254 358 q 313 411 293 393 q 321 419 317 415 q 328 426 325 422 q 330 430 329 429 q 332 433 331 431 q 331 453 336 443 l 331 461 q 338 463 332 463 q 382 436 368 463 q 385 413 388 428 q 379 400 382 404 q 374 392 376 396 q 367 383 371 388 q 325 341 346 363 q 282 297 304 319 q 274 288 279 293 q 274 281 271 285 q 278 278 276 278 q 350 206 313 240 q 366 190 358 199 q 381 174 374 182 q 385 161 386 168 q 383 153 385 156 q 365 114 379 129 q 356 106 361 107 q 351 106 354 104 q 342 114 347 108 q 319 137 331 125 q 296 161 307 149 q 277 181 286 171 q 257 203 268 192 q 245 215 250 210 q 233 228 240 221 q 230 231 231 229 q 226 233 229 232 q 221 235 224 238 l 213 226 q 174 188 193 207 q 136 149 156 168 l 111 124 q 107 120 108 121 q 103 117 106 119 q 88 113 96 110 q 33 139 58 114 q 33 147 32 143 z "},"¹":{"ha":200,"x_min":14,"x_max":165,"o":"m 14 743 q 17 747 14 746 q 31 750 21 750 l 32 750 q 43 751 35 751 l 46 751 l 50 751 q 50 765 47 758 q 68 806 58 786 q 89 846 78 826 q 108 885 97 865 l 111 892 q 117 903 114 894 q 94 896 110 896 q 83 897 88 896 l 75 899 l 82 903 q 94 913 86 907 q 109 925 101 919 q 124 936 117 931 q 142 942 132 942 q 154 939 149 942 q 161 911 165 932 q 155 890 158 900 q 144 867 151 879 q 127 831 136 849 q 110 794 118 813 q 101 778 106 786 q 93 763 97 769 q 89 753 92 758 q 117 744 103 753 q 128 735 126 738 q 126 729 128 731 q 119 725 125 725 q 101 724 110 725 q 85 724 93 724 l 79 724 q 47 726 68 724 q 18 736 26 728 q 14 743 14 739 z "},"²":{"ha":260,"x_min":3,"x_max":179,"o":"m 6 740 q 7 749 4 746 q 11 754 10 753 q 33 774 24 765 q 50 792 42 783 q 53 794 53 792 q 58 799 56 797 q 99 835 78 815 q 135 878 121 854 q 144 914 149 903 q 136 922 143 918 q 110 908 119 922 q 104 900 107 906 q 104 888 101 894 q 111 883 106 886 q 121 876 115 882 q 119 867 125 869 q 107 864 114 864 q 82 870 94 864 q 67 890 69 876 q 75 922 63 907 q 101 941 85 933 q 132 949 117 949 l 135 949 q 161 942 153 949 q 178 917 176 933 q 175 888 179 901 q 137 820 164 853 q 83 764 110 788 q 81 763 82 763 q 79 761 81 763 l 89 761 l 92 761 q 106 760 99 761 q 122 758 114 760 q 135 756 126 758 q 151 751 143 753 q 167 744 160 749 q 172 740 169 742 q 175 735 174 738 q 175 731 178 733 q 165 726 174 726 q 150 729 158 726 l 149 729 l 147 731 l 144 731 q 135 732 140 732 l 131 733 l 129 733 l 126 733 q 120 734 124 733 q 114 735 117 735 l 111 735 l 108 735 l 106 735 q 98 734 101 735 q 92 733 94 733 q 80 731 85 732 q 68 729 75 731 q 57 726 60 726 q 54 725 56 725 q 40 722 46 722 l 39 722 q 18 726 29 722 q 13 731 15 728 q 6 740 3 735 z "},"³":{"ha":250,"x_min":11,"x_max":188,"o":"m 11 765 l 17 765 q 77 781 53 767 q 125 815 101 796 q 129 819 129 817 l 128 819 l 126 821 l 124 821 q 109 823 117 822 q 94 824 101 824 q 67 843 75 826 q 69 860 63 854 q 79 869 75 867 q 110 889 93 879 q 132 903 121 896 q 153 919 143 911 q 156 926 156 921 q 153 929 154 928 q 147 931 153 931 q 135 928 143 931 q 118 922 126 926 q 103 913 110 918 q 97 903 97 908 q 99 896 100 900 q 89 892 97 892 l 83 892 q 67 897 76 893 q 53 908 57 901 q 51 922 49 914 q 83 945 58 938 q 124 956 108 953 q 139 957 129 957 q 181 940 171 957 q 185 915 188 928 q 175 892 182 901 q 151 869 168 882 q 144 863 149 867 q 135 856 140 860 q 131 853 133 856 q 153 840 143 849 q 163 815 163 832 q 151 787 161 800 q 125 763 140 774 q 93 747 110 753 q 63 739 76 740 q 53 738 58 738 q 14 761 29 738 l 11 765 z "},"ª":{"ha":404,"x_min":51,"x_max":310,"o":"m 81 829 q 108 877 92 854 q 144 919 124 900 q 185 952 163 938 q 236 965 208 967 q 279 953 258 964 q 306 921 300 943 q 297 871 310 897 q 292 861 294 865 q 288 826 292 839 q 283 813 285 821 q 276 782 278 800 q 272 750 274 765 q 273 719 272 735 q 276 689 274 704 q 243 695 258 688 q 222 722 228 703 q 224 753 219 735 q 235 790 228 771 q 225 779 231 788 q 192 746 211 763 q 174 730 183 738 q 156 715 165 722 q 144 708 150 711 q 133 700 139 704 q 116 692 125 696 q 97 689 107 688 q 60 719 67 693 q 60 776 51 747 q 81 829 69 804 m 96 700 q 122 710 106 699 q 156 739 139 722 q 187 773 172 756 q 207 797 201 790 q 221 816 214 807 q 232 836 228 825 q 240 851 236 843 q 249 867 244 858 l 249 885 q 245 895 250 889 q 232 901 240 901 q 218 897 226 901 q 156 843 182 871 q 106 778 129 815 q 85 725 86 751 q 87 710 85 718 q 96 700 89 703 z "},"°":{"ha":396,"x_min":82,"x_max":318,"o":"m 111 897 q 148 944 125 924 q 199 972 171 965 q 249 971 224 979 q 290 943 274 963 q 303 928 299 938 q 317 874 317 904 q 303 805 318 838 q 263 749 288 772 q 181 713 226 713 q 150 718 163 713 q 114 742 131 726 q 90 779 97 758 q 90 839 82 807 q 111 897 97 871 m 131 779 q 178 744 146 746 q 236 764 207 743 q 261 793 251 776 q 278 828 271 810 q 286 885 286 854 q 258 933 286 917 q 224 944 242 944 q 170 921 194 944 q 133 867 146 897 q 124 823 126 847 q 131 779 122 799 z "},"μ":{"ha":644,"x_min":19,"x_max":633,"o":"m 21 153 q 38 299 24 228 q 83 467 51 371 q 110 541 96 501 q 139 615 125 581 q 163 672 153 649 q 175 697 172 696 q 175 700 178 700 l 176 704 q 179 713 176 707 q 187 726 182 717 q 196 744 192 736 q 233 820 215 785 q 257 863 250 856 q 274 869 267 874 q 282 864 282 868 q 285 863 282 863 q 295 854 288 861 q 310 838 303 847 q 311 796 317 829 q 310 789 310 793 q 308 782 310 785 q 303 750 306 765 q 296 717 300 735 q 268 577 278 633 q 253 468 258 521 q 249 408 250 439 q 247 352 247 378 q 247 306 246 326 q 250 278 249 286 q 257 260 253 264 q 263 257 260 257 q 276 263 265 257 q 310 293 289 269 q 363 371 335 321 q 440 521 392 421 q 471 587 453 547 q 507 666 489 626 q 539 740 525 706 q 558 789 553 774 q 576 832 569 819 q 589 846 582 844 q 624 833 604 851 l 633 824 l 632 804 q 628 782 631 796 q 624 757 626 768 q 612 707 618 735 q 599 652 606 679 q 586 601 592 625 q 578 565 581 578 q 561 488 568 521 q 550 431 554 456 q 544 386 546 406 q 542 346 542 367 q 551 258 542 283 q 546 229 560 238 q 524 233 539 226 q 497 247 508 239 q 463 433 444 296 q 464 442 464 442 q 461 439 464 443 q 453 426 458 436 q 442 404 449 417 q 427 376 436 393 q 410 343 418 360 q 394 315 401 326 q 386 301 388 303 q 381 293 382 297 q 360 265 374 282 q 335 240 346 249 q 250 218 292 204 q 177 274 200 238 q 153 372 154 310 q 151 399 153 400 q 140 365 149 397 q 131 339 133 339 q 129 335 129 339 q 127 319 131 333 q 119 290 124 304 q 115 272 118 286 q 108 238 111 257 q 103 202 106 219 q 99 175 100 185 q 97 145 97 164 q 96 108 96 126 q 97 72 96 89 q 99 47 97 56 q 88 4 103 13 q 79 0 81 0 q 71 4 78 0 q 50 24 61 10 q 33 50 39 38 q 22 89 25 68 q 21 153 19 110 z "},"¤":{"ha":743,"x_min":7,"x_max":744,"o":"m 15 114 q 19 117 18 115 q 22 119 19 118 l 31 128 q 53 146 43 136 q 65 157 60 151 q 78 169 71 163 q 92 185 85 178 q 107 199 99 192 l 144 236 q 151 244 150 242 q 153 249 154 247 q 152 251 153 250 q 151 254 151 253 q 149 260 150 257 q 146 265 147 263 q 125 328 129 294 q 124 337 125 332 q 124 346 124 342 q 135 431 119 388 q 182 515 153 478 q 251 585 211 553 l 269 599 q 272 606 275 601 q 267 618 269 613 q 263 631 265 624 q 252 660 257 646 q 242 690 247 675 q 238 704 239 697 q 233 718 236 711 q 232 733 232 724 q 242 744 235 742 q 267 743 257 747 q 293 728 283 739 q 311 704 303 718 q 328 680 321 693 q 343 654 336 667 q 347 647 346 651 q 351 640 349 643 q 357 638 354 638 q 388 647 372 643 q 419 653 404 650 q 489 656 457 660 q 547 642 519 653 q 560 636 554 639 q 571 631 565 633 q 581 633 578 631 q 605 656 589 642 q 639 683 621 669 q 674 709 657 697 q 701 724 692 721 q 719 725 707 728 q 740 700 736 717 q 740 686 744 693 q 726 667 733 675 q 713 650 719 660 q 682 617 697 633 q 651 586 667 601 q 640 574 643 578 q 638 565 638 572 q 638 563 638 564 q 639 561 639 563 q 642 556 640 558 q 644 550 643 553 q 658 515 653 533 q 667 479 664 497 q 671 444 671 463 q 670 416 672 429 q 665 388 668 403 q 631 306 656 346 q 574 238 606 265 q 567 231 571 235 q 560 224 563 228 q 558 218 556 221 q 563 208 560 214 q 590 142 576 175 q 618 78 604 110 q 624 53 624 67 q 621 39 626 46 q 610 28 618 31 q 601 25 604 25 q 574 19 590 22 q 556 26 564 18 l 547 39 q 539 52 543 46 q 531 65 535 58 q 506 111 518 89 q 483 157 494 133 q 481 162 482 160 q 478 167 479 164 q 474 168 478 168 q 465 167 468 168 l 419 154 q 374 146 397 149 q 321 144 350 142 q 300 148 310 147 q 279 151 290 149 q 244 164 261 156 q 238 167 242 165 q 232 169 235 168 l 210 182 q 200 181 206 185 l 167 151 q 158 144 163 149 q 151 138 154 140 q 125 115 138 126 q 99 92 113 103 q 79 74 93 85 q 65 67 72 69 q 51 67 60 63 q 43 71 47 67 q 18 92 29 79 q 15 94 18 92 q 15 114 7 104 m 194 306 q 229 239 200 268 q 343 197 279 197 q 372 199 358 197 q 399 203 385 200 q 503 253 451 214 q 582 340 556 292 q 610 411 604 375 q 610 465 614 439 q 576 535 601 504 q 513 579 551 567 q 439 586 474 590 q 288 528 350 576 q 200 392 225 479 q 194 306 188 351 z "},"ƒ":{"ha":436,"x_min":-87,"x_max":456,"o":"m -87 124 q -86 129 -87 128 q -76 135 -85 138 q -69 131 -71 132 q -31 115 -54 118 q 25 126 -3 114 q 87 176 61 143 q 129 249 113 208 q 155 331 146 289 q 169 411 164 374 l 176 468 q 172 472 176 472 l 168 472 l 158 472 q 126 474 144 472 q 88 481 107 476 q 50 491 68 485 q 21 507 32 497 q 13 517 15 513 q 11 521 11 518 q 15 529 8 526 q 18 530 17 529 q 21 531 19 531 q 40 528 33 531 q 67 523 54 524 q 96 524 81 522 q 137 529 117 526 q 178 535 157 532 q 183 539 181 536 q 184 544 183 542 q 185 550 185 547 q 201 651 190 601 q 232 749 211 700 q 274 813 249 781 q 336 856 299 844 q 379 860 357 861 q 421 844 406 856 q 439 828 431 840 q 456 779 451 804 q 454 764 456 768 q 446 760 451 757 q 439 763 442 760 q 415 767 426 767 q 390 764 404 768 q 336 735 361 757 q 297 688 311 714 q 267 619 278 656 q 249 547 256 583 q 253 543 249 543 q 333 533 293 543 q 407 504 372 524 q 426 492 414 501 q 440 475 438 482 q 436 464 443 467 q 429 461 431 461 q 406 463 419 460 q 387 469 396 465 q 369 476 378 472 q 343 483 356 483 q 320 485 332 485 q 297 483 308 486 q 277 482 286 482 q 257 479 268 482 q 250 478 254 479 q 243 478 246 478 q 239 474 242 478 l 239 468 q 237 451 238 460 q 235 432 236 442 q 233 405 233 418 q 231 379 232 392 q 229 361 229 369 q 228 344 229 353 q 218 266 225 307 q 198 185 211 225 q 165 110 185 146 q 117 47 146 75 q 83 18 97 28 q 42 1 68 8 q 31 1 36 1 q 18 0 25 0 q -12 8 8 -1 q -66 56 -44 24 q -87 124 -87 88 z "},"ß":{"ha":543,"x_min":31,"x_max":524,"o":"m 31 119 l 31 167 l 33 169 q 35 183 35 174 q 36 203 36 193 q 36 222 36 213 q 44 321 39 263 q 60 444 50 379 q 84 578 69 510 q 119 707 99 646 q 165 816 139 768 q 225 890 192 864 q 289 918 256 913 q 328 918 308 921 q 431 870 389 911 q 493 774 472 829 q 507 728 503 756 q 511 688 511 710 q 478 572 507 625 q 411 469 450 518 l 411 467 q 411 465 411 467 q 413 464 413 464 q 415 463 414 464 q 472 406 444 442 q 501 350 489 379 q 519 289 514 321 q 522 225 524 253 q 488 125 511 167 q 415 49 465 83 q 326 17 376 17 q 263 35 292 17 q 211 80 233 53 q 174 141 189 107 q 156 206 160 175 q 154 282 147 240 q 164 313 157 300 q 192 346 175 335 q 213 360 206 354 q 221 358 215 361 q 240 335 233 349 q 249 306 246 321 q 249 290 251 299 q 246 283 249 289 l 243 281 q 220 251 231 269 q 207 217 210 232 q 205 205 206 210 q 204 193 204 200 q 206 182 204 186 q 211 168 206 176 q 246 147 225 154 q 278 142 261 142 q 308 146 292 142 q 336 157 324 150 q 378 185 357 167 q 417 225 400 203 q 444 272 433 247 q 456 322 456 297 q 451 333 457 329 q 422 351 436 346 l 414 356 q 369 376 392 363 q 349 388 356 385 q 342 392 346 390 q 335 396 338 393 q 315 400 325 400 q 298 408 307 400 q 286 424 289 417 q 260 496 264 460 q 261 518 257 508 q 268 526 261 524 q 303 543 288 532 q 335 569 319 554 q 395 644 365 597 q 439 731 425 690 q 443 744 442 738 q 446 758 444 751 q 444 765 447 763 q 405 791 428 782 q 358 803 382 800 q 294 790 325 804 q 226 724 251 767 q 188 636 201 681 q 97 268 119 454 q 94 235 94 251 q 90 201 93 218 q 88 171 89 186 q 86 140 88 156 q 85 103 86 121 q 85 65 85 85 l 85 26 q 74 1 85 8 q 65 1 69 -1 l 60 7 q 53 24 54 18 q 47 38 50 31 q 42 54 44 46 q 38 72 39 63 q 36 89 38 81 q 35 113 36 106 q 31 119 35 118 z "},"ð":{"ha":735,"x_min":24,"x_max":707,"o":"m 25 317 q 44 400 28 358 q 88 474 60 442 q 153 528 115 507 q 235 549 190 549 q 351 524 293 553 q 428 465 393 501 q 482 385 464 429 q 488 378 483 382 q 489 381 489 381 q 500 429 496 404 q 507 479 504 454 q 511 586 514 533 q 510 592 511 590 q 508 594 510 594 l 501 594 q 477 594 489 594 q 453 593 465 593 q 445 592 449 593 q 438 592 442 592 q 421 591 429 592 q 404 590 413 590 q 365 597 386 589 q 342 613 353 603 q 328 629 336 618 q 326 634 326 632 q 325 639 326 636 q 329 647 322 644 q 335 650 332 650 q 353 653 344 651 q 371 656 361 654 q 402 660 386 658 q 433 663 418 661 l 488 667 l 499 667 q 503 671 503 667 q 484 758 496 715 q 449 839 472 800 q 394 890 426 869 q 349 911 374 907 q 323 934 332 914 q 311 969 314 954 q 310 976 310 972 q 311 982 311 979 l 311 985 q 318 992 314 992 q 339 990 332 992 q 408 960 375 986 q 499 835 467 908 q 550 686 532 761 q 556 669 554 671 q 574 667 557 668 l 601 667 q 625 664 617 667 l 631 664 q 658 654 647 661 q 690 631 675 646 q 700 618 696 628 q 701 600 707 610 q 696 594 701 594 q 685 593 692 593 q 670 592 678 592 q 656 593 663 593 q 643 594 649 593 q 633 594 638 594 q 609 595 619 594 q 588 596 599 596 l 572 596 q 569 592 569 596 l 569 585 q 574 553 572 569 q 576 519 575 536 l 576 501 q 577 464 576 482 q 576 426 578 446 q 572 368 576 397 q 541 219 567 297 q 469 83 515 140 q 409 31 440 51 q 333 3 378 10 q 200 22 264 -8 q 95 108 138 53 q 36 229 53 163 q 25 317 24 274 m 89 221 q 96 203 89 210 q 113 185 101 196 q 173 149 140 161 q 242 133 206 136 q 311 143 275 129 q 402 201 368 161 q 460 292 436 240 q 463 301 463 296 q 467 310 464 306 q 467 319 469 315 q 465 327 465 324 q 463 335 464 331 q 386 411 438 383 q 281 439 335 439 q 206 419 240 435 q 143 374 172 404 q 101 302 114 338 q 89 221 89 267 z "},"›":{"ha":400,"x_min":18,"x_max":375,"o":"m 21 182 q 22 185 21 183 q 22 188 22 186 q 29 200 25 197 q 39 204 33 201 q 113 231 72 217 q 188 257 150 244 q 265 282 226 269 q 271 284 268 283 q 276 288 274 285 q 275 290 275 290 l 267 294 q 228 313 247 304 q 189 331 208 321 q 142 353 165 342 q 94 379 118 365 q 84 386 89 382 q 72 393 79 390 q 50 428 57 403 q 48 440 49 435 q 46 453 47 446 l 46 490 q 49 496 46 493 q 53 500 51 500 q 58 499 57 500 q 63 498 61 499 q 65 497 64 497 q 91 485 78 490 q 115 474 104 481 q 148 458 132 465 q 179 443 164 450 q 264 398 222 421 q 346 347 306 375 q 365 315 358 339 q 369 294 368 304 q 372 272 371 283 q 374 260 374 265 q 375 251 374 254 q 374 236 375 242 q 372 224 374 231 q 369 215 372 221 q 367 213 369 213 l 364 213 q 326 207 344 211 q 289 196 308 203 q 233 174 261 186 q 176 151 204 163 q 115 124 144 136 q 53 97 85 111 q 46 93 51 96 q 38 96 42 92 q 35 100 38 97 l 31 108 q 21 182 18 142 z "},"‹":{"ha":439,"x_min":19,"x_max":375,"o":"m 19 251 q 19 260 19 254 q 21 271 19 265 q 29 315 24 294 q 49 346 33 335 q 129 398 88 375 q 214 442 171 421 q 247 458 231 450 q 278 474 263 465 q 290 479 281 475 q 309 488 299 483 q 329 497 319 493 q 340 500 339 500 q 346 496 344 500 q 347 493 346 494 q 347 489 347 492 q 349 472 349 483 q 347 451 349 458 q 343 426 347 439 q 321 393 336 400 q 310 385 315 389 q 299 378 306 382 q 251 353 275 365 q 204 331 228 342 q 165 312 185 321 q 126 293 146 303 q 118 290 124 293 l 118 286 q 128 282 122 285 q 205 256 167 269 q 282 231 243 243 q 354 203 315 219 q 359 201 357 201 q 364 199 361 200 q 371 188 371 196 q 372 182 372 186 q 363 108 375 142 l 358 100 q 356 96 358 99 q 349 93 353 90 q 344 94 346 94 q 340 96 343 94 q 279 123 310 110 q 218 150 249 136 q 162 174 190 163 q 104 196 133 186 q 67 207 85 203 q 28 213 49 211 q 24 215 26 213 q 21 224 24 218 q 19 251 19 231 z "},"«":{"ha":790,"x_min":18,"x_max":728,"o":"m 372 239 q 372 247 372 242 q 374 260 372 253 q 382 303 376 283 q 401 333 386 325 q 482 385 440 363 q 567 429 524 408 q 599 445 583 438 q 631 461 615 453 q 659 474 638 464 q 688 486 681 485 q 693 488 689 488 q 697 483 697 488 q 700 478 700 481 q 701 461 701 472 q 700 440 701 447 q 688 395 700 413 q 651 367 675 378 q 567 322 611 343 q 479 282 524 301 l 471 278 l 471 274 q 481 269 475 272 q 558 244 519 257 q 635 218 596 232 q 671 205 653 211 q 707 192 689 199 q 712 189 710 190 q 717 186 714 188 q 724 175 724 183 q 725 169 725 174 q 715 96 728 129 l 711 88 q 708 83 711 86 q 701 81 706 78 q 693 83 696 83 l 569 138 q 478 176 531 156 q 381 200 425 197 q 376 203 379 200 q 374 211 376 206 q 372 239 372 219 m 18 239 q 19 247 18 242 q 19 260 19 253 q 26 300 21 275 q 47 333 32 325 q 214 429 128 389 q 245 445 229 438 q 276 461 261 453 q 305 474 283 464 q 333 486 326 485 q 340 488 336 488 q 344 483 343 488 q 346 478 346 482 q 347 461 347 472 q 346 440 347 447 q 342 415 346 426 q 321 381 336 392 q 309 374 314 378 q 297 367 304 369 q 213 322 257 343 q 125 282 169 301 q 122 280 122 281 q 118 278 121 279 q 117 275 117 278 q 128 269 122 271 q 204 244 167 257 q 281 218 242 232 q 317 205 300 211 q 353 192 335 199 q 358 189 356 190 q 363 186 360 188 q 371 175 368 185 l 371 169 q 361 96 375 133 q 358 88 361 93 l 354 83 q 347 81 351 78 q 339 83 342 83 q 278 110 308 97 q 217 138 247 124 q 160 162 189 150 q 103 183 132 174 q 66 194 85 190 q 26 200 47 199 q 24 203 24 200 q 21 211 21 208 q 19 224 19 218 q 18 239 18 229 z "},"»":{"ha":763,"x_min":35,"x_max":732,"o":"m 38 169 q 39 175 38 174 q 46 186 42 185 q 51 189 49 188 q 56 192 53 190 q 92 205 74 199 q 128 218 110 211 q 205 244 167 232 q 282 269 243 257 q 288 272 285 271 q 293 275 290 272 q 292 278 292 278 l 283 282 q 184 328 232 304 q 89 381 136 353 q 67 415 72 390 q 63 440 65 426 l 63 478 q 65 483 63 481 q 69 488 65 488 q 75 486 74 488 q 103 474 82 485 q 132 461 125 464 q 164 445 147 453 q 196 429 181 438 q 281 385 239 408 q 361 333 322 363 q 382 303 375 325 q 386 281 385 292 q 389 260 388 271 q 390 247 390 253 q 390 239 390 242 q 391 224 392 229 q 389 211 390 218 q 388 207 388 208 q 386 203 388 206 q 381 200 383 200 q 343 194 361 199 q 306 183 325 190 q 249 162 278 174 q 193 138 221 150 l 69 83 q 61 81 67 83 q 54 83 58 79 q 53 85 53 85 q 51 88 53 86 l 47 96 q 38 169 35 129 m 379 169 q 381 175 379 174 q 388 186 381 183 q 392 189 390 188 q 397 192 394 190 q 433 205 415 199 q 469 218 451 211 q 547 244 508 232 q 624 269 585 257 q 633 275 629 272 l 633 278 l 625 282 q 537 322 581 301 q 453 367 493 343 q 425 385 436 375 q 408 415 414 396 q 404 440 404 426 q 403 461 403 447 q 404 478 403 472 q 405 481 404 479 q 406 483 406 482 q 411 488 408 488 q 417 486 415 488 q 445 474 424 485 q 474 461 467 464 q 505 445 489 453 q 538 429 521 438 q 622 385 581 408 q 703 333 664 363 q 722 303 718 325 q 731 260 728 283 q 732 247 732 253 q 732 239 732 242 q 731 211 732 219 q 728 203 728 206 q 722 200 725 200 q 685 194 703 199 q 647 183 667 190 q 590 162 618 174 q 533 138 561 150 l 411 83 q 403 81 408 83 q 396 83 399 78 q 393 88 393 86 l 389 96 q 379 169 376 129 z "},"~":{"ha":482,"x_min":53,"x_max":435,"o":"m 57 490 q 83 526 65 514 q 122 546 100 539 q 142 550 132 549 q 164 551 153 551 q 188 549 175 550 q 214 543 200 547 q 228 538 221 540 q 242 533 235 536 q 301 513 268 522 q 323 508 313 510 q 344 506 333 507 q 369 504 353 504 q 389 511 379 504 q 397 516 393 514 q 404 521 400 518 q 419 528 411 526 q 431 521 429 528 q 435 506 435 515 q 422 464 432 479 q 416 456 419 460 q 408 449 413 453 q 376 431 394 438 q 340 422 358 425 q 293 429 318 421 q 269 438 281 433 q 246 449 257 443 q 227 458 236 453 q 207 465 218 463 q 191 471 199 468 q 174 475 183 474 q 149 478 160 479 q 104 465 125 478 q 97 460 100 463 q 89 454 93 457 q 76 444 82 447 q 69 446 71 444 q 65 451 68 449 q 57 471 60 460 q 57 490 53 481 z "},"¬":{"ha":688,"x_min":4,"x_max":658,"o":"m 104 315 q 206 324 154 322 q 310 325 258 325 q 341 325 321 325 q 397 324 361 325 q 424 323 410 324 q 444 322 438 322 q 472 322 451 322 q 514 319 493 321 q 586 317 568 317 q 611 322 604 317 q 625 328 621 329 q 639 317 629 328 q 653 284 647 306 q 656 244 658 263 q 647 216 654 229 q 617 175 640 203 q 536 31 539 86 q 534 15 535 22 q 533 6 533 8 q 526 0 532 0 q 514 6 521 0 q 503 28 508 11 q 497 64 499 46 q 503 123 494 90 q 535 203 513 156 q 547 228 542 218 q 553 240 553 239 q 540 243 553 243 q 469 243 526 243 q 419 244 440 243 q 379 244 399 244 q 340 244 360 244 q 292 243 319 243 q 242 242 261 243 q 208 242 224 242 q 176 241 193 242 q 129 240 158 240 q 63 239 88 239 q 26 243 39 239 q 10 256 14 247 q 6 279 7 264 q 25 301 4 294 q 104 315 46 308 z "},"_":{"ha":633,"x_min":76,"x_max":539,"o":"m 82 43 q 104 65 89 61 q 136 68 119 68 q 175 69 156 69 q 214 69 194 69 q 277 69 246 69 q 340 71 308 69 l 457 71 l 493 71 l 506 71 q 519 63 515 71 q 539 17 535 44 l 539 10 q 528 0 538 0 q 497 0 513 0 q 465 1 481 0 q 446 2 456 1 q 426 3 436 3 q 378 3 403 3 q 318 6 353 4 q 267 6 297 6 q 206 8 238 7 q 178 8 199 8 q 137 9 158 8 q 99 11 115 10 q 81 15 82 13 q 82 43 76 28 z "},"–":{"ha":633,"x_min":89,"x_max":590,"o":"m 93 310 q 107 326 97 321 q 117 331 113 329 q 128 333 121 332 q 140 334 135 333 q 151 335 144 335 q 194 335 174 335 q 238 336 215 336 l 375 336 q 438 337 407 336 q 501 338 469 338 l 540 338 q 554 336 550 338 q 569 329 563 336 q 589 283 588 307 q 590 276 590 281 q 578 267 589 267 l 510 267 q 489 268 499 268 q 468 268 479 268 q 414 269 442 269 q 350 271 386 269 q 294 273 326 272 q 228 275 263 274 q 198 275 219 275 q 153 276 176 275 q 112 278 131 276 q 92 282 93 279 q 93 310 89 293 z "},"—":{"ha":633,"x_min":28,"x_max":633,"o":"m 32 303 q 49 319 36 311 q 61 324 56 322 q 74 326 67 325 q 88 327 81 326 q 103 328 96 328 q 155 328 129 328 q 207 329 181 329 l 372 329 q 449 330 411 329 q 525 331 488 331 l 572 331 q 590 329 585 331 q 608 322 599 329 q 632 276 628 300 q 633 269 633 274 q 618 260 631 260 l 536 260 q 511 261 524 261 q 485 261 499 261 q 421 263 454 263 q 343 264 388 264 q 276 266 315 265 q 194 268 236 267 q 159 268 185 268 q 105 269 133 268 q 54 271 76 269 q 31 275 32 272 q 28 289 28 282 q 32 303 29 296 z "},"•":{"ha":219,"x_min":44,"x_max":157,"o":"m 64 386 q 85 390 75 390 q 108 385 97 390 q 128 374 119 381 q 139 360 135 367 q 147 346 143 353 q 153 332 150 339 q 157 318 156 325 q 154 307 157 310 q 138 297 150 300 q 115 292 126 293 q 80 306 94 289 q 58 335 65 324 q 47 361 50 346 q 64 386 44 376 z "},"·":{"ha":219,"x_min":53,"x_max":164,"o":"m 72 393 q 93 397 83 397 q 115 392 104 397 q 135 381 126 388 q 154 353 149 368 q 164 325 163 339 q 161 314 164 317 q 146 303 158 307 q 122 299 133 300 q 87 313 101 296 q 65 342 72 331 q 56 368 58 353 q 72 393 53 383 z "},"/":{"ha":496,"x_min":26,"x_max":543,"o":"m 28 74 l 32 99 q 42 103 32 110 q 63 141 53 122 q 83 179 72 160 q 109 229 96 204 q 135 279 122 254 q 227 455 181 367 q 319 631 274 543 q 413 805 367 718 q 510 978 458 892 q 522 975 514 985 q 532 963 529 965 q 540 943 536 954 q 539 924 543 932 q 490 819 515 871 q 438 717 464 768 q 347 538 393 626 q 256 360 301 450 q 210 271 232 315 q 164 182 188 226 q 141 138 153 160 q 118 93 129 115 q 95 47 107 69 q 71 4 83 25 q 64 0 68 -1 q 56 6 60 1 q 48 15 51 10 q 43 21 44 19 q 31 46 36 32 q 28 74 26 60 z "},"\\":{"ha":529,"x_min":36,"x_max":524,"o":"m 46 975 q 56 988 49 978 q 67 990 63 999 q 158 816 115 904 q 246 639 201 728 q 333 461 290 550 q 421 283 376 372 q 445 232 433 257 q 469 182 457 207 q 489 143 479 163 q 508 104 499 124 q 515 107 511 107 q 518 100 518 107 q 519 88 518 93 q 521 75 521 82 q 519 47 524 61 q 507 21 514 32 q 503 15 506 19 q 496 6 500 10 q 488 0 492 1 q 481 4 483 -1 q 459 49 469 26 q 438 94 449 71 q 371 229 403 161 q 307 365 339 297 q 219 545 263 456 q 135 726 176 635 q 87 831 111 779 q 39 936 63 883 q 39 956 36 944 q 46 975 42 967 z "},"+":{"ha":493,"x_min":21,"x_max":481,"o":"m 26 317 q 39 329 31 325 q 60 336 46 333 q 135 337 97 336 q 210 339 172 338 l 224 339 q 228 344 226 339 q 229 351 229 349 q 230 405 229 379 q 232 458 231 431 q 232 479 235 469 q 231 483 232 482 q 231 488 231 485 q 217 500 226 499 q 211 503 211 503 l 210 506 q 219 517 210 513 q 233 524 229 521 q 264 525 247 529 q 280 515 275 521 q 288 497 285 508 q 290 478 290 483 q 291 416 290 446 q 292 356 292 386 l 292 343 q 297 339 294 339 l 303 339 l 449 339 q 460 332 456 339 q 465 325 463 331 q 481 285 479 304 q 479 272 481 276 q 475 269 479 269 q 464 268 471 268 q 431 269 447 268 q 399 269 414 269 q 369 270 383 269 q 340 271 356 271 q 324 272 332 271 q 307 272 315 272 l 297 272 q 292 266 293 272 q 292 257 292 260 q 293 203 293 229 q 293 149 293 176 l 293 113 l 293 101 q 274 81 293 89 q 244 69 254 72 q 228 69 236 68 q 222 74 224 69 q 221 82 221 79 q 222 103 222 93 q 222 125 222 114 q 226 256 222 192 l 226 267 q 221 274 226 274 l 215 274 q 175 276 196 275 q 135 276 154 276 q 114 278 124 278 q 93 279 104 278 l 75 279 q 63 276 71 279 q 49 264 50 274 q 47 260 47 263 q 40 257 46 254 q 36 261 36 261 q 22 290 25 272 q 26 317 21 304 z "},"-":{"ha":431,"x_min":33,"x_max":382,"o":"m 39 308 q 51 328 43 322 q 67 335 58 335 q 78 335 74 335 q 90 336 83 336 q 126 337 108 336 q 161 338 143 338 l 292 338 q 307 338 299 338 q 324 339 315 338 q 340 339 332 339 q 358 338 349 339 q 367 332 361 338 q 382 276 382 310 q 381 271 382 274 q 377 267 381 268 q 371 267 374 267 q 344 268 357 268 q 317 268 331 268 q 296 269 306 269 q 275 271 286 269 q 251 271 264 271 q 226 272 239 271 l 208 272 l 121 276 q 107 277 114 276 q 93 278 100 278 l 79 278 q 67 275 75 278 q 58 263 60 271 q 57 257 57 261 q 53 256 54 254 q 50 258 50 258 q 39 308 33 282 z "},"˜":{"ha":569,"x_min":81,"x_max":489,"o":"m 82 833 q 128 910 88 888 q 217 931 169 932 q 294 913 256 929 q 371 889 332 896 q 410 887 390 886 q 447 900 431 888 q 460 915 453 904 q 475 924 468 925 q 486 903 485 921 q 489 879 488 886 q 466 820 489 840 q 407 797 443 800 q 362 803 385 796 q 317 818 339 811 q 261 834 289 825 q 204 843 233 843 q 154 829 174 843 q 135 810 143 821 q 117 792 128 800 q 101 783 108 783 q 85 803 90 786 q 82 833 81 821 z "},"¢":{"ha":590,"x_min":60,"x_max":550,"o":"m 115 356 q 126 378 118 364 q 169 440 143 407 q 227 502 194 474 q 296 549 260 531 q 369 567 332 567 q 430 563 399 569 q 485 538 461 557 q 522 481 514 515 q 522 413 531 446 q 488 356 513 379 q 425 331 463 332 q 410 340 418 331 q 394 360 401 349 q 384 382 388 372 q 385 392 381 392 q 436 408 415 392 q 475 449 457 424 q 489 478 482 460 q 475 500 496 496 q 419 494 449 507 q 369 468 390 482 q 305 410 333 444 q 256 339 276 376 q 226 268 242 313 q 208 183 210 224 q 226 113 206 142 q 304 89 246 85 q 399 124 354 93 q 476 189 443 154 q 529 252 510 224 q 550 281 549 281 l 540 261 q 499 186 526 232 q 431 98 472 140 q 335 26 390 56 q 206 0 279 -4 q 120 38 158 3 q 71 122 82 72 q 75 242 60 181 q 115 356 90 303 m 201 -142 q 208 -102 204 -122 q 215 -62 213 -82 l 233 42 q 265 225 249 133 q 299 408 282 317 q 331 591 315 500 q 369 774 347 682 q 382 774 371 781 q 396 765 393 768 q 410 750 403 758 q 417 733 418 742 q 403 626 411 679 q 388 519 394 572 q 343 240 365 379 q 296 -37 321 101 l 281 -129 q 273 -176 276 -153 q 265 -222 269 -199 q 258 -228 264 -228 q 242 -222 251 -228 q 231 -215 233 -217 q 210 -196 219 -207 q 197 -172 200 -185 q 192 -149 194 -158 q 201 -142 190 -139 z "},"ˆ":{"ha":354,"x_min":28,"x_max":278,"o":"m 32 760 q 74 811 51 786 q 121 860 97 836 l 167 910 q 189 935 178 922 q 213 960 200 949 q 231 961 218 964 q 246 956 243 958 q 260 935 254 950 q 270 903 267 921 q 275 867 274 885 q 276 839 276 850 q 276 786 278 813 q 275 759 276 774 q 256 738 274 744 q 239 738 250 735 q 225 744 228 742 q 210 771 211 757 q 211 800 210 785 l 211 856 q 210 881 211 868 q 210 908 210 894 l 200 899 q 177 875 189 888 q 154 851 165 863 q 121 815 138 833 q 86 778 104 797 q 74 763 81 771 q 56 753 67 756 q 40 753 53 751 q 32 760 28 754 z "},"¨":{"ha":394,"x_min":58,"x_max":293,"o":"m 74 871 q 101 873 89 878 q 124 861 114 868 q 139 839 132 851 q 146 817 144 825 q 144 808 146 811 q 131 801 142 803 q 114 797 121 799 q 86 808 97 794 q 69 831 75 822 q 60 852 63 840 q 74 871 58 864 m 221 871 q 249 873 236 878 q 269 861 261 868 q 286 839 278 853 q 293 817 292 825 q 292 808 293 811 q 278 801 289 803 q 261 797 268 799 q 233 808 244 794 q 217 831 222 822 q 208 852 210 840 q 221 871 206 864 z "},"ˇ":{"ha":351,"x_min":72,"x_max":322,"o":"m 94 956 q 111 955 100 958 q 125 947 122 951 q 139 921 138 935 q 139 892 140 907 l 139 838 q 140 810 139 824 q 140 783 140 797 q 149 793 143 788 q 173 817 161 804 q 196 842 185 829 q 229 878 213 860 q 263 914 246 896 q 276 929 269 921 q 294 940 283 938 q 310 939 297 940 q 318 933 322 938 q 276 881 299 906 q 229 832 253 857 q 206 807 218 819 q 182 782 193 794 q 160 757 171 771 q 138 732 150 743 q 119 731 132 728 q 103 738 107 735 q 88 758 94 743 q 79 790 82 772 q 75 826 76 808 q 74 854 74 843 q 72 880 72 867 q 72 907 72 893 q 75 933 74 918 q 94 956 76 949 z "},"˘":{"ha":415,"x_min":67,"x_max":343,"o":"m 67 893 q 72 911 67 900 q 79 915 75 914 q 86 915 83 915 q 113 910 96 915 q 131 900 119 907 q 142 883 142 893 q 141 876 140 879 q 142 868 142 872 q 147 838 142 850 q 151 833 150 835 q 154 828 151 831 q 157 822 157 822 l 158 822 q 160 821 158 821 l 161 818 q 165 819 165 819 q 161 818 164 818 q 167 817 164 818 q 174 818 171 817 l 171 818 l 174 818 q 180 819 175 818 q 186 821 185 819 l 190 821 q 200 825 194 825 q 242 854 226 838 q 251 865 247 860 q 257 878 254 871 q 260 886 260 882 q 264 894 261 890 q 268 902 265 899 q 274 910 271 906 q 289 915 279 917 q 306 910 299 913 q 324 901 313 907 q 338 888 335 896 q 342 864 343 871 q 336 846 339 853 q 328 831 333 838 q 317 817 324 824 q 219 776 276 776 q 168 784 194 776 q 119 806 142 792 q 81 843 96 821 q 67 893 67 865 m 163 818 q 163 818 163 818 l 163 818 z "},"˚":{"ha":350,"x_min":47,"x_max":269,"o":"m 75 883 q 117 933 90 911 q 178 956 144 956 q 222 942 200 956 q 256 910 244 929 q 269 858 267 890 q 260 808 269 833 q 233 760 250 782 q 194 726 217 739 q 143 713 171 713 q 114 718 126 713 q 57 775 68 733 q 58 838 47 807 q 75 883 68 869 m 107 781 q 142 756 118 757 q 185 771 168 756 q 208 797 200 782 q 219 822 215 811 q 224 839 221 828 q 226 862 226 850 q 222 885 226 874 q 207 904 218 897 q 179 913 193 913 q 138 893 157 913 q 110 850 119 874 q 101 816 103 835 q 107 781 100 797 z "},"˙":{"ha":193,"x_min":35,"x_max":122,"o":"m 50 890 q 76 892 64 897 q 99 881 89 888 q 114 858 107 872 q 121 838 121 847 q 119 828 122 833 q 107 820 117 822 q 89 817 97 818 q 62 828 74 815 q 44 850 50 842 q 36 872 38 860 q 50 890 35 883 z "},"`":{"ha":293,"x_min":18,"x_max":257,"o":"m 21 918 q 40 935 24 929 q 76 940 57 940 q 113 933 96 940 q 131 914 117 931 q 164 875 146 897 q 203 828 190 842 q 232 804 215 815 q 254 787 251 790 q 251 781 257 783 q 237 775 247 778 q 206 769 226 772 q 172 774 193 768 q 151 784 161 778 q 126 801 140 790 q 49 874 81 840 q 21 918 18 907 z "},"´":{"ha":293,"x_min":36,"x_max":275,"o":"m 61 799 q 91 823 79 810 q 129 869 103 836 q 162 908 147 892 q 181 928 176 925 q 217 935 197 935 q 253 929 236 935 q 272 913 271 924 q 244 868 275 901 q 167 797 214 835 q 121 769 143 775 q 99 763 104 763 q 71 765 93 763 q 42 775 51 771 q 39 781 36 778 q 61 799 42 785 z "},"˝":{"ha":493,"x_min":49,"x_max":443,"o":"m 75 803 q 104 827 92 814 q 143 874 117 840 q 175 912 160 896 q 193 931 190 928 q 229 938 206 938 q 266 932 249 938 q 285 917 283 926 q 257 872 288 906 q 181 800 226 839 q 135 772 156 781 q 111 766 117 765 q 85 769 106 767 q 56 778 65 772 q 51 785 49 782 q 75 803 54 788 m 229 803 q 258 827 246 814 q 297 874 271 840 q 331 912 315 896 q 349 931 346 928 q 385 938 361 938 q 422 932 404 938 q 440 915 439 926 q 412 871 443 904 q 335 800 381 838 q 289 772 310 781 q 265 767 271 767 q 239 769 260 767 q 210 779 217 775 q 206 786 203 783 q 229 803 210 789 z "},"˛":{"ha":317,"x_min":33,"x_max":275,"o":"m 40 -106 q 65 -48 44 -75 q 106 4 86 -21 q 119 24 113 14 q 132 43 125 33 q 152 44 136 49 q 168 33 168 39 q 156 -8 169 11 q 128 -46 142 -28 q 103 -81 114 -62 q 96 -119 93 -100 q 112 -151 99 -136 q 149 -167 125 -165 q 193 -156 172 -168 q 224 -129 214 -144 q 232 -115 228 -122 q 246 -107 236 -108 q 259 -110 253 -106 q 268 -119 265 -114 q 252 -158 275 -140 q 207 -183 229 -176 q 147 -194 178 -194 q 83 -179 114 -194 q 40 -106 33 -153 z "},"¸":{"ha":304,"x_min":29,"x_max":261,"o":"m 47 -151 q 57 -160 50 -153 q 87 -181 69 -172 q 124 -189 104 -189 q 163 -178 146 -189 q 198 -140 185 -164 q 208 -93 211 -117 q 197 -75 207 -82 q 176 -64 188 -68 q 155 -57 165 -60 q 142 -53 144 -54 q 133 -40 131 -47 q 140 -24 136 -32 q 152 6 143 -14 q 171 29 161 25 q 186 31 178 33 q 200 22 194 29 q 206 8 206 15 q 206 -7 207 0 q 192 -35 203 -19 q 220 -49 207 -42 q 243 -68 233 -56 q 259 -107 257 -86 q 253 -147 261 -128 q 231 -183 246 -167 q 194 -207 215 -199 q 147 -215 174 -215 q 85 -203 115 -215 q 36 -171 56 -192 q 32 -154 29 -164 q 47 -151 35 -144 z "},"∞":{"ha":856,"x_min":13,"x_max":831,"o":"m 28 440 q 107 508 49 494 q 172 506 139 515 q 233 482 204 497 q 289 449 263 467 q 342 411 315 431 q 367 389 354 400 q 393 367 381 378 q 403 379 394 367 q 424 408 413 392 q 446 440 436 425 q 458 458 456 454 q 520 523 486 499 q 606 547 554 547 q 693 525 654 547 q 761 467 732 503 q 808 387 790 431 q 828 299 825 343 q 823 241 831 269 q 799 188 815 213 q 761 146 783 164 q 710 119 739 128 q 674 115 692 115 q 563 147 617 115 q 468 213 510 179 q 442 235 454 224 q 415 258 429 247 q 341 192 383 219 q 250 156 299 164 q 129 176 186 146 q 72 226 94 196 q 33 293 49 257 q 16 366 19 328 q 28 440 13 404 m 538 260 q 583 240 560 247 q 632 232 607 232 q 719 269 683 235 q 765 353 756 304 l 765 360 l 765 371 q 763 375 763 374 l 761 378 l 753 386 q 749 389 750 389 q 739 397 743 394 q 721 408 728 406 q 646 426 686 426 q 558 402 597 425 q 492 340 518 379 q 479 335 489 335 q 470 323 475 328 q 461 311 465 318 q 498 283 479 296 q 538 260 517 271 m 82 300 q 89 294 86 296 l 101 286 l 103 285 q 106 283 106 285 q 108 282 108 282 q 111 281 110 281 q 118 277 114 278 q 125 275 122 276 q 189 264 153 264 q 268 281 231 265 q 339 321 306 297 q 260 372 303 349 q 169 396 217 396 q 81 331 103 392 q 78 319 78 322 q 76 306 76 315 q 82 300 82 300 m 71 311 l 72 310 q 71 311 72 311 m 69 315 q 71 313 69 314 q 69 315 69 315 z "},"√":{"ha":481,"x_min":14,"x_max":461,"o":"m 17 458 l 63 529 q 85 564 74 547 q 107 600 97 581 q 119 601 111 608 q 129 592 126 594 q 136 582 135 586 q 139 579 136 582 q 143 574 140 576 q 173 514 163 542 q 188 449 183 486 l 188 443 q 272 684 226 565 q 367 922 318 803 q 376 943 372 933 q 385 964 381 953 q 394 986 389 972 q 406 1004 397 993 q 413 1008 408 1008 q 430 999 421 1008 q 442 985 439 989 q 456 957 450 972 q 458 926 461 942 q 455 915 456 919 q 451 904 454 910 q 443 885 446 890 q 435 865 439 874 q 426 844 431 856 q 343 642 385 744 q 265 436 301 540 q 201 225 229 332 q 156 10 172 118 q 147 0 153 1 q 136 6 143 -1 q 118 24 125 13 q 106 47 111 36 q 88 113 92 79 q 86 181 83 147 q 102 290 89 236 q 126 399 115 344 q 131 425 129 413 q 133 451 132 438 q 134 465 133 458 q 135 478 135 471 l 135 490 l 135 497 q 134 507 135 503 q 133 515 133 511 q 94 458 114 488 q 56 400 75 429 q 42 401 50 392 q 31 415 33 411 q 18 440 24 424 q 15 449 17 443 q 17 458 14 456 m 132 525 q 131 531 131 526 q 132 526 131 528 q 132 525 132 525 z "},"∏":{"ha":738,"x_min":54,"x_max":682,"o":"m 57 128 l 61 165 q 65 193 64 179 q 68 221 65 207 q 72 246 71 233 q 75 271 72 258 q 78 293 76 282 q 81 315 79 304 q 85 345 83 331 q 90 375 88 360 l 103 446 q 110 485 106 465 q 117 525 114 506 q 128 580 124 553 q 140 635 133 607 q 199 878 165 758 q 268 1119 232 999 q 274 1135 271 1128 q 282 1140 275 1140 l 286 1140 q 400 1136 344 1138 q 514 1132 456 1135 l 515 1132 q 562 1131 539 1131 q 608 1129 585 1131 q 622 1128 615 1128 q 636 1128 629 1128 q 651 1121 644 1128 q 663 1104 660 1110 q 672 1087 668 1096 q 679 1067 676 1078 q 682 1065 681 1065 l 682 1019 q 587 705 624 864 q 531 381 550 546 q 517 247 522 314 q 513 114 513 181 q 513 87 513 100 q 514 58 514 74 q 514 40 514 49 q 513 21 514 31 q 511 8 513 13 q 505 1 510 3 q 494 3 500 -1 q 488 10 490 6 q 476 25 481 17 q 458 65 465 42 q 456 76 456 71 q 454 86 456 81 q 454 192 453 140 q 456 259 454 225 q 460 326 457 293 q 460 353 460 340 q 463 379 461 367 q 465 401 464 390 q 467 424 465 413 q 469 438 468 431 q 469 453 469 446 q 474 490 472 472 q 479 528 476 508 l 492 607 q 533 810 508 710 q 590 1011 557 911 q 591 1015 590 1014 q 592 1019 592 1017 q 590 1022 594 1022 q 580 1024 585 1024 q 569 1025 575 1024 q 533 1026 550 1025 q 497 1028 515 1026 q 469 1030 483 1029 q 442 1032 456 1031 q 422 1034 432 1033 q 403 1035 413 1035 q 375 1037 389 1036 q 347 1039 361 1038 q 331 1040 336 1039 l 325 1040 q 319 1038 322 1040 q 317 1028 319 1033 q 216 676 260 853 q 138 319 172 500 q 104 129 119 228 q 99 101 101 114 q 94 74 97 88 l 94 68 q 85 64 92 61 q 74 75 78 68 q 57 117 60 94 q 57 128 54 124 z "},"Δ":{"ha":513,"x_min":1,"x_max":475,"o":"m 4 110 q 10 114 4 114 q 22 116 17 115 q 33 117 26 117 q 39 121 38 117 q 44 135 42 129 q 69 196 57 165 q 96 257 82 226 q 136 351 115 304 q 176 443 157 397 q 282 678 229 561 q 388 913 335 794 l 425 996 q 432 1008 426 1000 l 439 1008 q 465 972 456 996 q 475 928 475 949 q 474 867 474 897 q 472 807 474 838 l 468 617 l 468 610 q 464 419 465 514 q 460 228 463 324 q 460 163 460 196 q 458 97 460 131 q 458 59 458 78 q 457 21 458 40 l 457 11 q 446 0 457 0 q 441 1 443 0 q 436 1 439 1 q 403 6 419 4 q 369 11 386 8 q 353 13 361 13 q 336 14 344 14 q 313 16 325 15 q 289 18 300 17 q 287 19 288 18 q 285 19 286 19 q 228 22 257 21 q 172 21 200 22 q 114 19 143 21 q 56 14 85 17 l 49 14 q 36 18 43 14 q 30 24 33 21 q 24 32 26 28 q 1 89 7 58 q 4 110 1 103 m 107 122 l 121 122 q 143 124 132 124 q 165 124 154 124 q 281 120 224 124 q 396 106 339 117 q 400 106 400 106 q 403 107 403 107 l 403 114 q 405 153 404 133 q 406 192 406 172 l 410 313 l 410 319 q 412 387 411 353 q 414 454 413 421 q 414 483 414 469 q 415 513 414 497 q 417 587 417 550 q 418 660 417 624 q 419 699 419 679 q 421 739 419 719 q 421 767 421 753 q 422 794 421 781 q 422 797 422 796 q 421 801 421 799 q 418 800 419 801 l 414 792 q 264 459 340 624 q 108 131 188 294 q 107 128 107 129 q 106 125 107 126 q 107 122 107 122 z "},"Ω":{"ha":740,"x_min":21,"x_max":714,"o":"m 56 67 q 111 68 83 68 q 167 68 139 68 q 190 69 183 68 l 197 69 q 200 74 200 69 q 199 82 200 79 q 190 100 196 93 q 177 121 183 111 q 164 142 171 131 q 121 240 133 183 q 117 296 117 269 q 142 405 119 353 q 202 499 164 457 q 290 567 240 540 q 396 603 340 594 q 485 606 442 610 q 628 540 581 594 q 676 393 676 486 q 642 249 674 318 q 564 122 611 179 q 540 92 553 107 q 511 64 526 78 q 513 63 513 64 q 514 63 513 63 l 519 63 q 534 61 526 61 q 549 61 542 61 l 606 61 q 629 60 617 60 q 653 58 642 60 q 683 53 671 58 q 700 46 689 51 q 711 29 710 39 q 706 11 714 17 q 699 7 703 8 q 693 3 696 6 q 672 0 679 0 q 640 1 657 0 q 608 1 624 1 q 596 2 601 1 q 583 3 590 3 q 512 4 547 3 q 442 11 476 6 q 418 17 428 14 q 411 25 411 19 q 410 56 406 39 q 419 80 413 69 q 435 101 426 90 q 459 132 444 117 q 486 158 474 147 q 492 165 489 161 q 497 171 494 168 q 559 263 529 208 q 596 368 589 318 q 596 431 603 400 q 588 453 593 439 q 494 528 558 513 q 438 532 465 535 q 352 509 392 528 q 282 460 313 490 q 231 391 251 431 q 204 307 211 351 q 222 169 193 235 q 239 139 228 154 q 248 122 243 131 q 257 106 253 114 q 265 90 261 99 q 271 75 268 82 q 276 51 274 65 q 275 31 279 40 q 267 21 272 22 q 262 18 264 19 q 257 17 260 17 q 236 11 250 14 q 226 10 231 10 q 215 8 221 10 q 163 5 189 6 q 111 7 138 4 q 93 8 101 8 q 75 11 85 8 q 61 13 68 13 q 47 17 54 14 q 36 21 39 19 q 21 44 21 28 q 32 64 21 61 q 56 67 43 67 z "},"π":{"ha":542,"x_min":58,"x_max":503,"o":"m 178 479 q 204 481 192 481 q 231 482 217 482 q 251 481 242 481 q 271 481 260 481 q 313 479 285 481 q 372 474 342 478 q 430 463 403 469 q 468 449 457 457 q 490 418 482 436 q 499 391 496 403 q 503 364 503 379 q 488 350 503 350 q 481 351 482 350 q 441 361 463 356 q 401 368 419 367 l 399 367 l 399 343 q 397 313 399 328 q 394 282 396 297 q 393 275 394 278 q 390 206 390 240 q 392 138 389 172 q 396 69 392 103 l 396 28 q 383 24 393 17 q 376 29 378 26 q 351 75 358 43 q 343 129 343 107 q 340 182 342 156 q 340 235 339 208 q 340 289 339 263 q 343 342 340 315 q 344 354 343 349 q 344 367 344 360 q 346 374 346 369 q 342 378 346 376 q 336 379 339 379 q 290 383 313 382 q 243 385 267 385 q 239 382 239 385 q 240 378 240 379 q 242 374 240 376 q 242 350 244 363 q 235 306 239 328 q 229 264 232 285 q 219 210 224 236 q 211 158 215 185 q 206 122 208 140 q 200 86 203 104 l 194 44 l 190 15 q 188 6 190 11 q 178 0 185 -3 q 175 1 176 1 q 172 3 174 1 q 165 10 168 6 q 143 53 149 32 q 140 97 136 72 q 149 147 144 122 q 157 196 153 172 q 167 244 163 219 q 175 293 171 269 q 183 337 179 315 q 192 379 186 358 q 193 385 193 381 l 190 388 q 189 388 189 388 q 131 375 150 385 q 96 331 113 365 l 96 325 q 97 321 97 322 q 99 317 97 319 q 100 299 101 306 q 99 297 99 297 q 97 294 99 296 q 92 293 94 292 q 88 296 88 293 l 79 304 q 65 335 71 319 q 58 369 60 351 q 68 418 58 399 q 94 450 78 438 q 133 469 111 463 q 178 479 154 475 z "},"∑":{"ha":779,"x_min":60,"x_max":778,"o":"m 64 68 q 67 77 65 72 q 71 86 68 82 q 75 94 74 90 q 79 101 76 97 q 176 246 124 174 q 229 318 203 282 q 282 392 256 354 q 335 469 311 432 q 342 481 338 476 q 347 490 346 488 q 342 500 347 492 q 298 575 319 538 q 253 649 276 613 q 224 701 238 675 q 199 756 211 728 q 185 785 192 771 q 171 814 178 799 q 156 843 164 829 q 140 871 149 857 q 133 881 136 876 q 125 892 129 886 q 122 897 124 894 q 119 901 121 899 q 124 919 115 913 q 133 925 125 921 q 156 931 144 929 q 179 932 168 932 q 239 930 210 931 q 297 928 268 929 q 355 925 326 926 q 413 922 383 924 q 535 916 475 919 q 656 906 594 913 q 667 905 661 906 q 678 904 672 904 q 758 875 721 900 q 771 864 767 867 l 775 856 q 769 844 778 847 q 763 843 768 843 q 707 839 735 840 q 651 838 679 838 q 585 838 618 838 q 517 840 551 839 q 473 842 494 842 q 428 844 451 843 l 425 844 q 374 847 400 846 q 322 849 349 847 l 264 849 l 264 846 q 267 843 264 846 q 276 831 272 836 q 283 818 279 825 q 305 777 294 797 q 326 736 315 757 l 393 607 q 410 574 401 590 q 429 540 419 557 q 433 532 433 539 q 440 509 438 521 q 443 486 442 497 q 438 463 443 472 q 400 393 418 428 q 364 322 382 358 q 313 224 338 274 q 263 126 288 175 q 252 107 257 117 q 240 88 247 97 q 238 82 240 85 q 239 78 236 78 q 243 77 242 78 q 247 76 244 76 l 303 76 q 394 75 349 75 q 488 75 440 75 q 524 75 507 75 q 561 76 542 75 l 607 76 q 633 74 619 78 q 675 59 658 67 q 711 36 692 51 q 721 24 718 29 q 724 18 724 21 q 709 5 724 7 q 688 3 694 3 q 644 0 665 0 q 600 1 622 0 q 558 1 579 1 q 514 3 536 1 l 425 3 q 336 3 382 3 q 242 1 290 4 q 208 1 225 0 q 175 3 192 1 q 119 14 149 4 q 94 23 107 17 q 71 39 81 29 q 64 68 60 51 z "},"∂":{"ha":597,"x_min":21,"x_max":574,"o":"m 21 299 l 21 318 q 22 325 22 321 q 67 456 26 396 q 176 539 108 515 q 250 550 214 551 q 391 497 328 546 q 482 378 454 449 q 483 375 482 376 q 485 378 485 375 q 494 417 490 397 q 500 457 497 438 q 504 490 503 474 q 507 524 506 507 q 507 594 510 560 q 506 614 507 604 q 504 633 506 624 q 501 656 504 642 q 478 765 494 711 q 426 863 463 818 q 418 870 422 867 q 410 878 414 874 q 397 886 403 882 q 385 896 392 890 q 342 913 367 908 q 329 919 338 914 q 307 971 314 942 l 307 983 q 314 992 307 990 l 324 992 l 326 992 q 335 991 331 992 q 342 990 339 990 q 445 921 403 978 q 515 788 488 864 q 557 633 543 713 q 574 497 571 554 q 574 494 574 494 l 574 433 l 574 418 q 572 406 572 411 q 572 400 572 401 q 564 333 571 367 q 546 246 558 292 q 512 157 533 200 q 460 78 490 114 q 390 22 431 43 q 349 7 371 11 q 304 0 328 3 q 300 0 300 0 l 292 0 q 288 0 292 0 q 229 11 254 3 q 148 52 185 24 q 84 119 111 81 q 41 201 57 157 q 22 292 25 246 q 21 299 22 296 m 85 222 q 88 208 85 217 q 93 201 92 204 q 152 157 117 172 q 224 135 188 142 q 238 133 231 133 q 254 133 246 132 q 286 137 269 133 q 318 146 303 140 q 408 213 375 169 q 464 313 442 257 q 464 317 467 315 q 461 326 463 322 q 458 336 460 331 q 419 385 444 364 q 356 424 392 410 q 282 439 319 439 q 197 418 238 439 q 140 374 163 399 q 101 311 117 350 q 85 222 81 265 z "},"∙":{"ha":272,"x_min":46,"x_max":192,"o":"m 46 383 q 65 433 46 417 q 107 449 83 449 q 153 433 131 449 q 183 389 176 418 q 169 333 192 358 q 117 308 147 308 q 67 332 88 308 q 46 383 46 356 z "},"∕":{"ha":529,"x_min":7,"x_max":524,"o":"m 8 74 l 13 99 q 22 103 13 110 q 43 141 33 122 q 64 179 53 160 q 90 229 76 204 q 115 279 103 254 q 208 455 161 367 q 300 631 254 543 q 393 805 347 718 q 490 978 439 892 q 502 975 494 985 q 513 963 510 965 q 520 943 517 954 q 519 924 524 932 q 470 819 496 871 q 418 717 444 768 q 328 538 374 626 q 236 360 282 450 q 190 271 213 315 q 144 182 168 226 q 122 138 133 160 q 99 93 110 115 q 76 47 88 69 q 51 4 64 25 q 44 0 49 -1 q 36 6 40 1 q 28 15 32 10 q 24 21 25 19 q 12 46 17 32 q 8 74 7 60 z "},"◊":{"ha":433,"x_min":28,"x_max":407,"o":"m 58 390 q 93 436 65 401 q 152 510 121 471 q 210 581 183 549 q 242 619 236 614 q 265 631 253 631 q 283 626 274 631 q 300 615 292 622 q 325 574 313 607 q 349 501 338 540 q 371 424 361 461 q 386 369 381 386 q 400 331 393 350 q 407 290 407 311 q 404 276 407 282 q 397 263 401 269 q 308 133 358 193 q 203 7 257 72 q 181 0 197 0 q 149 6 163 0 q 128 42 143 8 q 99 121 114 76 q 69 208 83 165 q 49 271 56 251 q 39 302 44 286 q 31 333 33 318 q 39 365 28 350 q 58 390 50 379 m 100 324 q 116 278 106 306 q 133 232 126 250 q 145 197 139 218 q 158 155 151 176 q 170 113 164 133 q 182 76 176 92 q 204 108 182 78 q 254 177 226 139 q 307 251 282 215 q 338 296 332 286 q 328 340 340 300 q 301 425 317 379 q 273 509 286 471 q 260 549 260 547 q 224 500 250 535 q 169 428 197 465 q 119 360 140 390 q 100 324 99 329 z "},"≈":{"ha":542,"x_min":25,"x_max":503,"o":"m 26 210 q 44 256 29 238 q 81 287 58 275 q 130 303 103 299 q 183 307 157 308 q 275 289 231 306 q 365 265 319 272 q 412 264 389 263 q 454 276 435 265 q 470 292 461 281 q 486 300 479 303 q 500 280 497 297 q 503 256 503 263 q 476 197 503 217 q 408 175 449 178 q 354 181 381 174 q 301 194 328 188 q 237 210 269 201 q 169 219 204 219 q 139 217 154 219 q 111 206 124 214 q 89 188 99 199 q 68 168 79 178 q 49 161 56 160 q 30 181 35 163 q 26 210 25 199 m 26 385 q 44 431 29 413 q 81 462 58 450 q 130 478 103 474 q 183 482 157 483 q 275 464 231 481 q 365 440 319 447 q 412 439 389 438 q 454 451 435 440 q 470 467 461 456 q 486 475 479 478 q 500 455 497 472 q 503 431 503 438 q 476 372 503 392 q 408 350 449 353 q 354 355 381 347 q 301 369 328 363 q 237 385 269 376 q 169 394 204 394 q 139 392 154 394 q 111 381 124 389 q 89 363 99 374 q 68 343 79 353 q 49 336 56 335 q 30 355 35 338 q 26 385 25 372 z "},"≤":{"ha":549,"x_min":24,"x_max":494,"o":"m 47 321 q 51 331 50 326 q 71 349 57 342 q 206 406 138 382 q 346 453 275 431 q 359 458 353 456 q 372 463 365 460 q 389 467 381 465 q 404 472 397 469 q 416 476 411 475 q 428 481 421 478 q 443 485 432 482 q 451 486 449 485 q 460 481 457 486 q 461 478 461 479 q 463 474 461 476 l 463 468 q 457 426 465 446 q 454 419 456 422 q 451 411 453 415 q 432 393 444 399 q 411 383 418 388 l 332 354 q 254 328 293 340 q 176 304 215 317 q 172 303 174 303 q 168 301 171 303 q 164 299 160 299 q 168 296 164 296 q 202 288 185 292 q 236 281 219 283 q 338 258 288 269 q 440 232 389 246 q 460 226 450 229 q 481 221 469 224 q 493 207 492 218 q 494 188 494 200 q 492 170 493 179 q 486 151 490 161 q 483 144 485 147 q 479 136 482 140 l 472 129 q 463 126 468 125 q 440 133 451 129 q 415 140 428 138 l 249 190 q 151 217 200 204 q 53 232 103 229 l 49 232 q 40 238 42 232 q 36 253 39 242 q 38 287 36 272 q 47 321 40 301 m 29 43 q 51 65 36 61 q 83 68 67 68 q 122 69 103 69 q 161 69 142 69 q 224 69 193 69 q 288 71 256 69 l 404 71 l 440 71 l 453 71 q 467 63 463 71 q 486 17 482 44 l 486 10 q 475 0 485 0 q 444 0 460 0 q 413 1 428 0 q 393 2 403 1 q 374 3 383 3 q 325 3 350 3 q 265 6 300 4 q 215 6 244 6 q 153 8 185 7 q 126 8 146 8 q 84 9 106 8 q 46 11 63 10 q 28 15 29 13 q 29 43 24 28 z "},"≥":{"ha":549,"x_min":60,"x_max":522,"o":"m 61 183 q 71 204 61 200 q 114 217 92 211 q 158 228 136 222 q 257 251 207 239 q 357 274 307 263 q 374 278 365 276 q 392 285 383 281 q 387 287 389 286 q 382 289 385 288 q 255 330 317 308 q 131 375 193 351 q 99 411 107 385 q 93 456 92 436 q 96 464 93 458 q 104 471 99 471 q 108 470 107 471 q 113 469 110 469 q 117 469 115 469 q 121 468 118 468 q 153 457 136 461 q 185 447 169 453 q 226 433 206 440 q 267 419 247 426 q 378 380 324 400 q 486 333 433 360 q 506 312 500 325 q 515 283 513 299 l 515 276 q 518 272 515 275 l 518 228 q 517 225 517 226 q 504 217 515 217 q 422 204 461 214 q 342 185 382 196 q 263 163 303 174 q 183 138 222 150 q 103 114 143 126 q 94 111 100 114 q 82 115 88 110 q 80 118 81 117 q 78 121 79 119 q 74 126 75 124 q 71 132 74 129 q 61 183 61 156 m 60 17 q 79 63 64 44 q 92 71 83 71 l 106 71 l 142 71 l 257 71 q 320 69 289 69 q 383 69 351 69 q 423 69 403 69 q 463 68 443 69 q 494 65 479 68 q 517 43 510 61 q 518 15 522 28 q 500 11 517 13 q 462 9 483 10 q 420 8 440 8 q 393 8 400 8 q 331 6 361 7 q 281 6 301 6 q 221 3 246 4 q 172 3 196 3 q 153 2 163 3 q 133 1 143 1 q 102 0 118 0 q 71 0 86 0 q 60 10 61 0 l 60 17 z "}}}
